<svg xmlns="http://www.w3.org/2000/svg" xmlns:xlink="http://www.w3.org/1999/xlink" width="40" zoomAndPan="magnify" viewBox="0 0 30 30.000001" height="40" preserveAspectRatio="xMidYMid meet" version="1.0"><defs><filter x="0%" y="0%" width="100%" height="100%" id="1245db78fb"><feColorMatrix values="0 0 0 0 1 0 0 0 0 1 0 0 0 0 1 0 0 0 1 0" color-interpolation-filters="sRGB"/></filter><clipPath id="01902003e8"><path d="M 7 15 L 28 15 L 28 29.03125 L 7 29.03125 Z M 7 15 " clip-rule="nonzero"/></clipPath><clipPath id="2412144eae"><path d="M 6 4 L 29.515625 4 L 29.515625 24 L 6 24 Z M 6 4 " clip-rule="nonzero"/></clipPath><clipPath id="56b0617660"><path d="M 12 0 L 29.515625 0 L 29.515625 22 L 12 22 Z M 12 0 " clip-rule="nonzero"/></clipPath><clipPath id="eedb4f5141"><path d="M 7 7 L 29 7 L 29 29.03125 L 7 29.03125 Z M 7 7 " clip-rule="nonzero"/></clipPath><clipPath id="24e3e9334e"><path d="M 14 8 L 29.515625 8 L 29.515625 29.03125 L 14 29.03125 Z M 14 8 " clip-rule="nonzero"/></clipPath><clipPath id="7ce1911717"><path d="M 18.957031 1.996094 L 24.039062 1.996094 L 24.039062 7.078125 L 18.957031 7.078125 Z M 18.957031 1.996094 " clip-rule="nonzero"/></clipPath><clipPath id="dd7bb62caa"><path d="M 21.496094 1.996094 C 20.09375 1.996094 18.957031 3.136719 18.957031 4.539062 C 18.957031 5.941406 20.09375 7.078125 21.496094 7.078125 C 22.898438 7.078125 24.039062 5.941406 24.039062 4.539062 C 24.039062 3.136719 22.898438 1.996094 21.496094 1.996094 Z M 21.496094 1.996094 " clip-rule="nonzero"/></clipPath><clipPath id="b2e8b37333"><path d="M 22.238281 12.273438 L 27.320312 12.273438 L 27.320312 17.355469 L 22.238281 17.355469 Z M 22.238281 12.273438 " clip-rule="nonzero"/></clipPath><clipPath id="f0bf96e599"><path d="M 24.777344 12.273438 C 23.375 12.273438 22.238281 13.410156 22.238281 14.8125 C 22.238281 16.214844 23.375 17.355469 24.777344 17.355469 C 26.179688 17.355469 27.320312 16.214844 27.320312 14.8125 C 27.320312 13.410156 26.179688 12.273438 24.777344 12.273438 Z M 24.777344 12.273438 " clip-rule="nonzero"/></clipPath><clipPath id="086901706f"><path d="M 18 21 L 24 21 L 24 27 L 18 27 Z M 18 21 " clip-rule="nonzero"/></clipPath><clipPath id="39ccadac37"><path d="M 24.882812 24.101562 L 21.292969 27.695312 L 17.699219 24.101562 L 21.292969 20.507812 Z M 24.882812 24.101562 " clip-rule="nonzero"/></clipPath><clipPath id="23b2642842"><path d="M 24.882812 24.101562 L 21.292969 27.695312 L 17.699219 24.101562 L 21.292969 20.507812 Z M 24.882812 24.101562 " clip-rule="nonzero"/></clipPath><clipPath id="dc64dc23c9"><path d="M 23.089844 25.898438 C 24.082031 24.90625 24.082031 23.296875 23.089844 22.304688 C 22.097656 21.3125 20.488281 21.3125 19.496094 22.304688 C 18.503906 23.296875 18.503906 24.90625 19.496094 25.898438 C 20.488281 26.890625 22.097656 26.890625 23.089844 25.898438 Z M 23.089844 25.898438 " clip-rule="nonzero"/></clipPath><clipPath id="a7f1327981"><path d="M 2.84375 1.453125 L 16.636719 1.453125 L 16.636719 26.855469 L 2.84375 26.855469 Z M 2.84375 1.453125 " clip-rule="nonzero"/></clipPath><clipPath id="29b28cc4e2"><path d="M 2 1 L 29.515625 1 L 29.515625 27 L 2 27 Z M 2 1 " clip-rule="nonzero"/></clipPath><mask id="6c3f811812"><g filter="url(#1245db78fb)"><rect x="-3" width="36" fill="#000000" y="-3" height="36.000001" fill-opacity="0.76"/></g></mask><clipPath id="3bf6de569b"><path d="M 0.84375 0.453125 L 14.636719 0.453125 L 14.636719 25.855469 L 0.84375 25.855469 Z M 0.84375 0.453125 " clip-rule="nonzero"/></clipPath><clipPath id="82d3de8bac"><rect x="0" width="28" y="0" height="26"/></clipPath><clipPath id="376d65a07e"><path d="M 3.628906 2.589844 L 15.96875 2.589844 L 15.96875 25.8125 L 3.628906 25.8125 Z M 3.628906 2.589844 " clip-rule="nonzero"/></clipPath></defs><g clip-path="url(#01902003e8)"><path stroke-linecap="butt" transform="matrix(0.68168, 0, 0, 0.725806, 14.568746, 23.378346)" fill="none" stroke-linejoin="miter" d="M 7.463186 1.001813 L 1.010836 1.001813 C 1.010836 1.001813 1.005105 0.996431 1.005105 0.996431 C 0.999375 0.996431 0.999375 0.991049 0.999375 0.985667 L 0.999375 0.974904 " stroke="#d9d9d9" stroke-width="2" stroke-opacity="1" stroke-miterlimit="4"/></g><path stroke-linecap="butt" transform="matrix(0.753269, 0, 0, 0.68168, 15.513954, 3.71793)" fill="none" stroke-linejoin="miter" d="M 5.784305 0.99828 L 4.46713 0.99828 C 4.119686 0.99828 3.782614 1.135808 3.538885 1.382212 C 3.28997 1.628616 3.155141 1.966706 3.155141 2.316256 L 3.155141 4.889174 C 3.155141 5.307488 2.989198 5.708611 2.693611 6.006588 C 2.398025 6.304565 1.993538 6.470744 1.57868 6.470744 L 0.00221837 6.470744 " stroke="#d9d9d9" stroke-width="2" stroke-opacity="1" stroke-miterlimit="4"/><g clip-path="url(#2412144eae)"><path stroke-linecap="butt" transform="matrix(0.719673, 0, 0, 0.761502, 14.66402, 12.044278)" fill="none" stroke-linejoin="miter" d="M 11.105365 3.778845 L 7.267901 3.778845 C 6.497152 3.778845 5.878381 3.153025 5.878381 2.388705 C 5.878381 1.619255 5.254183 0.998566 4.488861 0.998566 L 0.0000593891 0.998566 " stroke="#d9d9d9" stroke-width="2" stroke-opacity="1" stroke-miterlimit="4"/></g><g clip-path="url(#56b0617660)"><path stroke-linecap="butt" transform="matrix(0.772355, 0, 0, 0.722046, 20.633969, 6.428233)" fill="none" stroke-linejoin="miter" d="M 5.592193 9.052903 L 5.592193 6.077417 C 5.592193 4.973782 4.697 4.075726 3.594446 4.075726 L 2.997651 4.075726 C 1.895097 4.075726 0.999904 3.18308 0.999904 2.074035 L 0.999904 0.00201416 " stroke="#d9d9d9" stroke-width="2" stroke-opacity="1" stroke-miterlimit="4"/></g><g clip-path="url(#eedb4f5141)"><path stroke-linecap="butt" transform="matrix(0.697937, 0, 0, 0.699105, 14.567339, 15.836223)" fill="none" stroke-linejoin="miter" d="M 1.000499 -0.000408661 L 1.000499 1.865818 C 1.000499 2.899506 1.83443 3.732045 2.869847 3.732045 L 6.367877 3.732045 C 7.476053 3.732045 8.371548 4.631633 8.371548 5.732371 L 8.371548 9.347487 " stroke="#d9d9d9" stroke-width="2" stroke-opacity="1" stroke-miterlimit="4"/></g><g clip-path="url(#24e3e9334e)"><path stroke-linecap="butt" transform="matrix(0.665496, 0, 0, 0.724392, 21.457231, 16.65393)" fill="none" stroke-linejoin="miter" d="M 0.997546 8.032569 L 0.997546 5.152998 C 0.997546 4.694639 1.179506 4.252458 1.508208 3.92891 C 1.831041 3.605363 2.271267 3.42202 2.729102 3.42202 L 2.752581 3.42202 C 3.6976 3.42202 4.460659 2.656291 4.460659 1.712611 L 4.460659 -0.00219006 " stroke="#d9d9d9" stroke-width="2" stroke-opacity="1" stroke-miterlimit="4"/></g><g clip-path="url(#7ce1911717)"><g clip-path="url(#dd7bb62caa)"><path stroke-linecap="butt" transform="matrix(0.75095, 0, 0, 0.75095, 18.956768, 1.997709)" fill="none" stroke-linejoin="miter" d="M 3.381485 -0.00215078 C 1.514059 -0.00215078 0.000350615 1.516759 0.000350615 3.384186 C 0.000350615 5.251613 1.514059 6.765321 3.381485 6.765321 C 5.248912 6.765321 6.767822 5.251613 6.767822 3.384186 C 6.767822 1.516759 5.248912 -0.00215078 3.381485 -0.00215078 Z M 3.381485 -0.00215078 " stroke="#ff3131" stroke-width="4" stroke-opacity="1" stroke-miterlimit="4"/></g></g><g clip-path="url(#b2e8b37333)"><g clip-path="url(#f0bf96e599)"><path stroke-linecap="butt" transform="matrix(0.75095, 0, 0, 0.75095, 22.238283, 12.272887)" fill="none" stroke-linejoin="miter" d="M 3.381132 0.000732426 C 1.513706 0.000732426 -0.00000250135 1.51444 -0.00000250135 3.381867 C -0.00000250135 5.249294 1.513706 6.768204 3.381132 6.768204 C 5.248559 6.768204 6.767469 5.249294 6.767469 3.381867 C 6.767469 1.51444 5.248559 0.000732426 3.381132 0.000732426 Z M 3.381132 0.000732426 " stroke="#cb6ce6" stroke-width="4" stroke-opacity="1" stroke-miterlimit="4"/></g></g><g clip-path="url(#086901706f)"><g clip-path="url(#39ccadac37)"><g clip-path="url(#23b2642842)"><g clip-path="url(#dc64dc23c9)"><path stroke-linecap="butt" transform="matrix(-0.531002, 0.531002, -0.531002, -0.531002, 24.884307, 24.101167)" fill="none" stroke-linejoin="miter" d="M 3.382036 -0.00264376 C 1.513515 -0.00264376 -0.00189894 1.51277 -0.00189894 3.381291 C -0.00189894 5.249811 1.513515 6.765225 3.382036 6.765225 C 5.250556 6.765225 6.76597 5.249811 6.76597 3.381291 C 6.76597 1.51277 5.250556 -0.00264376 3.382036 -0.00264376 Z M 3.382036 -0.00264376 " stroke="#0cc0df" stroke-width="4" stroke-opacity="1" stroke-miterlimit="4"/></g></g></g></g><g clip-path="url(#a7f1327981)"><path fill="#d9d9d9" d="M 14.207031 1.566406 C 15.097656 1.726562 15.828125 2.214844 16.351562 2.953125 L 16.355469 2.953125 C 16.375 2.980469 16.386719 3.011719 16.386719 3.042969 C 16.386719 3.523438 16.386719 4.007812 16.386719 4.488281 C 16.386719 6.535156 16.386719 8.578125 16.386719 10.625 C 16.386719 15.523438 16.386719 20.421875 16.386719 25.316406 L 16.386719 25.351562 C 16.386719 25.390625 16.367188 25.425781 16.335938 25.453125 C 15.78125 25.921875 15.15625 26.332031 14.472656 26.585938 L 14.472656 26.589844 C 14.464844 26.589844 14.460938 26.589844 14.453125 26.589844 C 13.988281 26.761719 13.496094 26.855469 13 26.851562 C 11.707031 26.835938 10.578125 26.175781 9.644531 25.328125 L 9.628906 25.320312 L 9.613281 25.320312 C 8.6875 25.5 7.726562 25.441406 6.847656 25.066406 C 6.226562 24.796875 5.679688 24.382812 5.257812 23.851562 C 4.835938 23.332031 4.546875 22.710938 4.414062 22.050781 C 4.242188 21.222656 4.3125 20.367188 4.597656 19.574219 L 4.613281 19.535156 L 4.570312 19.53125 C 4.515625 19.527344 4.464844 19.519531 4.414062 19.515625 L 4.378906 19.511719 C 4.351562 19.507812 4.324219 19.5 4.304688 19.480469 C 3.980469 19.195312 3.6875 18.878906 3.453125 18.511719 C 3.03125 17.855469 2.851562 17.121094 2.964844 16.347656 C 3.0625 15.648438 3.398438 15.003906 3.855469 14.472656 C 4.09375 14.195312 4.371094 13.949219 4.675781 13.738281 L 4.695312 13.722656 L 4.683594 13.699219 C 4.472656 13.1875 4.292969 12.648438 4.191406 12.101562 C 4.0625 11.394531 4.070312 10.632812 4.390625 9.976562 C 4.710938 9.316406 5.277344 8.878906 5.9375 8.59375 C 6.300781 8.433594 6.6875 8.328125 7.078125 8.246094 L 7.113281 8.238281 L 7.105469 8.207031 C 6.988281 7.628906 6.996094 7.039062 7.148438 6.472656 C 7.335938 5.792969 7.714844 5.199219 8.230469 4.730469 C 8.632812 4.355469 9.167969 4.035156 9.707031 3.90625 C 9.871094 3.867188 10.046875 3.84375 10.214844 3.851562 L 10.25 3.855469 L 10.25 3.824219 C 10.277344 3.378906 10.5 2.980469 10.796875 2.65625 C 10.996094 2.4375 11.234375 2.25 11.488281 2.097656 C 11.492188 2.09375 11.492188 2.09375 11.496094 2.089844 L 11.5 2.089844 C 11.75 1.9375 12.015625 1.816406 12.289062 1.722656 C 12.902344 1.515625 13.566406 1.449219 14.207031 1.566406 Z M 26.882812 21.65625 C 27.246094 21.65625 27.542969 21.953125 27.542969 22.320312 C 27.542969 22.683594 27.246094 22.984375 26.882812 22.984375 C 26.519531 22.984375 26.222656 22.683594 26.222656 22.320312 C 26.222656 21.953125 26.519531 21.65625 26.882812 21.65625 Z M 20.640625 18.8125 C 21.003906 18.8125 21.300781 19.113281 21.300781 19.476562 C 21.300781 19.84375 21.003906 20.140625 20.640625 20.140625 C 20.277344 20.140625 19.980469 19.84375 19.980469 19.476562 C 19.980469 19.113281 20.277344 18.8125 20.640625 18.8125 Z M 22 22.617188 C 22.367188 22.617188 22.660156 22.914062 22.660156 23.28125 C 22.660156 23.644531 22.367188 23.941406 22 23.941406 C 21.636719 23.941406 21.34375 23.644531 21.34375 23.28125 C 21.34375 22.914062 21.636719 22.617188 22 22.617188 Z M 26.703125 19.039062 C 27.066406 19.039062 27.363281 19.332031 27.363281 19.699219 C 27.363281 20.066406 27.066406 20.359375 26.703125 20.359375 C 26.339844 20.359375 26.042969 20.066406 26.042969 19.699219 C 26.042969 19.332031 26.339844 19.039062 26.703125 19.039062 Z M 26.320312 13.109375 C 26.683594 13.109375 26.980469 13.40625 26.980469 13.773438 C 26.980469 14.136719 26.683594 14.433594 26.320312 14.433594 C 25.953125 14.433594 25.660156 14.136719 25.660156 13.773438 C 25.660156 13.40625 25.953125 13.109375 26.320312 13.109375 Z M 22.5625 16.152344 C 22.925781 16.152344 23.21875 16.449219 23.21875 16.816406 C 23.21875 17.179688 22.925781 17.476562 22.5625 17.476562 C 22.195312 17.476562 21.902344 17.179688 21.902344 16.816406 C 21.902344 16.449219 22.195312 16.152344 22.5625 16.152344 Z M 20.304688 9.777344 C 20.667969 9.777344 20.960938 10.074219 20.960938 10.4375 C 20.960938 10.804688 20.667969 11.101562 20.304688 11.101562 C 19.9375 11.101562 19.644531 10.804688 19.644531 10.4375 C 19.644531 10.074219 19.9375 9.777344 20.304688 9.777344 Z M 23.394531 9.679688 C 23.757812 9.679688 24.054688 9.976562 24.054688 10.34375 C 24.054688 10.707031 23.757812 11.003906 23.394531 11.003906 C 23.03125 11.003906 22.734375 10.707031 22.734375 10.34375 C 22.734375 9.976562 23.03125 9.679688 23.394531 9.679688 Z M 24.449219 6.886719 C 24.8125 6.886719 25.105469 7.179688 25.105469 7.546875 C 25.105469 7.914062 24.8125 8.210938 24.449219 8.210938 C 24.085938 8.210938 23.792969 7.914062 23.792969 7.546875 C 23.792969 7.179688 24.085938 6.886719 24.449219 6.886719 Z M 21.308594 5.226562 C 21.671875 5.226562 21.96875 5.523438 21.96875 5.890625 C 21.96875 6.253906 21.671875 6.550781 21.308594 6.550781 C 20.945312 6.550781 20.648438 6.253906 20.648438 5.890625 C 20.648438 5.523438 20.945312 5.226562 21.308594 5.226562 Z M 23.582031 7.335938 C 23.601562 7.246094 23.636719 7.164062 23.6875 7.085938 C 23.171875 6.789062 22.664062 6.484375 22.148438 6.183594 C 22.121094 6.269531 22.078125 6.347656 22.027344 6.417969 C 22.542969 6.722656 23.066406 7.03125 23.582031 7.335938 Z M 21.195312 10.4375 C 21.632812 10.417969 22.070312 10.390625 22.507812 10.371094 C 22.507812 10.359375 22.507812 10.351562 22.507812 10.34375 C 22.507812 10.261719 22.515625 10.183594 22.539062 10.101562 C 22.078125 10.125 21.617188 10.148438 21.15625 10.171875 C 21.183594 10.257812 21.195312 10.347656 21.195312 10.4375 Z M 21.492188 22.546875 C 21.566406 22.492188 21.648438 22.453125 21.734375 22.425781 C 21.5 21.710938 21.261719 21 21.027344 20.285156 C 20.949219 20.320312 20.863281 20.351562 20.773438 20.363281 C 21.015625 21.089844 21.253906 21.816406 21.492188 22.546875 Z M 22.128906 17.601562 C 22.050781 17.554688 21.980469 17.503906 21.917969 17.4375 C 21.636719 17.855469 21.355469 18.273438 21.070312 18.695312 C 21.152344 18.738281 21.222656 18.792969 21.285156 18.855469 C 21.566406 18.4375 21.847656 18.019531 22.128906 17.601562 Z M 26.0625 20.320312 C 25.996094 20.253906 25.945312 20.183594 25.90625 20.101562 C 24.8125 20.949219 23.722656 21.796875 22.628906 22.644531 C 22.691406 22.707031 22.746094 22.78125 22.789062 22.855469 C 23.878906 22.011719 24.96875 21.167969 26.0625 20.320312 Z M 26.566406 18.8125 C 26.3125 18.160156 26.058594 17.507812 25.800781 16.851562 L 25.796875 16.84375 L 25.800781 16.832031 C 25.972656 16.109375 26.140625 15.390625 26.3125 14.667969 C 26.222656 14.667969 26.132812 14.652344 26.046875 14.625 C 25.875 15.355469 25.703125 16.089844 25.535156 16.824219 C 25.527344 16.847656 25.527344 16.875 25.535156 16.898438 C 25.796875 17.566406 26.054688 18.230469 26.3125 18.894531 C 26.390625 18.855469 26.480469 18.828125 26.566406 18.8125 Z M 23.324219 17.277344 C 23.277344 17.355469 23.21875 17.425781 23.152344 17.484375 C 24.074219 18.078125 25 18.671875 25.925781 19.261719 C 25.96875 19.183594 26.023438 19.113281 26.089844 19.054688 C 25.167969 18.460938 24.246094 17.871094 23.324219 17.277344 Z M 24.308594 8.433594 C 24.21875 8.417969 24.132812 8.390625 24.054688 8.347656 C 23.886719 8.71875 23.726562 9.089844 23.566406 9.460938 C 23.65625 9.480469 23.738281 9.511719 23.820312 9.554688 C 23.980469 9.179688 24.144531 8.808594 24.308594 8.433594 Z M 26.054688 22.582031 C 26.027344 22.5 26.011719 22.410156 26.011719 22.320312 L 22.855469 23.027344 C 22.878906 23.105469 22.894531 23.195312 22.894531 23.28125 C 22.894531 23.28125 22.894531 23.285156 22.894531 23.289062 Z M 24.734375 8.398438 C 25.578125 9.847656 26.421875 11.304688 27.265625 12.753906 L 27.28125 12.78125 L 27.257812 12.796875 C 27.144531 12.898438 27.027344 13.003906 26.917969 13.105469 C 26.984375 13.164062 27.039062 13.234375 27.082031 13.3125 C 27.183594 13.222656 27.285156 13.128906 27.382812 13.042969 L 27.414062 13.015625 L 27.4375 13.050781 C 27.511719 13.179688 27.585938 13.308594 27.664062 13.441406 C 28.355469 14.910156 29.046875 16.371094 29.738281 17.835938 L 29.746094 17.855469 L 29.734375 17.867188 C 29.398438 18.347656 29.066406 18.828125 28.734375 19.308594 L 28.726562 19.324219 L 28.710938 19.324219 C 28.324219 19.355469 27.9375 19.390625 27.550781 19.421875 C 27.578125 19.507812 27.59375 19.597656 27.59375 19.6875 C 27.882812 19.664062 28.167969 19.636719 28.457031 19.613281 L 28.53125 19.605469 L 27.207031 21.511719 C 27.289062 21.546875 27.367188 21.589844 27.4375 21.648438 L 28.871094 19.578125 L 28.890625 19.574219 C 28.957031 19.570312 29.019531 19.566406 29.085938 19.558594 L 29.109375 19.558594 L 29.121094 19.578125 C 29.410156 20.351562 29.496094 21.1875 29.328125 22 C 29.199219 22.613281 28.929688 23.195312 28.535156 23.683594 C 28.40625 23.851562 28.265625 24 28.109375 24.140625 L 28.078125 24.167969 L 27.414062 23.007812 C 27.34375 23.0625 27.269531 23.105469 27.183594 23.136719 L 27.871094 24.335938 L 27.847656 24.355469 C 27.601562 24.539062 27.328125 24.699219 27.046875 24.820312 C 26.195312 25.183594 25.253906 25.230469 24.355469 25.042969 C 24.316406 25.035156 24.269531 25.046875 24.238281 25.074219 C 23.34375 25.902344 22.246094 26.570312 20.996094 26.585938 C 20.605469 26.589844 20.21875 26.527344 19.84375 26.414062 L 19.800781 26.398438 L 19.828125 26.359375 C 20.402344 25.59375 20.980469 24.824219 21.554688 24.054688 C 21.480469 24.011719 21.410156 23.953125 21.351562 23.890625 C 20.75 24.6875 20.148438 25.488281 19.550781 26.28125 L 19.535156 26.304688 L 19.507812 26.292969 C 18.921875 26.058594 18.378906 25.703125 17.894531 25.296875 L 17.878906 25.289062 L 17.878906 25.273438 C 17.878906 23.507812 17.878906 21.746094 17.878906 19.984375 L 17.878906 19.953125 L 17.910156 19.949219 C 18.539062 19.890625 19.167969 19.832031 19.800781 19.773438 C 19.769531 19.6875 19.753906 19.601562 19.75 19.507812 C 19.140625 19.566406 18.527344 19.625 17.917969 19.683594 L 17.878906 19.6875 L 17.878906 19.648438 C 17.878906 19.007812 17.878906 18.367188 17.878906 17.726562 L 17.878906 17.636719 L 17.9375 17.707031 C 17.964844 17.738281 18.003906 17.753906 18.046875 17.75 C 19.148438 17.683594 20.242188 17.621094 21.339844 17.554688 C 21.390625 17.550781 21.4375 17.515625 21.453125 17.46875 C 21.527344 17.269531 21.597656 17.074219 21.671875 16.878906 C 21.667969 16.859375 21.667969 16.835938 21.667969 16.816406 C 21.667969 16.582031 21.757812 16.359375 21.917969 16.191406 C 21.933594 16.160156 21.945312 16.125 21.957031 16.089844 L 21.988281 16.003906 L 22.019531 16.089844 C 22.019531 16.09375 22.019531 16.097656 22.023438 16.101562 C 22.09375 16.046875 22.175781 16.003906 22.257812 15.972656 C 22.214844 15.859375 22.175781 15.746094 22.132812 15.628906 L 22.128906 15.621094 L 22.132812 15.609375 C 22.253906 15.265625 22.378906 14.925781 22.503906 14.585938 L 22.507812 14.578125 L 22.507812 14.574219 C 23.0625 13.9375 23.613281 13.296875 24.164062 12.65625 L 24.183594 12.636719 L 24.207031 12.648438 C 24.230469 12.664062 24.253906 12.679688 24.285156 12.695312 L 24.292969 12.699219 L 24.296875 12.710938 C 24.4375 13.054688 24.582031 13.394531 24.722656 13.734375 L 24.730469 13.75 L 24.714844 13.769531 C 24.132812 14.515625 23.546875 15.265625 22.960938 16.015625 C 23.039062 16.054688 23.113281 16.109375 23.179688 16.171875 C 23.78125 15.398438 24.382812 14.628906 24.988281 13.855469 C 25.015625 13.816406 25.023438 13.761719 25.003906 13.714844 C 24.90625 13.480469 24.808594 13.246094 24.710938 13.011719 L 24.671875 12.921875 L 24.757812 12.972656 C 25.007812 13.117188 25.253906 13.261719 25.503906 13.402344 C 25.539062 13.324219 25.589844 13.246094 25.648438 13.179688 C 25.273438 12.960938 24.890625 12.742188 24.511719 12.519531 L 24.503906 12.511719 L 24.5 12.503906 C 24.300781 12.03125 24.105469 11.550781 23.90625 11.078125 C 23.832031 11.128906 23.753906 11.171875 23.667969 11.199219 C 23.820312 11.5625 23.972656 11.929688 24.121094 12.296875 L 24.136719 12.328125 L 24.105469 12.339844 C 24.085938 12.347656 24.0625 12.363281 24.050781 12.378906 L 24.050781 12.382812 C 23.460938 13.0625 22.875 13.742188 22.289062 14.425781 C 22.277344 14.433594 22.273438 14.449219 22.265625 14.464844 C 22.179688 14.695312 22.101562 14.921875 22.015625 15.148438 L 21.984375 15.234375 L 21.953125 15.148438 C 21.664062 14.367188 21.375 13.585938 21.085938 12.804688 L 21.078125 12.785156 L 21.09375 12.769531 C 21.660156 12.179688 22.226562 11.589844 22.796875 11.003906 C 22.730469 10.941406 22.671875 10.871094 22.628906 10.796875 C 22.03125 11.414062 21.4375 12.027344 20.84375 12.644531 L 20.839844 12.648438 L 20.835938 12.648438 C 19.972656 13.203125 19.105469 13.761719 18.242188 14.320312 L 18.128906 14.394531 L 18.195312 14.273438 C 18.765625 13.265625 19.339844 12.253906 19.90625 11.242188 C 19.828125 11.203125 19.753906 11.148438 19.691406 11.085938 C 19.109375 12.117188 18.523438 13.148438 17.941406 14.179688 L 17.878906 14.292969 L 17.878906 14.164062 C 17.878906 13.035156 17.878906 11.902344 17.878906 10.773438 L 17.878906 10.746094 L 17.910156 10.742188 C 18.414062 10.6875 18.917969 10.628906 19.421875 10.578125 C 19.414062 10.53125 19.414062 10.484375 19.414062 10.4375 C 19.414062 10.394531 19.414062 10.351562 19.421875 10.308594 C 19.089844 10.34375 18.757812 10.382812 18.425781 10.417969 L 18.289062 10.429688 L 18.40625 10.355469 C 19.175781 9.855469 19.945312 9.355469 20.714844 8.855469 L 20.714844 8.851562 C 20.75 8.835938 20.773438 8.804688 20.78125 8.765625 C 20.925781 8.101562 21.066406 7.441406 21.210938 6.777344 C 21.121094 6.765625 21.03125 6.746094 20.953125 6.710938 C 20.8125 7.351562 20.671875 7.996094 20.535156 8.640625 L 20.53125 8.65625 L 20.523438 8.664062 C 19.65625 9.222656 18.792969 9.785156 17.933594 10.347656 L 17.878906 10.382812 L 17.878906 10.320312 C 17.878906 8.457031 17.878906 6.589844 17.878906 4.730469 L 17.878906 4.679688 L 17.925781 4.699219 C 18.765625 5.015625 19.609375 5.335938 20.449219 5.65625 C 20.46875 5.566406 20.507812 5.488281 20.554688 5.410156 C 19.671875 5.074219 18.789062 4.738281 17.898438 4.402344 L 17.878906 4.394531 L 17.878906 4.371094 C 17.878906 3.945312 17.878906 3.519531 17.878906 3.09375 L 17.878906 3.085938 L 17.886719 3.074219 C 18.367188 2.410156 19.035156 1.972656 19.839844 1.828125 C 20.433594 1.722656 21.058594 1.785156 21.625 1.976562 C 21.84375 2.050781 22.054688 2.140625 22.253906 2.253906 L 22.277344 2.265625 L 22.269531 2.292969 C 21.980469 3.195312 21.691406 4.09375 21.402344 5 C 21.492188 5.007812 21.582031 5.03125 21.660156 5.066406 C 21.914062 4.277344 22.164062 3.492188 22.417969 2.703125 L 22.445312 2.609375 L 22.480469 2.703125 C 22.988281 4.058594 23.496094 5.417969 23.996094 6.773438 C 24.074219 6.726562 24.15625 6.695312 24.246094 6.675781 C 23.75 5.34375 23.253906 4.011719 22.753906 2.679688 L 22.707031 2.554688 L 22.808594 2.644531 C 22.875 2.707031 22.945312 2.769531 23.003906 2.839844 C 23.296875 3.15625 23.515625 3.566406 23.480469 4.007812 C 23.476562 4.082031 23.53125 4.144531 23.601562 4.152344 C 23.625 4.152344 23.640625 4.148438 23.65625 4.144531 L 23.65625 4.140625 L 23.660156 4.140625 C 23.839844 4.09375 24.054688 4.121094 24.230469 4.164062 C 24.707031 4.277344 25.171875 4.558594 25.539062 4.878906 L 25.558594 4.894531 L 25.546875 4.917969 C 25.542969 4.925781 25.539062 4.933594 25.535156 4.941406 C 25.28125 5.53125 25.023438 6.121094 24.765625 6.710938 C 24.851562 6.746094 24.9375 6.789062 25.007812 6.851562 C 25.253906 6.277344 25.5 5.707031 25.742188 5.140625 L 25.765625 5.089844 L 25.796875 5.128906 C 26.171875 5.527344 26.449219 6.007812 26.59375 6.542969 C 26.753906 7.125 26.738281 7.726562 26.597656 8.3125 C 26.582031 8.382812 26.625 8.457031 26.699219 8.472656 C 26.703125 8.472656 26.710938 8.476562 26.714844 8.476562 L 26.71875 8.476562 C 27.140625 8.554688 27.5625 8.671875 27.957031 8.84375 C 28.554688 9.097656 29.078125 9.492188 29.371094 10.089844 C 29.46875 10.292969 29.539062 10.511719 29.578125 10.734375 L 29.585938 10.773438 L 29.546875 10.773438 C 29.515625 10.777344 29.484375 10.789062 29.460938 10.808594 C 28.8125 11.394531 28.164062 11.980469 27.511719 12.570312 L 27.480469 12.597656 L 27.460938 12.5625 C 26.628906 11.132812 25.796875 9.703125 24.972656 8.273438 C 24.898438 8.328125 24.816406 8.367188 24.734375 8.398438 Z M 29.164062 19.15625 C 29.445312 18.75 29.726562 18.347656 30.007812 17.941406 C 30.035156 17.898438 30.039062 17.847656 30.011719 17.800781 C 29.3125 16.308594 28.605469 14.816406 27.902344 13.324219 C 27.902344 13.320312 27.898438 13.316406 27.894531 13.308594 C 27.804688 13.160156 27.71875 13.007812 27.632812 12.855469 L 27.617188 12.832031 L 27.640625 12.816406 C 28.277344 12.238281 28.921875 11.65625 29.558594 11.078125 L 29.613281 11.03125 L 29.617188 11.101562 C 29.632812 11.417969 29.601562 11.742188 29.546875 12.054688 C 29.441406 12.625 29.246094 13.191406 29.015625 13.71875 C 28.992188 13.78125 29.015625 13.855469 29.070312 13.886719 L 29.074219 13.890625 C 29.394531 14.097656 29.691406 14.355469 29.945312 14.644531 C 30.367188 15.136719 30.675781 15.734375 30.769531 16.382812 C 30.875 17.09375 30.703125 17.769531 30.324219 18.367188 C 30.113281 18.695312 29.851562 18.984375 29.5625 19.242188 L 29.554688 19.25 L 29.542969 19.253906 C 29.460938 19.261719 29.382812 19.265625 29.300781 19.269531 L 29.285156 19.273438 L 29.273438 19.261719 C 29.253906 19.230469 29.222656 19.214844 29.1875 19.210938 L 29.132812 19.203125 Z M 17.898438 14.859375 C 18.871094 14.230469 19.847656 13.605469 20.824219 12.976562 L 20.859375 12.953125 L 20.871094 12.992188 C 21.195312 13.863281 21.519531 14.734375 21.84375 15.609375 L 21.847656 15.621094 L 21.84375 15.628906 C 21.644531 16.175781 21.445312 16.726562 21.246094 17.273438 L 21.238281 17.296875 L 21.214844 17.296875 C 20.15625 17.359375 19.09375 17.421875 18.03125 17.484375 C 17.996094 17.488281 17.964844 17.507812 17.9375 17.535156 L 17.878906 17.605469 L 17.878906 17.511719 C 17.878906 16.636719 17.878906 15.765625 17.878906 14.886719 L 17.878906 14.871094 Z M 29.585938 19.515625 L 29.617188 19.511719 C 29.648438 19.507812 29.675781 19.5 29.695312 19.480469 C 30.019531 19.195312 30.3125 18.878906 30.546875 18.511719 C 30.964844 17.855469 31.148438 17.121094 31.035156 16.347656 C 30.933594 15.648438 30.601562 15.003906 30.144531 14.472656 C 29.90625 14.195312 29.628906 13.949219 29.324219 13.738281 L 29.304688 13.722656 L 29.316406 13.699219 C 29.527344 13.1875 29.707031 12.648438 29.808594 12.101562 C 29.9375 11.394531 29.929688 10.632812 29.609375 9.976562 C 29.289062 9.316406 28.722656 8.878906 28.0625 8.59375 C 27.699219 8.433594 27.3125 8.328125 26.917969 8.246094 L 26.886719 8.238281 L 26.894531 8.207031 C 27.011719 7.628906 27.003906 7.039062 26.851562 6.472656 C 26.664062 5.792969 26.285156 5.199219 25.769531 4.730469 C 25.367188 4.355469 24.832031 4.035156 24.292969 3.90625 C 24.128906 3.867188 23.953125 3.84375 23.785156 3.851562 L 23.75 3.855469 L 23.75 3.824219 C 23.722656 3.378906 23.496094 2.980469 23.203125 2.65625 C 23 2.4375 22.765625 2.25 22.507812 2.097656 C 22.507812 2.09375 22.507812 2.09375 22.503906 2.089844 L 22.5 2.089844 C 22.25 1.9375 21.984375 1.816406 21.710938 1.722656 C 21.097656 1.515625 20.433594 1.449219 19.792969 1.566406 C 18.902344 1.726562 18.171875 2.214844 17.648438 2.953125 L 17.644531 2.953125 C 17.625 2.980469 17.613281 3.011719 17.613281 3.042969 C 17.613281 3.523438 17.613281 4.007812 17.613281 4.488281 C 17.613281 6.535156 17.613281 8.578125 17.613281 10.625 C 17.613281 15.523438 17.613281 20.421875 17.613281 25.316406 L 17.613281 25.351562 C 17.613281 25.390625 17.632812 25.425781 17.664062 25.453125 C 18.21875 25.921875 18.84375 26.332031 19.527344 26.585938 L 19.527344 26.589844 C 19.535156 26.589844 19.539062 26.589844 19.542969 26.589844 C 20.011719 26.761719 20.5 26.855469 21 26.851562 C 22.292969 26.835938 23.421875 26.175781 24.355469 25.328125 L 24.371094 25.320312 L 24.382812 25.320312 C 25.3125 25.5 26.273438 25.441406 27.148438 25.066406 C 27.773438 24.796875 28.320312 24.382812 28.742188 23.851562 C 29.164062 23.332031 29.453125 22.710938 29.585938 22.050781 C 29.757812 21.222656 29.683594 20.367188 29.402344 19.574219 L 29.386719 19.535156 L 29.429688 19.53125 C 29.484375 19.527344 29.535156 19.519531 29.585938 19.515625 " fill-opacity="1" fill-rule="evenodd"/></g><g clip-path="url(#29b28cc4e2)"><g mask="url(#6c3f811812)"><g transform="matrix(1, 0, 0, 1, 2, 1)"><g clip-path="url(#82d3de8bac)"><g clip-path="url(#3bf6de569b)"><path fill="#ffffff" d="M 12.207031 0.566406 C 13.097656 0.726562 13.828125 1.214844 14.351562 1.953125 L 14.355469 1.953125 C 14.375 1.980469 14.386719 2.011719 14.386719 2.042969 C 14.386719 2.523438 14.386719 3.007812 14.386719 3.488281 C 14.386719 5.535156 14.386719 7.578125 14.386719 9.625 C 14.386719 14.523438 14.386719 19.421875 14.386719 24.316406 L 14.386719 24.351562 C 14.386719 24.390625 14.367188 24.425781 14.335938 24.453125 C 13.78125 24.921875 13.15625 25.332031 12.472656 25.585938 L 12.472656 25.589844 C 12.464844 25.589844 12.460938 25.589844 12.453125 25.589844 C 11.988281 25.761719 11.496094 25.855469 11 25.851562 C 9.707031 25.835938 8.578125 25.175781 7.644531 24.328125 L 7.628906 24.320312 L 7.613281 24.320312 C 6.6875 24.5 5.726562 24.441406 4.847656 24.066406 C 4.226562 23.796875 3.679688 23.382812 3.257812 22.851562 C 2.835938 22.332031 2.546875 21.710938 2.414062 21.050781 C 2.242188 20.222656 2.3125 19.367188 2.597656 18.574219 L 2.613281 18.535156 L 2.570312 18.53125 C 2.515625 18.527344 2.464844 18.519531 2.414062 18.515625 L 2.378906 18.511719 C 2.351562 18.507812 2.324219 18.5 2.304688 18.480469 C 1.980469 18.195312 1.6875 17.878906 1.453125 17.511719 C 1.03125 16.855469 0.851562 16.121094 0.964844 15.347656 C 1.0625 14.648438 1.398438 14.003906 1.855469 13.472656 C 2.09375 13.195312 2.371094 12.949219 2.675781 12.738281 L 2.695312 12.722656 L 2.683594 12.699219 C 2.472656 12.1875 2.292969 11.648438 2.191406 11.101562 C 2.0625 10.394531 2.070312 9.632812 2.390625 8.976562 C 2.710938 8.316406 3.277344 7.878906 3.9375 7.59375 C 4.300781 7.433594 4.6875 7.328125 5.078125 7.246094 L 5.113281 7.238281 L 5.105469 7.207031 C 4.988281 6.628906 4.996094 6.039062 5.148438 5.472656 C 5.335938 4.792969 5.714844 4.199219 6.230469 3.730469 C 6.632812 3.355469 7.167969 3.035156 7.707031 2.90625 C 7.871094 2.867188 8.046875 2.84375 8.214844 2.851562 L 8.25 2.855469 L 8.25 2.824219 C 8.277344 2.378906 8.5 1.980469 8.796875 1.65625 C 8.996094 1.4375 9.234375 1.25 9.488281 1.097656 C 9.492188 1.09375 9.492188 1.09375 9.496094 1.089844 L 9.5 1.089844 C 9.75 0.9375 10.015625 0.816406 10.289062 0.722656 C 10.902344 0.515625 11.566406 0.449219 12.207031 0.566406 Z M 24.882812 20.65625 C 25.246094 20.65625 25.542969 20.953125 25.542969 21.320312 C 25.542969 21.683594 25.246094 21.984375 24.882812 21.984375 C 24.519531 21.984375 24.222656 21.683594 24.222656 21.320312 C 24.222656 20.953125 24.519531 20.65625 24.882812 20.65625 Z M 18.640625 17.8125 C 19.003906 17.8125 19.300781 18.113281 19.300781 18.476562 C 19.300781 18.84375 19.003906 19.140625 18.640625 19.140625 C 18.277344 19.140625 17.980469 18.84375 17.980469 18.476562 C 17.980469 18.113281 18.277344 17.8125 18.640625 17.8125 Z M 20 21.617188 C 20.367188 21.617188 20.660156 21.914062 20.660156 22.28125 C 20.660156 22.644531 20.367188 22.941406 20 22.941406 C 19.636719 22.941406 19.34375 22.644531 19.34375 22.28125 C 19.34375 21.914062 19.636719 21.617188 20 21.617188 Z M 24.703125 18.039062 C 25.066406 18.039062 25.363281 18.332031 25.363281 18.699219 C 25.363281 19.066406 25.066406 19.359375 24.703125 19.359375 C 24.339844 19.359375 24.042969 19.066406 24.042969 18.699219 C 24.042969 18.332031 24.339844 18.039062 24.703125 18.039062 Z M 24.320312 12.109375 C 24.683594 12.109375 24.980469 12.40625 24.980469 12.773438 C 24.980469 13.136719 24.683594 13.433594 24.320312 13.433594 C 23.953125 13.433594 23.660156 13.136719 23.660156 12.773438 C 23.660156 12.40625 23.953125 12.109375 24.320312 12.109375 Z M 20.5625 15.152344 C 20.925781 15.152344 21.21875 15.449219 21.21875 15.816406 C 21.21875 16.179688 20.925781 16.476562 20.5625 16.476562 C 20.195312 16.476562 19.902344 16.179688 19.902344 15.816406 C 19.902344 15.449219 20.195312 15.152344 20.5625 15.152344 Z M 18.304688 8.777344 C 18.667969 8.777344 18.960938 9.074219 18.960938 9.4375 C 18.960938 9.804688 18.667969 10.101562 18.304688 10.101562 C 17.9375 10.101562 17.644531 9.804688 17.644531 9.4375 C 17.644531 9.074219 17.9375 8.777344 18.304688 8.777344 Z M 21.394531 8.679688 C 21.757812 8.679688 22.054688 8.976562 22.054688 9.34375 C 22.054688 9.707031 21.757812 10.003906 21.394531 10.003906 C 21.03125 10.003906 20.734375 9.707031 20.734375 9.34375 C 20.734375 8.976562 21.03125 8.679688 21.394531 8.679688 Z M 22.449219 5.886719 C 22.8125 5.886719 23.105469 6.179688 23.105469 6.546875 C 23.105469 6.914062 22.8125 7.210938 22.449219 7.210938 C 22.085938 7.210938 21.792969 6.914062 21.792969 6.546875 C 21.792969 6.179688 22.085938 5.886719 22.449219 5.886719 Z M 19.308594 4.226562 C 19.671875 4.226562 19.96875 4.523438 19.96875 4.890625 C 19.96875 5.253906 19.671875 5.550781 19.308594 5.550781 C 18.945312 5.550781 18.648438 5.253906 18.648438 4.890625 C 18.648438 4.523438 18.945312 4.226562 19.308594 4.226562 Z M 21.582031 6.335938 C 21.601562 6.246094 21.636719 6.164062 21.6875 6.085938 C 21.171875 5.789062 20.664062 5.484375 20.148438 5.183594 C 20.121094 5.269531 20.078125 5.347656 20.027344 5.417969 C 20.542969 5.722656 21.066406 6.03125 21.582031 6.335938 Z M 19.195312 9.4375 C 19.632812 9.417969 20.070312 9.390625 20.507812 9.371094 C 20.507812 9.359375 20.507812 9.351562 20.507812 9.34375 C 20.507812 9.261719 20.515625 9.183594 20.539062 9.101562 C 20.078125 9.125 19.617188 9.148438 19.15625 9.171875 C 19.183594 9.257812 19.195312 9.347656 19.195312 9.4375 Z M 19.492188 21.546875 C 19.566406 21.492188 19.648438 21.453125 19.734375 21.425781 C 19.5 20.710938 19.261719 20 19.027344 19.285156 C 18.949219 19.320312 18.863281 19.351562 18.773438 19.363281 C 19.015625 20.089844 19.253906 20.816406 19.492188 21.546875 Z M 20.128906 16.601562 C 20.050781 16.554688 19.980469 16.503906 19.917969 16.4375 C 19.636719 16.855469 19.355469 17.273438 19.070312 17.695312 C 19.152344 17.738281 19.222656 17.792969 19.285156 17.855469 C 19.566406 17.4375 19.847656 17.019531 20.128906 16.601562 Z M 24.0625 19.320312 C 23.996094 19.253906 23.945312 19.183594 23.90625 19.101562 C 22.8125 19.949219 21.722656 20.796875 20.628906 21.644531 C 20.691406 21.707031 20.746094 21.78125 20.789062 21.855469 C 21.878906 21.011719 22.96875 20.167969 24.0625 19.320312 Z M 24.566406 17.8125 C 24.3125 17.160156 24.058594 16.507812 23.800781 15.851562 L 23.796875 15.84375 L 23.800781 15.832031 C 23.972656 15.109375 24.140625 14.390625 24.3125 13.667969 C 24.222656 13.667969 24.132812 13.652344 24.046875 13.625 C 23.875 14.355469 23.703125 15.089844 23.535156 15.824219 C 23.527344 15.847656 23.527344 15.875 23.535156 15.898438 C 23.796875 16.566406 24.054688 17.230469 24.3125 17.894531 C 24.390625 17.855469 24.480469 17.828125 24.566406 17.8125 Z M 21.324219 16.277344 C 21.277344 16.355469 21.21875 16.425781 21.152344 16.484375 C 22.074219 17.078125 23 17.671875 23.925781 18.261719 C 23.96875 18.183594 24.023438 18.113281 24.089844 18.054688 C 23.167969 17.460938 22.246094 16.871094 21.324219 16.277344 Z M 22.308594 7.433594 C 22.21875 7.417969 22.132812 7.390625 22.054688 7.347656 C 21.886719 7.71875 21.726562 8.089844 21.566406 8.460938 C 21.65625 8.480469 21.738281 8.511719 21.820312 8.554688 C 21.980469 8.179688 22.144531 7.808594 22.308594 7.433594 Z M 24.054688 21.582031 C 24.027344 21.5 24.011719 21.410156 24.011719 21.320312 L 20.855469 22.027344 C 20.878906 22.105469 20.894531 22.195312 20.894531 22.28125 C 20.894531 22.28125 20.894531 22.285156 20.894531 22.289062 Z M 22.734375 7.398438 C 23.578125 8.847656 24.421875 10.304688 25.265625 11.753906 L 25.28125 11.78125 L 25.257812 11.796875 C 25.144531 11.898438 25.027344 12.003906 24.917969 12.105469 C 24.984375 12.164062 25.039062 12.234375 25.082031 12.3125 C 25.183594 12.222656 25.285156 12.128906 25.382812 12.042969 L 25.414062 12.015625 L 25.4375 12.050781 C 25.511719 12.179688 25.585938 12.308594 25.664062 12.441406 C 26.355469 13.910156 27.046875 15.371094 27.738281 16.835938 L 27.746094 16.855469 L 27.734375 16.867188 C 27.398438 17.347656 27.066406 17.828125 26.734375 18.308594 L 26.726562 18.324219 L 26.710938 18.324219 C 26.324219 18.355469 25.9375 18.390625 25.550781 18.421875 C 25.578125 18.507812 25.59375 18.597656 25.59375 18.6875 C 25.882812 18.664062 26.167969 18.636719 26.457031 18.613281 L 26.53125 18.605469 L 25.207031 20.511719 C 25.289062 20.546875 25.367188 20.589844 25.4375 20.648438 L 26.871094 18.578125 L 26.890625 18.574219 C 26.957031 18.570312 27.019531 18.566406 27.085938 18.558594 L 27.109375 18.558594 L 27.121094 18.578125 C 27.410156 19.351562 27.496094 20.1875 27.328125 21 C 27.199219 21.613281 26.929688 22.195312 26.535156 22.683594 C 26.40625 22.851562 26.265625 23 26.109375 23.140625 L 26.078125 23.167969 L 25.414062 22.007812 C 25.34375 22.0625 25.269531 22.105469 25.183594 22.136719 L 25.871094 23.335938 L 25.847656 23.355469 C 25.601562 23.539062 25.328125 23.699219 25.046875 23.820312 C 24.195312 24.183594 23.253906 24.230469 22.355469 24.042969 C 22.316406 24.035156 22.269531 24.046875 22.238281 24.074219 C 21.34375 24.902344 20.246094 25.570312 18.996094 25.585938 C 18.605469 25.589844 18.21875 25.527344 17.84375 25.414062 L 17.800781 25.398438 L 17.828125 25.359375 C 18.402344 24.59375 18.980469 23.824219 19.554688 23.054688 C 19.480469 23.011719 19.410156 22.953125 19.351562 22.890625 C 18.75 23.6875 18.148438 24.488281 17.550781 25.28125 L 17.535156 25.304688 L 17.507812 25.292969 C 16.921875 25.058594 16.378906 24.703125 15.894531 24.296875 L 15.878906 24.289062 L 15.878906 24.273438 C 15.878906 22.507812 15.878906 20.746094 15.878906 18.984375 L 15.878906 18.953125 L 15.910156 18.949219 C 16.539062 18.890625 17.167969 18.832031 17.800781 18.773438 C 17.769531 18.6875 17.753906 18.601562 17.75 18.507812 C 17.140625 18.566406 16.527344 18.625 15.917969 18.683594 L 15.878906 18.6875 L 15.878906 18.648438 C 15.878906 18.007812 15.878906 17.367188 15.878906 16.726562 L 15.878906 16.636719 L 15.9375 16.707031 C 15.964844 16.738281 16.003906 16.753906 16.046875 16.75 C 17.148438 16.683594 18.242188 16.621094 19.339844 16.554688 C 19.390625 16.550781 19.4375 16.515625 19.453125 16.46875 C 19.527344 16.269531 19.597656 16.074219 19.671875 15.878906 C 19.667969 15.859375 19.667969 15.835938 19.667969 15.816406 C 19.667969 15.582031 19.757812 15.359375 19.917969 15.191406 C 19.933594 15.160156 19.945312 15.125 19.957031 15.089844 L 19.988281 15.003906 L 20.019531 15.089844 C 20.019531 15.09375 20.019531 15.097656 20.023438 15.101562 C 20.09375 15.046875 20.175781 15.003906 20.257812 14.972656 C 20.214844 14.859375 20.175781 14.746094 20.132812 14.628906 L 20.128906 14.621094 L 20.132812 14.609375 C 20.253906 14.265625 20.378906 13.925781 20.503906 13.585938 L 20.507812 13.578125 L 20.507812 13.574219 C 21.0625 12.9375 21.613281 12.296875 22.164062 11.65625 L 22.183594 11.636719 L 22.207031 11.648438 C 22.230469 11.664062 22.253906 11.679688 22.285156 11.695312 L 22.292969 11.699219 L 22.296875 11.710938 C 22.4375 12.054688 22.582031 12.394531 22.722656 12.734375 L 22.730469 12.75 L 22.714844 12.769531 C 22.132812 13.515625 21.546875 14.265625 20.960938 15.015625 C 21.039062 15.054688 21.113281 15.109375 21.179688 15.171875 C 21.78125 14.398438 22.382812 13.628906 22.988281 12.855469 C 23.015625 12.816406 23.023438 12.761719 23.003906 12.714844 C 22.90625 12.480469 22.808594 12.246094 22.710938 12.011719 L 22.671875 11.921875 L 22.757812 11.972656 C 23.007812 12.117188 23.253906 12.261719 23.503906 12.402344 C 23.539062 12.324219 23.589844 12.246094 23.648438 12.179688 C 23.273438 11.960938 22.890625 11.742188 22.511719 11.519531 L 22.503906 11.511719 L 22.5 11.503906 C 22.300781 11.03125 22.105469 10.550781 21.90625 10.078125 C 21.832031 10.128906 21.753906 10.171875 21.667969 10.199219 C 21.820312 10.5625 21.972656 10.929688 22.121094 11.296875 L 22.136719 11.328125 L 22.105469 11.339844 C 22.085938 11.347656 22.0625 11.363281 22.050781 11.378906 L 22.050781 11.382812 C 21.460938 12.0625 20.875 12.742188 20.289062 13.425781 C 20.277344 13.433594 20.273438 13.449219 20.265625 13.464844 C 20.179688 13.695312 20.101562 13.921875 20.015625 14.148438 L 19.984375 14.234375 L 19.953125 14.148438 C 19.664062 13.367188 19.375 12.585938 19.085938 11.804688 L 19.078125 11.785156 L 19.09375 11.769531 C 19.660156 11.179688 20.226562 10.589844 20.796875 10.003906 C 20.730469 9.941406 20.671875 9.871094 20.628906 9.796875 C 20.03125 10.414062 19.4375 11.027344 18.84375 11.644531 L 18.839844 11.648438 L 18.835938 11.648438 C 17.972656 12.203125 17.105469 12.761719 16.242188 13.320312 L 16.128906 13.394531 L 16.195312 13.273438 C 16.765625 12.265625 17.339844 11.253906 17.90625 10.242188 C 17.828125 10.203125 17.753906 10.148438 17.691406 10.085938 C 17.109375 11.117188 16.523438 12.148438 15.941406 13.179688 L 15.878906 13.292969 L 15.878906 13.164062 C 15.878906 12.035156 15.878906 10.902344 15.878906 9.773438 L 15.878906 9.746094 L 15.910156 9.742188 C 16.414062 9.6875 16.917969 9.628906 17.421875 9.578125 C 17.414062 9.53125 17.414062 9.484375 17.414062 9.4375 C 17.414062 9.394531 17.414062 9.351562 17.421875 9.308594 C 17.089844 9.34375 16.757812 9.382812 16.425781 9.417969 L 16.289062 9.429688 L 16.40625 9.355469 C 17.175781 8.855469 17.945312 8.355469 18.714844 7.855469 L 18.714844 7.851562 C 18.75 7.835938 18.773438 7.804688 18.78125 7.765625 C 18.925781 7.101562 19.066406 6.441406 19.210938 5.777344 C 19.121094 5.765625 19.03125 5.746094 18.953125 5.710938 C 18.8125 6.351562 18.671875 6.996094 18.535156 7.640625 L 18.53125 7.65625 L 18.523438 7.664062 C 17.65625 8.222656 16.792969 8.785156 15.933594 9.347656 L 15.878906 9.382812 L 15.878906 9.320312 C 15.878906 7.457031 15.878906 5.589844 15.878906 3.730469 L 15.878906 3.679688 L 15.925781 3.699219 C 16.765625 4.015625 17.609375 4.335938 18.449219 4.65625 C 18.46875 4.566406 18.507812 4.488281 18.554688 4.410156 C 17.671875 4.074219 16.789062 3.738281 15.898438 3.402344 L 15.878906 3.394531 L 15.878906 3.371094 C 15.878906 2.945312 15.878906 2.519531 15.878906 2.09375 L 15.878906 2.085938 L 15.886719 2.074219 C 16.367188 1.410156 17.035156 0.972656 17.839844 0.828125 C 18.433594 0.722656 19.058594 0.785156 19.625 0.976562 C 19.84375 1.050781 20.054688 1.140625 20.253906 1.253906 L 20.277344 1.265625 L 20.269531 1.292969 C 19.980469 2.195312 19.691406 3.09375 19.402344 4 C 19.492188 4.007812 19.582031 4.03125 19.660156 4.066406 C 19.914062 3.277344 20.164062 2.492188 20.417969 1.703125 L 20.445312 1.609375 L 20.480469 1.703125 C 20.988281 3.058594 21.496094 4.417969 21.996094 5.773438 C 22.074219 5.726562 22.15625 5.695312 22.246094 5.675781 C 21.75 4.34375 21.253906 3.011719 20.753906 1.679688 L 20.707031 1.554688 L 20.808594 1.644531 C 20.875 1.707031 20.945312 1.769531 21.003906 1.839844 C 21.296875 2.15625 21.515625 2.566406 21.480469 3.007812 C 21.476562 3.082031 21.53125 3.144531 21.601562 3.152344 C 21.625 3.152344 21.640625 3.148438 21.65625 3.144531 L 21.65625 3.140625 L 21.660156 3.140625 C 21.839844 3.09375 22.054688 3.121094 22.230469 3.164062 C 22.707031 3.277344 23.171875 3.558594 23.539062 3.878906 L 23.558594 3.894531 L 23.546875 3.917969 C 23.542969 3.925781 23.539062 3.933594 23.535156 3.941406 C 23.28125 4.53125 23.023438 5.121094 22.765625 5.710938 C 22.851562 5.746094 22.9375 5.789062 23.007812 5.851562 C 23.253906 5.277344 23.5 4.707031 23.742188 4.140625 L 23.765625 4.089844 L 23.796875 4.128906 C 24.171875 4.527344 24.449219 5.007812 24.59375 5.542969 C 24.753906 6.125 24.738281 6.726562 24.597656 7.3125 C 24.582031 7.382812 24.625 7.457031 24.699219 7.472656 C 24.703125 7.472656 24.710938 7.476562 24.714844 7.476562 L 24.71875 7.476562 C 25.140625 7.554688 25.5625 7.671875 25.957031 7.84375 C 26.554688 8.097656 27.078125 8.492188 27.371094 9.089844 C 27.46875 9.292969 27.539062 9.511719 27.578125 9.734375 L 27.585938 9.773438 L 27.546875 9.773438 C 27.515625 9.777344 27.484375 9.789062 27.460938 9.808594 C 26.8125 10.394531 26.164062 10.980469 25.511719 11.570312 L 25.480469 11.597656 L 25.460938 11.5625 C 24.628906 10.132812 23.796875 8.703125 22.972656 7.273438 C 22.898438 7.328125 22.816406 7.367188 22.734375 7.398438 Z M 27.164062 18.15625 C 27.445312 17.75 27.726562 17.347656 28.007812 16.941406 C 28.035156 16.898438 28.039062 16.847656 28.011719 16.800781 C 27.3125 15.308594 26.605469 13.816406 25.902344 12.324219 C 25.902344 12.320312 25.898438 12.316406 25.894531 12.308594 C 25.804688 12.160156 25.71875 12.007812 25.632812 11.855469 L 25.617188 11.832031 L 25.640625 11.816406 C 26.277344 11.238281 26.921875 10.65625 27.558594 10.078125 L 27.613281 10.03125 L 27.617188 10.101562 C 27.632812 10.417969 27.601562 10.742188 27.546875 11.054688 C 27.441406 11.625 27.246094 12.191406 27.015625 12.71875 C 26.992188 12.78125 27.015625 12.855469 27.070312 12.886719 L 27.074219 12.890625 C 27.394531 13.097656 27.691406 13.355469 27.945312 13.644531 C 28.367188 14.136719 28.675781 14.734375 28.769531 15.382812 C 28.875 16.09375 28.703125 16.769531 28.324219 17.367188 C 28.113281 17.695312 27.851562 17.984375 27.5625 18.242188 L 27.554688 18.25 L 27.542969 18.253906 C 27.460938 18.261719 27.382812 18.265625 27.300781 18.269531 L 27.285156 18.273438 L 27.273438 18.261719 C 27.253906 18.230469 27.222656 18.214844 27.1875 18.210938 L 27.132812 18.203125 Z M 15.898438 13.859375 C 16.871094 13.230469 17.847656 12.605469 18.824219 11.976562 L 18.859375 11.953125 L 18.871094 11.992188 C 19.195312 12.863281 19.519531 13.734375 19.84375 14.609375 L 19.847656 14.621094 L 19.84375 14.628906 C 19.644531 15.175781 19.445312 15.726562 19.246094 16.273438 L 19.238281 16.296875 L 19.214844 16.296875 C 18.15625 16.359375 17.09375 16.421875 16.03125 16.484375 C 15.996094 16.488281 15.964844 16.507812 15.9375 16.535156 L 15.878906 16.605469 L 15.878906 16.511719 C 15.878906 15.636719 15.878906 14.765625 15.878906 13.886719 L 15.878906 13.871094 Z M 27.585938 18.515625 L 27.617188 18.511719 C 27.648438 18.507812 27.675781 18.5 27.695312 18.480469 C 28.019531 18.195312 28.3125 17.878906 28.546875 17.511719 C 28.964844 16.855469 29.148438 16.121094 29.035156 15.347656 C 28.933594 14.648438 28.601562 14.003906 28.144531 13.472656 C 27.90625 13.195312 27.628906 12.949219 27.324219 12.738281 L 27.304688 12.722656 L 27.316406 12.699219 C 27.527344 12.1875 27.707031 11.648438 27.808594 11.101562 C 27.9375 10.394531 27.929688 9.632812 27.609375 8.976562 C 27.289062 8.316406 26.722656 7.878906 26.0625 7.59375 C 25.699219 7.433594 25.3125 7.328125 24.917969 7.246094 L 24.886719 7.238281 L 24.894531 7.207031 C 25.011719 6.628906 25.003906 6.039062 24.851562 5.472656 C 24.664062 4.792969 24.285156 4.199219 23.769531 3.730469 C 23.367188 3.355469 22.832031 3.035156 22.292969 2.90625 C 22.128906 2.867188 21.953125 2.84375 21.785156 2.851562 L 21.75 2.855469 L 21.75 2.824219 C 21.722656 2.378906 21.496094 1.980469 21.203125 1.65625 C 21 1.4375 20.765625 1.25 20.507812 1.097656 C 20.507812 1.09375 20.507812 1.09375 20.503906 1.089844 L 20.5 1.089844 C 20.25 0.9375 19.984375 0.816406 19.710938 0.722656 C 19.097656 0.515625 18.433594 0.449219 17.792969 0.566406 C 16.902344 0.726562 16.171875 1.214844 15.648438 1.953125 L 15.644531 1.953125 C 15.625 1.980469 15.613281 2.011719 15.613281 2.042969 C 15.613281 2.523438 15.613281 3.007812 15.613281 3.488281 C 15.613281 5.535156 15.613281 7.578125 15.613281 9.625 C 15.613281 14.523438 15.613281 19.421875 15.613281 24.316406 L 15.613281 24.351562 C 15.613281 24.390625 15.632812 24.425781 15.664062 24.453125 C 16.21875 24.921875 16.84375 25.332031 17.527344 25.585938 L 17.527344 25.589844 C 17.535156 25.589844 17.539062 25.589844 17.542969 25.589844 C 18.011719 25.761719 18.5 25.855469 19 25.851562 C 20.292969 25.835938 21.421875 25.175781 22.355469 24.328125 L 22.371094 24.320312 L 22.382812 24.320312 C 23.3125 24.5 24.273438 24.441406 25.148438 24.066406 C 25.773438 23.796875 26.320312 23.382812 26.742188 22.851562 C 27.164062 22.332031 27.453125 21.710938 27.585938 21.050781 C 27.757812 20.222656 27.683594 19.367188 27.402344 18.574219 L 27.386719 18.535156 L 27.429688 18.53125 C 27.484375 18.527344 27.535156 18.519531 27.585938 18.515625 " fill-opacity="1" fill-rule="evenodd"/></g></g></g></g></g><g clip-path="url(#376d65a07e)"><path fill="#000000" d="M 14.117188 2.691406 C 14.941406 2.839844 15.613281 3.285156 16.097656 3.960938 L 16.101562 3.960938 C 16.121094 3.984375 16.128906 4.011719 16.128906 4.042969 C 16.128906 4.480469 16.128906 4.925781 16.128906 5.363281 C 16.128906 7.234375 16.128906 9.105469 16.128906 10.976562 C 16.128906 15.453125 16.128906 19.929688 16.128906 24.40625 L 16.128906 24.4375 C 16.128906 24.472656 16.113281 24.507812 16.085938 24.53125 C 15.574219 24.960938 14.996094 25.335938 14.363281 25.566406 L 14.363281 25.570312 C 14.359375 25.570312 14.355469 25.574219 14.347656 25.574219 C 13.914062 25.730469 13.464844 25.8125 13.003906 25.808594 C 11.8125 25.796875 10.769531 25.191406 9.90625 24.417969 L 9.894531 24.410156 L 9.882812 24.410156 C 9.023438 24.574219 8.136719 24.523438 7.328125 24.179688 C 6.753906 23.933594 6.25 23.554688 5.859375 23.070312 C 5.46875 22.589844 5.207031 22.023438 5.078125 21.421875 C 4.921875 20.664062 4.988281 19.882812 5.25 19.15625 L 5.265625 19.121094 L 5.226562 19.117188 C 5.175781 19.113281 5.128906 19.105469 5.078125 19.105469 L 5.050781 19.101562 C 5.023438 19.097656 5 19.085938 4.980469 19.070312 C 4.679688 18.8125 4.410156 18.519531 4.195312 18.1875 C 3.808594 17.585938 3.640625 16.914062 3.742188 16.207031 C 3.835938 15.566406 4.144531 14.976562 4.566406 14.492188 C 4.785156 14.238281 5.042969 14.011719 5.320312 13.820312 L 5.339844 13.808594 L 5.332031 13.785156 C 5.132812 13.316406 4.96875 12.828125 4.875 12.328125 C 4.757812 11.679688 4.765625 10.984375 5.058594 10.378906 C 5.355469 9.777344 5.878906 9.378906 6.488281 9.117188 C 6.824219 8.972656 7.179688 8.875 7.542969 8.800781 L 7.570312 8.792969 L 7.5625 8.765625 C 7.457031 8.234375 7.464844 7.695312 7.605469 7.179688 C 7.777344 6.558594 8.128906 6.015625 8.601562 5.585938 C 8.976562 5.246094 9.46875 4.949219 9.964844 4.832031 C 10.117188 4.796875 10.28125 4.773438 10.4375 4.78125 L 10.46875 4.785156 L 10.46875 4.757812 C 10.492188 4.351562 10.699219 3.984375 10.96875 3.691406 C 11.15625 3.488281 11.375 3.316406 11.613281 3.175781 C 11.613281 3.171875 11.613281 3.171875 11.617188 3.171875 L 11.621094 3.171875 C 11.851562 3.03125 12.09375 2.921875 12.351562 2.835938 C 12.914062 2.648438 13.53125 2.585938 14.117188 2.691406 Z M 25.816406 21.0625 C 26.152344 21.0625 26.425781 21.332031 26.425781 21.667969 C 26.425781 22 26.152344 22.273438 25.816406 22.273438 C 25.480469 22.273438 25.207031 22 25.207031 21.667969 C 25.207031 21.332031 25.480469 21.0625 25.816406 21.0625 Z M 20.058594 18.460938 C 20.390625 18.460938 20.667969 18.734375 20.667969 19.070312 C 20.667969 19.402344 20.390625 19.675781 20.058594 19.675781 C 19.722656 19.675781 19.449219 19.402344 19.449219 19.070312 C 19.449219 18.734375 19.722656 18.460938 20.058594 18.460938 Z M 21.3125 21.941406 C 21.648438 21.941406 21.917969 22.210938 21.917969 22.546875 C 21.917969 22.878906 21.648438 23.148438 21.3125 23.148438 C 20.976562 23.148438 20.703125 22.878906 20.703125 22.546875 C 20.703125 22.210938 20.976562 21.941406 21.3125 21.941406 Z M 25.652344 18.667969 C 25.988281 18.667969 26.261719 18.9375 26.261719 19.269531 C 26.261719 19.605469 25.988281 19.875 25.652344 19.875 C 25.316406 19.875 25.042969 19.605469 25.042969 19.269531 C 25.042969 18.9375 25.316406 18.667969 25.652344 18.667969 Z M 25.296875 13.246094 C 25.632812 13.246094 25.90625 13.519531 25.90625 13.851562 C 25.90625 14.1875 25.632812 14.457031 25.296875 14.457031 C 24.957031 14.457031 24.6875 14.1875 24.6875 13.851562 C 24.6875 13.519531 24.957031 13.246094 25.296875 13.246094 Z M 21.828125 16.027344 C 22.164062 16.027344 22.433594 16.300781 22.433594 16.636719 C 22.433594 16.96875 22.164062 17.242188 21.828125 17.242188 C 21.492188 17.242188 21.21875 16.96875 21.21875 16.636719 C 21.21875 16.300781 21.492188 16.027344 21.828125 16.027344 Z M 19.746094 10.199219 C 20.082031 10.199219 20.355469 10.46875 20.355469 10.804688 C 20.355469 11.140625 20.082031 11.410156 19.746094 11.410156 C 19.410156 11.410156 19.136719 11.140625 19.136719 10.804688 C 19.136719 10.46875 19.410156 10.199219 19.746094 10.199219 Z M 22.601562 10.109375 C 22.933594 10.109375 23.207031 10.382812 23.207031 10.71875 C 23.207031 11.050781 22.933594 11.324219 22.601562 11.324219 C 22.265625 11.324219 21.992188 11.050781 21.992188 10.71875 C 21.992188 10.382812 22.265625 10.109375 22.601562 10.109375 Z M 23.574219 7.554688 C 23.90625 7.554688 24.179688 7.824219 24.179688 8.160156 C 24.179688 8.496094 23.90625 8.769531 23.574219 8.769531 C 23.234375 8.769531 22.964844 8.496094 22.964844 8.160156 C 22.964844 7.824219 23.234375 7.554688 23.574219 7.554688 Z M 20.671875 6.039062 C 21.007812 6.039062 21.28125 6.308594 21.28125 6.644531 C 21.28125 6.980469 21.007812 7.25 20.671875 7.25 C 20.335938 7.25 20.0625 6.980469 20.0625 6.644531 C 20.0625 6.308594 20.335938 6.039062 20.671875 6.039062 Z M 22.769531 7.964844 C 22.789062 7.886719 22.820312 7.808594 22.867188 7.738281 C 22.394531 7.464844 21.921875 7.191406 21.449219 6.914062 C 21.421875 6.992188 21.382812 7.066406 21.335938 7.128906 C 21.8125 7.410156 22.292969 7.6875 22.769531 7.964844 Z M 20.570312 10.804688 C 20.972656 10.785156 21.375 10.761719 21.777344 10.742188 C 21.777344 10.734375 21.777344 10.726562 21.777344 10.71875 C 21.777344 10.644531 21.789062 10.570312 21.808594 10.496094 C 21.382812 10.519531 20.957031 10.539062 20.53125 10.558594 C 20.554688 10.640625 20.570312 10.71875 20.570312 10.804688 Z M 20.84375 21.875 C 20.910156 21.824219 20.984375 21.789062 21.066406 21.765625 C 20.851562 21.109375 20.628906 20.460938 20.414062 19.804688 C 20.339844 19.839844 20.261719 19.867188 20.179688 19.878906 C 20.402344 20.542969 20.621094 21.207031 20.84375 21.875 Z M 21.429688 17.351562 C 21.359375 17.3125 21.292969 17.261719 21.238281 17.203125 C 20.976562 17.585938 20.714844 17.96875 20.453125 18.355469 C 20.527344 18.390625 20.59375 18.441406 20.648438 18.5 C 20.910156 18.121094 21.171875 17.734375 21.429688 17.351562 Z M 25.058594 19.835938 C 25 19.78125 24.953125 19.710938 24.917969 19.640625 C 23.90625 20.414062 22.898438 21.191406 21.890625 21.964844 C 21.949219 22.019531 22 22.089844 22.039062 22.160156 C 23.042969 21.386719 24.050781 20.613281 25.058594 19.835938 Z M 25.527344 18.460938 C 25.289062 17.863281 25.054688 17.265625 24.820312 16.667969 L 24.816406 16.660156 L 24.820312 16.652344 C 24.976562 15.992188 25.132812 15.332031 25.289062 14.671875 C 25.207031 14.671875 25.125 14.65625 25.046875 14.632812 C 24.886719 15.300781 24.730469 15.972656 24.570312 16.640625 C 24.566406 16.664062 24.566406 16.691406 24.574219 16.710938 C 24.8125 17.320312 25.050781 17.925781 25.289062 18.535156 C 25.363281 18.5 25.445312 18.476562 25.527344 18.460938 Z M 22.53125 17.058594 C 22.488281 17.128906 22.433594 17.191406 22.375 17.246094 C 23.226562 17.789062 24.078125 18.332031 24.933594 18.871094 C 24.976562 18.800781 25.023438 18.734375 25.085938 18.679688 C 24.234375 18.140625 23.382812 17.601562 22.53125 17.058594 Z M 23.441406 8.96875 C 23.355469 8.957031 23.28125 8.929688 23.207031 8.894531 C 23.054688 9.234375 22.90625 9.574219 22.757812 9.914062 C 22.839844 9.929688 22.914062 9.957031 22.988281 9.996094 C 23.136719 9.652344 23.289062 9.3125 23.441406 8.96875 Z M 25.050781 21.910156 C 25.027344 21.832031 25.011719 21.75 25.011719 21.667969 L 22.101562 22.3125 C 22.121094 22.386719 22.136719 22.464844 22.136719 22.546875 C 22.136719 22.546875 22.136719 22.550781 22.136719 22.554688 Z M 23.835938 8.9375 C 24.613281 10.265625 25.390625 11.59375 26.171875 12.921875 L 26.183594 12.945312 L 26.164062 12.960938 C 26.058594 13.054688 25.953125 13.148438 25.847656 13.242188 C 25.910156 13.296875 25.960938 13.363281 26.003906 13.433594 C 26.097656 13.347656 26.191406 13.265625 26.28125 13.183594 L 26.308594 13.160156 L 26.328125 13.191406 C 26.398438 13.308594 26.464844 13.429688 26.539062 13.550781 C 27.175781 14.890625 27.8125 16.226562 28.453125 17.566406 L 28.457031 17.585938 L 28.449219 17.597656 C 28.140625 18.035156 27.832031 18.476562 27.527344 18.914062 L 27.515625 18.925781 L 27.503906 18.925781 C 27.148438 18.957031 26.789062 18.988281 26.433594 19.015625 C 26.460938 19.097656 26.472656 19.175781 26.472656 19.261719 C 26.742188 19.238281 27.003906 19.214844 27.269531 19.195312 L 27.335938 19.1875 L 26.117188 20.929688 C 26.191406 20.960938 26.265625 21 26.328125 21.050781 L 27.652344 19.160156 L 27.667969 19.15625 C 27.730469 19.15625 27.789062 19.148438 27.847656 19.140625 L 27.871094 19.140625 L 27.882812 19.160156 C 28.148438 19.867188 28.230469 20.632812 28.074219 21.375 C 27.957031 21.9375 27.707031 22.464844 27.34375 22.914062 C 27.222656 23.066406 27.09375 23.203125 26.949219 23.332031 L 26.921875 23.359375 L 26.308594 22.296875 C 26.246094 22.347656 26.171875 22.386719 26.097656 22.414062 L 26.726562 23.511719 L 26.707031 23.527344 C 26.480469 23.699219 26.226562 23.839844 25.96875 23.953125 C 25.179688 24.289062 24.3125 24.328125 23.484375 24.15625 C 23.445312 24.148438 23.40625 24.160156 23.375 24.183594 C 22.550781 24.941406 21.539062 25.554688 20.386719 25.566406 C 20.023438 25.570312 19.667969 25.515625 19.324219 25.410156 L 19.28125 25.398438 L 19.304688 25.363281 C 19.839844 24.660156 20.371094 23.957031 20.902344 23.253906 C 20.832031 23.214844 20.765625 23.164062 20.710938 23.105469 C 20.15625 23.832031 19.601562 24.5625 19.050781 25.289062 L 19.035156 25.308594 L 19.011719 25.300781 C 18.472656 25.085938 17.96875 24.761719 17.519531 24.390625 L 17.507812 24.378906 L 17.507812 24.367188 C 17.507812 22.753906 17.507812 21.144531 17.507812 19.535156 L 17.507812 19.503906 L 17.535156 19.5 C 18.117188 19.445312 18.699219 19.390625 19.28125 19.335938 C 19.25 19.261719 19.238281 19.179688 19.234375 19.097656 C 18.671875 19.152344 18.109375 19.203125 17.542969 19.257812 L 17.507812 19.261719 L 17.507812 19.226562 C 17.507812 18.640625 17.507812 18.054688 17.507812 17.46875 L 17.507812 17.386719 L 17.5625 17.449219 C 17.589844 17.476562 17.625 17.496094 17.664062 17.492188 C 18.679688 17.429688 19.691406 17.371094 20.703125 17.3125 C 20.75 17.308594 20.792969 17.277344 20.808594 17.230469 C 20.875 17.050781 20.941406 16.871094 21.007812 16.691406 C 21.003906 16.671875 21.003906 16.65625 21.003906 16.636719 C 21.003906 16.421875 21.089844 16.21875 21.238281 16.066406 C 21.25 16.035156 21.257812 16.003906 21.273438 15.972656 L 21.300781 15.894531 L 21.328125 15.972656 C 21.328125 15.976562 21.328125 15.976562 21.332031 15.980469 C 21.398438 15.933594 21.472656 15.890625 21.550781 15.867188 C 21.511719 15.761719 21.472656 15.65625 21.433594 15.550781 L 21.429688 15.542969 L 21.433594 15.53125 C 21.546875 15.21875 21.660156 14.90625 21.773438 14.597656 L 21.777344 14.589844 L 21.78125 14.585938 C 22.289062 14.003906 22.800781 13.417969 23.308594 12.832031 L 23.324219 12.8125 L 23.347656 12.828125 C 23.371094 12.839844 23.390625 12.851562 23.417969 12.867188 L 23.429688 12.871094 L 23.429688 12.882812 C 23.558594 13.195312 23.691406 13.507812 23.824219 13.816406 L 23.832031 13.832031 L 23.816406 13.847656 C 23.28125 14.53125 22.738281 15.21875 22.195312 15.902344 C 22.269531 15.9375 22.339844 15.988281 22.398438 16.046875 C 22.953125 15.339844 23.511719 14.632812 24.070312 13.929688 C 24.09375 13.894531 24.101562 13.84375 24.082031 13.800781 C 23.992188 13.585938 23.902344 13.371094 23.8125 13.15625 L 23.777344 13.074219 L 23.855469 13.121094 C 24.085938 13.253906 24.3125 13.382812 24.546875 13.515625 C 24.578125 13.441406 24.625 13.371094 24.679688 13.308594 C 24.332031 13.113281 23.980469 12.910156 23.628906 12.707031 L 23.621094 12.703125 L 23.617188 12.691406 C 23.433594 12.257812 23.253906 11.824219 23.070312 11.390625 C 23.003906 11.433594 22.929688 11.472656 22.851562 11.5 C 22.988281 11.832031 23.132812 12.167969 23.269531 12.503906 L 23.28125 12.53125 L 23.253906 12.542969 C 23.234375 12.550781 23.214844 12.5625 23.203125 12.578125 L 23.203125 12.582031 C 22.660156 13.203125 22.121094 13.828125 21.578125 14.449219 C 21.570312 14.457031 21.5625 14.472656 21.554688 14.488281 C 21.476562 14.695312 21.402344 14.902344 21.328125 15.113281 L 21.296875 15.1875 L 21.269531 15.113281 C 21 14.398438 20.734375 13.683594 20.464844 12.96875 L 20.460938 12.949219 L 20.476562 12.933594 C 21 12.398438 21.519531 11.859375 22.046875 11.324219 C 21.984375 11.265625 21.933594 11.199219 21.890625 11.128906 C 21.339844 11.695312 20.792969 12.253906 20.242188 12.820312 L 20.242188 12.824219 L 20.238281 12.824219 C 19.4375 13.332031 18.640625 13.84375 17.84375 14.351562 L 17.738281 14.421875 L 17.796875 14.3125 C 18.328125 13.386719 18.855469 12.464844 19.378906 11.539062 C 19.304688 11.503906 19.238281 11.453125 19.179688 11.398438 C 18.640625 12.339844 18.105469 13.28125 17.566406 14.222656 L 17.507812 14.328125 L 17.507812 14.210938 C 17.507812 13.179688 17.507812 12.144531 17.507812 11.109375 L 17.507812 11.085938 L 17.535156 11.082031 C 18 11.03125 18.46875 10.980469 18.933594 10.933594 C 18.925781 10.890625 18.921875 10.84375 18.921875 10.804688 C 18.921875 10.765625 18.925781 10.722656 18.933594 10.683594 C 18.625 10.71875 18.320312 10.753906 18.015625 10.785156 L 17.886719 10.796875 L 17.996094 10.730469 C 18.703125 10.269531 19.414062 9.8125 20.125 9.359375 L 20.125 9.355469 C 20.15625 9.339844 20.179688 9.308594 20.1875 9.273438 C 20.316406 8.667969 20.449219 8.0625 20.582031 7.457031 C 20.5 7.445312 20.417969 7.429688 20.34375 7.394531 C 20.214844 7.984375 20.085938 8.574219 19.960938 9.164062 L 19.957031 9.175781 L 19.949219 9.179688 C 19.148438 9.695312 18.351562 10.207031 17.554688 10.71875 L 17.507812 10.753906 L 17.507812 10.695312 C 17.507812 8.992188 17.507812 7.285156 17.507812 5.585938 L 17.507812 5.539062 L 17.550781 5.554688 C 18.328125 5.847656 19.101562 6.140625 19.878906 6.429688 C 19.898438 6.351562 19.933594 6.277344 19.976562 6.207031 C 19.160156 5.898438 18.347656 5.59375 17.527344 5.285156 L 17.507812 5.28125 L 17.507812 5.257812 C 17.507812 4.871094 17.507812 4.476562 17.507812 4.089844 L 17.507812 4.082031 L 17.515625 4.070312 C 17.960938 3.464844 18.574219 3.066406 19.320312 2.933594 C 19.867188 2.832031 20.441406 2.890625 20.964844 3.066406 C 21.164062 3.136719 21.363281 3.21875 21.546875 3.320312 L 21.570312 3.332031 L 21.558594 3.355469 C 21.292969 4.179688 21.027344 5.003906 20.761719 5.832031 C 20.84375 5.835938 20.925781 5.859375 21 5.890625 C 21.230469 5.171875 21.460938 4.453125 21.695312 3.730469 L 21.722656 3.648438 L 21.753906 3.730469 C 22.222656 4.972656 22.691406 6.210938 23.152344 7.453125 C 23.226562 7.410156 23.300781 7.382812 23.382812 7.363281 C 22.925781 6.144531 22.46875 4.925781 22.007812 3.710938 L 21.964844 3.597656 L 22.058594 3.675781 C 22.121094 3.734375 22.183594 3.792969 22.238281 3.855469 C 22.507812 4.144531 22.710938 4.519531 22.675781 4.925781 C 22.671875 4.992188 22.726562 5.050781 22.789062 5.054688 C 22.808594 5.054688 22.824219 5.050781 22.839844 5.050781 L 22.839844 5.046875 L 22.84375 5.046875 C 23.007812 5.003906 23.207031 5.03125 23.371094 5.070312 C 23.808594 5.171875 24.238281 5.425781 24.578125 5.722656 L 24.59375 5.734375 L 24.585938 5.757812 C 24.582031 5.765625 24.578125 5.769531 24.574219 5.78125 C 24.339844 6.320312 24.101562 6.855469 23.863281 7.394531 C 23.945312 7.429688 24.019531 7.46875 24.085938 7.523438 C 24.3125 7 24.539062 6.480469 24.765625 5.960938 L 24.785156 5.914062 L 24.816406 5.949219 C 25.160156 6.316406 25.417969 6.753906 25.550781 7.242188 C 25.695312 7.773438 25.683594 8.324219 25.554688 8.859375 C 25.539062 8.925781 25.582031 8.992188 25.648438 9.007812 C 25.652344 9.007812 25.65625 9.011719 25.660156 9.011719 L 25.664062 9.011719 C 26.054688 9.082031 26.445312 9.1875 26.808594 9.34375 C 27.359375 9.578125 27.84375 9.9375 28.113281 10.488281 C 28.203125 10.671875 28.269531 10.871094 28.304688 11.074219 L 28.308594 11.109375 L 28.273438 11.109375 C 28.246094 11.113281 28.21875 11.125 28.199219 11.144531 C 27.597656 11.679688 27 12.214844 26.394531 12.753906 L 26.371094 12.777344 L 26.351562 12.746094 C 25.582031 11.4375 24.816406 10.132812 24.054688 8.824219 C 23.984375 8.875 23.910156 8.914062 23.835938 8.9375 Z M 27.921875 18.777344 C 28.179688 18.40625 28.441406 18.035156 28.699219 17.664062 C 28.726562 17.625 28.730469 17.578125 28.707031 17.535156 C 28.058594 16.171875 27.40625 14.808594 26.757812 13.441406 C 26.757812 13.4375 26.753906 13.4375 26.75 13.429688 C 26.667969 13.292969 26.589844 13.152344 26.507812 13.015625 L 26.496094 12.992188 L 26.515625 12.976562 C 27.105469 12.449219 27.699219 11.917969 28.289062 11.390625 L 28.335938 11.34375 L 28.339844 11.410156 C 28.355469 11.703125 28.328125 11.996094 28.273438 12.28125 C 28.179688 12.804688 27.996094 13.320312 27.785156 13.804688 C 27.761719 13.863281 27.785156 13.929688 27.835938 13.957031 L 27.839844 13.960938 C 28.136719 14.152344 28.410156 14.382812 28.640625 14.652344 C 29.03125 15.097656 29.320312 15.648438 29.40625 16.242188 C 29.503906 16.886719 29.34375 17.507812 28.992188 18.054688 C 28.800781 18.355469 28.558594 18.621094 28.289062 18.851562 L 28.285156 18.859375 L 28.269531 18.863281 C 28.199219 18.871094 28.125 18.875 28.050781 18.878906 L 28.03125 18.882812 L 28.023438 18.871094 C 28.003906 18.84375 27.976562 18.828125 27.941406 18.824219 L 27.894531 18.816406 Z M 17.523438 14.847656 C 18.421875 14.273438 19.324219 13.699219 20.222656 13.125 L 20.257812 13.101562 L 20.269531 13.136719 C 20.570312 13.9375 20.867188 14.734375 21.164062 15.53125 L 21.167969 15.542969 L 21.164062 15.550781 C 20.980469 16.050781 20.796875 16.554688 20.613281 17.054688 L 20.609375 17.074219 L 20.585938 17.074219 C 19.609375 17.132812 18.628906 17.191406 17.648438 17.246094 C 17.613281 17.25 17.585938 17.265625 17.5625 17.292969 L 17.507812 17.355469 L 17.507812 17.273438 C 17.507812 16.472656 17.507812 15.671875 17.507812 14.871094 L 17.507812 14.855469 Z M 28.3125 19.105469 L 28.34375 19.101562 C 28.367188 19.097656 28.394531 19.085938 28.414062 19.070312 C 28.710938 18.8125 28.984375 18.519531 29.199219 18.1875 C 29.585938 17.585938 29.753906 16.914062 29.652344 16.207031 C 29.558594 15.566406 29.246094 14.976562 28.824219 14.492188 C 28.605469 14.238281 28.351562 14.011719 28.070312 13.820312 L 28.050781 13.808594 L 28.0625 13.785156 C 28.257812 13.316406 28.421875 12.828125 28.515625 12.328125 C 28.636719 11.679688 28.628906 10.984375 28.332031 10.378906 C 28.035156 9.777344 27.515625 9.378906 26.90625 9.117188 C 26.570312 8.972656 26.210938 8.875 25.851562 8.800781 L 25.820312 8.792969 L 25.828125 8.765625 C 25.933594 8.234375 25.929688 7.695312 25.785156 7.179688 C 25.617188 6.558594 25.265625 6.015625 24.792969 5.585938 C 24.417969 5.246094 23.925781 4.949219 23.429688 4.832031 C 23.277344 4.796875 23.113281 4.773438 22.957031 4.78125 L 22.925781 4.785156 L 22.925781 4.757812 C 22.898438 4.351562 22.691406 3.984375 22.421875 3.691406 C 22.234375 3.488281 22.015625 3.316406 21.78125 3.175781 C 21.777344 3.171875 21.777344 3.171875 21.773438 3.171875 C 21.542969 3.03125 21.296875 2.921875 21.042969 2.835938 C 20.480469 2.648438 19.863281 2.585938 19.273438 2.691406 C 18.453125 2.839844 17.777344 3.285156 17.296875 3.960938 L 17.292969 3.960938 C 17.273438 3.984375 17.261719 4.011719 17.261719 4.042969 C 17.261719 4.480469 17.261719 4.925781 17.261719 5.363281 C 17.261719 7.234375 17.261719 9.105469 17.261719 10.976562 C 17.261719 15.453125 17.261719 19.929688 17.261719 24.40625 L 17.261719 24.4375 C 17.261719 24.472656 17.28125 24.507812 17.308594 24.53125 C 17.820312 24.960938 18.398438 25.335938 19.027344 25.566406 L 19.027344 25.570312 C 19.035156 25.570312 19.039062 25.574219 19.046875 25.574219 C 19.476562 25.730469 19.929688 25.8125 20.390625 25.808594 C 21.582031 25.796875 22.621094 25.191406 23.484375 24.417969 L 23.5 24.410156 L 23.511719 24.410156 C 24.367188 24.574219 25.253906 24.523438 26.0625 24.179688 C 26.636719 23.933594 27.144531 23.554688 27.535156 23.070312 C 27.921875 22.589844 28.1875 22.023438 28.3125 21.421875 C 28.472656 20.664062 28.402344 19.882812 28.140625 19.15625 L 28.125 19.121094 L 28.167969 19.117188 C 28.214844 19.113281 28.265625 19.105469 28.3125 19.105469 " fill-opacity="1" fill-rule="evenodd"/></g></svg>