<svg xmlns="http://www.w3.org/2000/svg" xmlns:xlink="http://www.w3.org/1999/xlink" width="450" zoomAndPan="magnify" viewBox="0 0 337.5 135.000003" height="180" preserveAspectRatio="xMidYMid meet" version="1.0"><defs><filter x="0%" y="0%" width="100%" height="100%" id="3ff1d88a33"><feColorMatrix values="0 0 0 0 1 0 0 0 0 1 0 0 0 0 1 0 0 0 1 0" color-interpolation-filters="sRGB"/></filter><g/><clipPath id="da9f8cd8ab"><path d="M 55.542969 36.085938 L 67.472656 36.085938 L 67.472656 48.015625 L 55.542969 48.015625 Z M 55.542969 36.085938 " clip-rule="nonzero"/></clipPath><clipPath id="9214d7ebae"><path d="M 61.507812 36.085938 C 58.214844 36.085938 55.542969 38.757812 55.542969 42.050781 C 55.542969 45.347656 58.214844 48.015625 61.507812 48.015625 C 64.800781 48.015625 67.472656 45.347656 67.472656 42.050781 C 67.472656 38.757812 64.800781 36.085938 61.507812 36.085938 Z M 61.507812 36.085938 " clip-rule="nonzero"/></clipPath><clipPath id="2373fc0f1c"><path d="M 63.617188 61.367188 L 75.546875 61.367188 L 75.546875 73.296875 L 63.617188 73.296875 Z M 63.617188 61.367188 " clip-rule="nonzero"/></clipPath><clipPath id="ab1ae23ff0"><path d="M 69.582031 61.367188 C 66.289062 61.367188 63.617188 64.039062 63.617188 67.332031 C 63.617188 70.625 66.289062 73.296875 69.582031 73.296875 C 72.875 73.296875 75.546875 70.625 75.546875 67.332031 C 75.546875 64.039062 72.875 61.367188 69.582031 61.367188 Z M 69.582031 61.367188 " clip-rule="nonzero"/></clipPath><clipPath id="4845691a82"><path d="M 55 84 L 68 84 L 68 97 L 55 97 Z M 55 84 " clip-rule="nonzero"/></clipPath><clipPath id="3b14ef33a9"><path d="M 70.140625 90.472656 L 61.707031 98.910156 L 53.269531 90.472656 L 61.707031 82.039062 Z M 70.140625 90.472656 " clip-rule="nonzero"/></clipPath><clipPath id="cc77de690a"><path d="M 70.140625 90.472656 L 61.707031 98.910156 L 53.269531 90.472656 L 61.707031 82.039062 Z M 70.140625 90.472656 " clip-rule="nonzero"/></clipPath><clipPath id="c29688de8d"><path d="M 65.921875 94.691406 C 68.253906 92.363281 68.253906 88.585938 65.921875 86.257812 C 63.59375 83.925781 59.816406 83.925781 57.488281 86.257812 C 55.15625 88.585938 55.15625 92.363281 57.488281 94.691406 C 59.816406 97.019531 63.59375 97.019531 65.921875 94.691406 Z M 65.921875 94.691406 " clip-rule="nonzero"/></clipPath><clipPath id="0168727170"><path d="M 16 34.742188 L 49.457031 34.742188 L 49.457031 96.628906 L 16 96.628906 Z M 16 34.742188 " clip-rule="nonzero"/></clipPath><mask id="06556f560c"><g filter="url(#3ff1d88a33)"><rect x="-33.75" width="405" fill="#000000" y="-13.5" height="162.000004" fill-opacity="0.76"/></g></mask><clipPath id="3526a85c0a"><path d="M 0 0.78125 L 33.457031 0.78125 L 33.457031 62.628906 L 0 62.628906 Z M 0 0.78125 " clip-rule="nonzero"/></clipPath><clipPath id="34c1ef9187"><rect x="0" width="70" y="0" height="63"/></clipPath><clipPath id="8eb9173403"><path d="M 18 37.539062 L 49.152344 37.539062 L 49.152344 94.203125 L 18 94.203125 Z M 18 37.539062 " clip-rule="nonzero"/></clipPath></defs><g fill="#ffffff" fill-opacity="1"><g transform="translate(86.279532, 85.153323)"><g><path d="M 22.828125 -8.328125 C 22.296875 -5.253906 21.082031 -3.003906 19.1875 -1.578125 C 17.300781 -0.148438 15.164062 0.5625 12.78125 0.5625 C 9.28125 0.5625 6.578125 -0.582031 4.671875 -2.875 C 2.765625 -5.164062 1.8125 -8.203125 1.8125 -11.984375 C 1.8125 -15.109375 2.359375 -17.613281 3.453125 -19.5 C 4.554688 -21.382812 5.929688 -22.707031 7.578125 -23.46875 C 9.222656 -24.238281 10.957031 -24.625 12.78125 -24.625 C 15.257812 -24.625 17.378906 -23.976562 19.140625 -22.6875 C 20.898438 -21.40625 21.984375 -19.515625 22.390625 -17.015625 L 18.453125 -16.40625 C 18.035156 -18.019531 17.367188 -19.234375 16.453125 -20.046875 C 15.546875 -20.867188 14.378906 -21.28125 12.953125 -21.28125 C 10.671875 -21.28125 8.9375 -20.46875 7.75 -18.84375 C 6.570312 -17.226562 5.984375 -14.972656 5.984375 -12.078125 C 5.984375 -9.109375 6.5625 -6.816406 7.71875 -5.203125 C 8.882812 -3.597656 10.554688 -2.796875 12.734375 -2.796875 C 14.484375 -2.796875 15.859375 -3.296875 16.859375 -4.296875 C 17.867188 -5.304688 18.503906 -6.816406 18.765625 -8.828125 Z M 22.828125 -8.328125 "/></g></g></g><g fill="#ffffff" fill-opacity="1"><g transform="translate(109.509263, 85.153323)"><g><path d="M 22.78125 0 L 18.671875 0 L 18.671875 -15.203125 C 18.671875 -17.171875 18.242188 -18.644531 17.390625 -19.625 C 16.546875 -20.601562 15.285156 -21.09375 13.609375 -21.09375 C 11.953125 -21.09375 10.46875 -20.515625 9.15625 -19.359375 C 7.84375 -18.203125 7.1875 -16.132812 7.1875 -13.15625 L 7.1875 0 L 3.109375 0 L 3.109375 -33.265625 L 7.1875 -33.265625 L 7.1875 -21.328125 C 9.125 -23.523438 11.546875 -24.625 14.453125 -24.625 C 16.015625 -24.625 17.503906 -24.304688 18.921875 -23.671875 C 20.347656 -23.035156 21.347656 -22.054688 21.921875 -20.734375 C 22.492188 -19.421875 22.78125 -17.59375 22.78125 -15.25 Z M 22.78125 0 "/></g></g></g><g fill="#ffffff" fill-opacity="1"><g transform="translate(135.347803, 85.153323)"><g><path d="M 23.984375 0 L 19.6875 0 C 19.300781 -0.757812 19.023438 -1.75 18.859375 -2.96875 C 16.117188 -0.613281 13.160156 0.5625 9.984375 0.5625 C 7.441406 0.5625 5.4375 -0.0703125 3.96875 -1.34375 C 2.5 -2.613281 1.765625 -4.289062 1.765625 -6.375 C 1.765625 -8.375 2.472656 -10.019531 3.890625 -11.3125 C 5.304688 -12.601562 7.757812 -13.460938 11.25 -13.890625 L 15.0625 -14.453125 C 16.488281 -14.679688 17.660156 -14.960938 18.578125 -15.296875 C 18.578125 -16.515625 18.539062 -17.378906 18.46875 -17.890625 C 18.394531 -18.398438 18.171875 -18.925781 17.796875 -19.46875 C 17.429688 -20.007812 16.835938 -20.445312 16.015625 -20.78125 C 15.203125 -21.113281 14.109375 -21.28125 12.734375 -21.28125 C 10.972656 -21.28125 9.582031 -20.953125 8.5625 -20.296875 C 7.539062 -19.648438 6.84375 -18.441406 6.46875 -16.671875 L 2.46875 -17.203125 C 2.90625 -19.660156 4.03125 -21.507812 5.84375 -22.75 C 7.664062 -24 10.164062 -24.625 13.34375 -24.625 C 16.226562 -24.625 18.347656 -24.191406 19.703125 -23.328125 C 21.054688 -22.472656 21.890625 -21.441406 22.203125 -20.234375 C 22.515625 -19.023438 22.671875 -17.46875 22.671875 -15.5625 L 22.671875 -10.078125 C 22.671875 -6.734375 22.734375 -4.488281 22.859375 -3.34375 C 22.984375 -2.207031 23.359375 -1.09375 23.984375 0 Z M 18.578125 -10.59375 L 18.578125 -12.078125 C 16.453125 -11.359375 13.84375 -10.789062 10.75 -10.375 C 7.664062 -9.957031 6.125 -8.65625 6.125 -6.46875 C 6.125 -5.363281 6.539062 -4.453125 7.375 -3.734375 C 8.207031 -3.015625 9.398438 -2.65625 10.953125 -2.65625 C 12.972656 -2.65625 14.75 -3.253906 16.28125 -4.453125 C 17.8125 -5.660156 18.578125 -7.707031 18.578125 -10.59375 Z M 18.578125 -10.59375 "/></g></g></g><g fill="#ffffff" fill-opacity="1"><g transform="translate(161.186342, 85.153323)"><g><path d="M 7.1875 0 L 3.109375 0 L 3.109375 -24.078125 L 7.1875 -24.078125 Z M 7.1875 -28.640625 L 3.109375 -28.640625 L 3.109375 -33.265625 L 7.1875 -33.265625 Z M 7.1875 -28.640625 "/></g></g></g><g fill="#ffffff" fill-opacity="1"><g transform="translate(171.508146, 85.153323)"><g><path d="M 22.78125 0 L 18.671875 0 L 18.671875 -14.640625 C 18.671875 -17.097656 18.226562 -18.785156 17.34375 -19.703125 C 16.457031 -20.628906 15.226562 -21.09375 13.65625 -21.09375 C 12.445312 -21.09375 11.300781 -20.796875 10.21875 -20.203125 C 9.132812 -19.617188 8.363281 -18.789062 7.90625 -17.71875 C 7.457031 -16.644531 7.234375 -15.125 7.234375 -13.15625 L 7.234375 0 L 3.15625 0 L 3.15625 -24.078125 L 6.828125 -24.078125 L 6.828125 -20.671875 L 6.921875 -20.671875 C 7.785156 -21.984375 8.847656 -22.96875 10.109375 -23.625 C 11.367188 -24.289062 12.832031 -24.625 14.5 -24.625 C 15.769531 -24.625 17.023438 -24.394531 18.265625 -23.9375 C 19.503906 -23.476562 20.472656 -22.796875 21.171875 -21.890625 C 21.878906 -20.984375 22.320312 -20.015625 22.5 -18.984375 C 22.6875 -17.960938 22.78125 -16.570312 22.78125 -14.8125 Z M 22.78125 0 "/></g></g></g><g fill="#ffffff" fill-opacity="1"><g transform="translate(197.346685, 85.153323)"><g><path d="M 16.546875 -17.328125 C 16.359375 -18.648438 15.820312 -19.640625 14.9375 -20.296875 C 14.050781 -20.953125 12.820312 -21.28125 11.25 -21.28125 C 9.695312 -21.28125 8.4375 -21.015625 7.46875 -20.484375 C 6.507812 -19.953125 6.03125 -19.179688 6.03125 -18.171875 C 6.03125 -17.222656 6.410156 -16.539062 7.171875 -16.125 C 7.941406 -15.71875 9.453125 -15.222656 11.703125 -14.640625 C 14.242188 -13.984375 16.144531 -13.40625 17.40625 -12.90625 C 18.675781 -12.40625 19.660156 -11.707031 20.359375 -10.8125 C 21.066406 -9.914062 21.421875 -8.664062 21.421875 -7.0625 C 21.421875 -4.90625 20.539062 -3.09375 18.78125 -1.625 C 17.03125 -0.164062 14.6875 0.5625 11.75 0.5625 C 8.695312 0.5625 6.3125 -0.0820312 4.59375 -1.375 C 2.875 -2.664062 1.816406 -4.601562 1.421875 -7.1875 L 5.484375 -7.8125 C 5.703125 -6.125 6.328125 -4.863281 7.359375 -4.03125 C 8.398438 -3.207031 9.847656 -2.796875 11.703125 -2.796875 C 13.492188 -2.796875 14.863281 -3.164062 15.8125 -3.90625 C 16.769531 -4.65625 17.25 -5.566406 17.25 -6.640625 C 17.25 -7.367188 17.023438 -7.953125 16.578125 -8.390625 C 16.140625 -8.828125 15.59375 -9.15625 14.9375 -9.375 C 14.28125 -9.601562 12.800781 -9.992188 10.5 -10.546875 C 7.082031 -11.367188 4.828125 -12.359375 3.734375 -13.515625 C 2.640625 -14.679688 2.09375 -16.078125 2.09375 -17.703125 C 2.09375 -19.710938 2.890625 -21.367188 4.484375 -22.671875 C 6.085938 -23.972656 8.242188 -24.625 10.953125 -24.625 C 13.828125 -24.625 16.0625 -24.054688 17.65625 -22.921875 C 19.257812 -21.796875 20.21875 -20.113281 20.53125 -17.875 Z M 16.546875 -17.328125 "/></g></g></g><g fill="#ffffff" fill-opacity="1"><g transform="translate(220.576416, 85.153323)"><g><path d="M 6.96875 -20.96875 C 8.488281 -23.40625 10.78125 -24.625 13.84375 -24.625 C 17 -24.625 19.492188 -23.476562 21.328125 -21.1875 C 23.160156 -18.894531 24.078125 -15.910156 24.078125 -12.234375 C 24.078125 -8.316406 23.0625 -5.203125 21.03125 -2.890625 C 19.007812 -0.585938 16.519531 0.5625 13.5625 0.5625 C 10.976562 0.5625 8.90625 -0.460938 7.34375 -2.515625 L 7.234375 -2.515625 L 7.234375 9.25 L 3.15625 9.25 L 3.15625 -24.078125 L 6.875 -24.078125 L 6.875 -20.96875 Z M 13.296875 -2.796875 C 15.203125 -2.796875 16.78125 -3.582031 18.03125 -5.15625 C 19.28125 -6.738281 19.90625 -9.097656 19.90625 -12.234375 C 19.90625 -15.179688 19.300781 -17.445312 18.09375 -19.03125 C 16.894531 -20.625 15.359375 -21.421875 13.484375 -21.421875 C 11.546875 -21.421875 9.953125 -20.535156 8.703125 -18.765625 C 7.453125 -16.992188 6.828125 -14.703125 6.828125 -11.890625 C 6.828125 -8.910156 7.425781 -6.648438 8.625 -5.109375 C 9.820312 -3.566406 11.378906 -2.796875 13.296875 -2.796875 Z M 13.296875 -2.796875 "/></g></g></g><g fill="#ffffff" fill-opacity="1"><g transform="translate(246.414956, 85.153323)"><g><path d="M 23.984375 0 L 19.6875 0 C 19.300781 -0.757812 19.023438 -1.75 18.859375 -2.96875 C 16.117188 -0.613281 13.160156 0.5625 9.984375 0.5625 C 7.441406 0.5625 5.4375 -0.0703125 3.96875 -1.34375 C 2.5 -2.613281 1.765625 -4.289062 1.765625 -6.375 C 1.765625 -8.375 2.472656 -10.019531 3.890625 -11.3125 C 5.304688 -12.601562 7.757812 -13.460938 11.25 -13.890625 L 15.0625 -14.453125 C 16.488281 -14.679688 17.660156 -14.960938 18.578125 -15.296875 C 18.578125 -16.515625 18.539062 -17.378906 18.46875 -17.890625 C 18.394531 -18.398438 18.171875 -18.925781 17.796875 -19.46875 C 17.429688 -20.007812 16.835938 -20.445312 16.015625 -20.78125 C 15.203125 -21.113281 14.109375 -21.28125 12.734375 -21.28125 C 10.972656 -21.28125 9.582031 -20.953125 8.5625 -20.296875 C 7.539062 -19.648438 6.84375 -18.441406 6.46875 -16.671875 L 2.46875 -17.203125 C 2.90625 -19.660156 4.03125 -21.507812 5.84375 -22.75 C 7.664062 -24 10.164062 -24.625 13.34375 -24.625 C 16.226562 -24.625 18.347656 -24.191406 19.703125 -23.328125 C 21.054688 -22.472656 21.890625 -21.441406 22.203125 -20.234375 C 22.515625 -19.023438 22.671875 -17.46875 22.671875 -15.5625 L 22.671875 -10.078125 C 22.671875 -6.734375 22.734375 -4.488281 22.859375 -3.34375 C 22.984375 -2.207031 23.359375 -1.09375 23.984375 0 Z M 18.578125 -10.59375 L 18.578125 -12.078125 C 16.453125 -11.359375 13.84375 -10.789062 10.75 -10.375 C 7.664062 -9.957031 6.125 -8.65625 6.125 -6.46875 C 6.125 -5.363281 6.539062 -4.453125 7.375 -3.734375 C 8.207031 -3.015625 9.398438 -2.65625 10.953125 -2.65625 C 12.972656 -2.65625 14.75 -3.253906 16.28125 -4.453125 C 17.8125 -5.660156 18.578125 -7.707031 18.578125 -10.59375 Z M 18.578125 -10.59375 "/></g></g></g><g fill="#ffffff" fill-opacity="1"><g transform="translate(272.253495, 85.153323)"><g><path d="M 22.828125 -8.328125 C 22.296875 -5.253906 21.082031 -3.003906 19.1875 -1.578125 C 17.300781 -0.148438 15.164062 0.5625 12.78125 0.5625 C 9.28125 0.5625 6.578125 -0.582031 4.671875 -2.875 C 2.765625 -5.164062 1.8125 -8.203125 1.8125 -11.984375 C 1.8125 -15.109375 2.359375 -17.613281 3.453125 -19.5 C 4.554688 -21.382812 5.929688 -22.707031 7.578125 -23.46875 C 9.222656 -24.238281 10.957031 -24.625 12.78125 -24.625 C 15.257812 -24.625 17.378906 -23.976562 19.140625 -22.6875 C 20.898438 -21.40625 21.984375 -19.515625 22.390625 -17.015625 L 18.453125 -16.40625 C 18.035156 -18.019531 17.367188 -19.234375 16.453125 -20.046875 C 15.546875 -20.867188 14.378906 -21.28125 12.953125 -21.28125 C 10.671875 -21.28125 8.9375 -20.46875 7.75 -18.84375 C 6.570312 -17.226562 5.984375 -14.972656 5.984375 -12.078125 C 5.984375 -9.109375 6.5625 -6.816406 7.71875 -5.203125 C 8.882812 -3.597656 10.554688 -2.796875 12.734375 -2.796875 C 14.484375 -2.796875 15.859375 -3.296875 16.859375 -4.296875 C 17.867188 -5.304688 18.503906 -6.816406 18.765625 -8.828125 Z M 22.828125 -8.328125 "/></g></g></g><g fill="#ffffff" fill-opacity="1"><g transform="translate(295.483226, 85.153323)"><g><path d="M 24.03125 -11 L 5.984375 -11 C 6.148438 -8.34375 6.910156 -6.3125 8.265625 -4.90625 C 9.617188 -3.5 11.3125 -2.796875 13.34375 -2.796875 C 14.894531 -2.796875 16.203125 -3.207031 17.265625 -4.03125 C 18.328125 -4.851562 19.132812 -6.097656 19.6875 -7.765625 L 23.890625 -7.234375 C 23.210938 -4.722656 21.960938 -2.796875 20.140625 -1.453125 C 18.328125 -0.109375 16.0625 0.5625 13.34375 0.5625 C 9.726562 0.5625 6.898438 -0.539062 4.859375 -2.75 C 2.828125 -4.96875 1.8125 -8 1.8125 -11.84375 C 1.8125 -15.644531 2.796875 -18.722656 4.765625 -21.078125 C 6.742188 -23.441406 9.523438 -24.625 13.109375 -24.625 C 14.867188 -24.625 16.5625 -24.234375 18.1875 -23.453125 C 19.8125 -22.679688 21.191406 -21.367188 22.328125 -19.515625 C 23.460938 -17.671875 24.03125 -14.832031 24.03125 -11 Z M 19.828125 -14.359375 C 19.660156 -16.804688 18.898438 -18.570312 17.546875 -19.65625 C 16.191406 -20.738281 14.710938 -21.28125 13.109375 -21.28125 C 11.191406 -21.28125 9.613281 -20.632812 8.375 -19.34375 C 7.132812 -18.0625 6.414062 -16.398438 6.21875 -14.359375 Z M 19.828125 -14.359375 "/></g></g></g><path stroke-linecap="butt" transform="matrix(0.725581, 0, 0, 0.745588, 45.042294, 88.984602)" fill="none" stroke-linejoin="miter" d="M 17.481527 2.001052 L 2.030553 2.001052 C 2.014402 2.001052 1.998251 1.985335 1.998251 1.969617 L 1.998251 1.938182 " stroke="#d9d9d9" stroke-width="4" stroke-opacity="1" stroke-miterlimit="4"/><path stroke-linecap="butt" transform="matrix(0.754003, 0, 0, 0.741499, 47.073257, 40.614166)" fill="none" stroke-linejoin="miter" d="M 13.849232 2.000664 L 10.699379 2.000664 C 9.865289 2.000664 9.067465 2.33255 8.476867 2.922571 C 7.88627 3.512592 7.554706 4.313335 7.554706 5.145686 L 7.554706 11.319835 C 7.554706 12.320763 7.155794 13.284815 6.446041 13.990733 C 5.741469 14.696651 4.777862 15.097023 3.777991 15.097023 L 0.00127612 15.097023 " stroke="#d9d9d9" stroke-width="4" stroke-opacity="1" stroke-miterlimit="4"/><path stroke-linecap="butt" transform="matrix(0.756978, 0, 0, 0.77077, 44.98217, 61.099449)" fill="none" stroke-linejoin="miter" d="M 26.599213 8.653795 L 17.403519 8.653795 C 15.566444 8.653795 14.080272 7.163807 14.080272 5.324128 C 14.080272 3.489517 12.588938 1.999528 10.751864 1.999528 L -0.00224759 1.999528 " stroke="#d9d9d9" stroke-width="4" stroke-opacity="1" stroke-miterlimit="4"/><path stroke-linecap="butt" transform="matrix(0.745588, 0, 0, 0.756877, 59.964537, 46.987792)" fill="none" stroke-linejoin="miter" d="M 13.003987 21.676897 L 13.003987 14.761141 C 13.003987 12 10.76163 9.760121 8.000597 9.760121 L 6.879418 9.760121 C 4.186494 9.760121 2.001767 7.577013 2.001767 4.882964 L 2.001767 0.000646982 " stroke="#d9d9d9" stroke-width="4" stroke-opacity="1" stroke-miterlimit="4"/><path stroke-linecap="butt" transform="matrix(0.75797, 0, 0, 0.732581, 45.038832, 70.134227)" fill="none" stroke-linejoin="miter" d="M 1.999889 -0.00193116 L 1.999889 4.471765 C 1.999889 5.655509 2.468864 6.796595 3.308896 7.633747 C 4.148928 8.470898 5.287867 8.945462 6.473188 8.945462 L 14.646749 8.945462 C 17.409063 8.945462 19.650866 11.179644 19.650866 13.941712 L 19.650866 22.393213 " stroke="#d9d9d9" stroke-width="4" stroke-opacity="1" stroke-miterlimit="4"/><path stroke-linecap="butt" transform="matrix(0.728514, 0, 0, 0.737102, 61.990002, 72.146031)" fill="none" stroke-linejoin="miter" d="M 1.997644 19.235047 L 1.997644 12.340435 C 1.997644 10.051063 3.858239 8.196248 6.147789 8.196248 L 6.196047 8.196248 C 7.284522 8.196248 8.324739 7.761691 9.091497 6.993268 C 9.863617 6.224844 10.292573 5.180848 10.292573 4.094457 L 10.292573 -0.00203512 " stroke="#d9d9d9" stroke-width="4" stroke-opacity="1" stroke-miterlimit="4"/><g clip-path="url(#da9f8cd8ab)"><g clip-path="url(#9214d7ebae)"><path stroke-linecap="butt" transform="matrix(0.735532, 0, 0, 0.735532, 55.543596, 36.087389)" fill="none" stroke-linejoin="miter" d="M 8.108711 -0.00197408 C 3.631722 -0.00197408 -0.000852152 3.6306 -0.000852152 8.107589 C -0.000852152 12.589889 3.631722 16.217152 8.108711 16.217152 C 12.5857 16.217152 16.218274 12.589889 16.218274 8.107589 C 16.218274 3.6306 12.5857 -0.00197408 8.108711 -0.00197408 Z M 8.108711 -0.00197408 " stroke="#ff3131" stroke-width="10" stroke-opacity="1" stroke-miterlimit="4"/></g></g><g clip-path="url(#2373fc0f1c)"><g clip-path="url(#ab1ae23ff0)"><path stroke-linecap="butt" transform="matrix(0.735532, 0, 0, 0.735532, 63.617094, 61.367369)" fill="none" stroke-linejoin="miter" d="M 8.10969 -0.000246347 C 3.632701 -0.000246347 0.000127005 3.632328 0.000127005 8.109317 C 0.000127005 12.586306 3.632701 16.21888 8.10969 16.21888 C 12.586679 16.21888 16.219253 12.586306 16.219253 8.109317 C 16.219253 3.632328 12.586679 -0.000246347 8.10969 -0.000246347 Z M 8.10969 -0.000246347 " stroke="#cb6ce6" stroke-width="10" stroke-opacity="1" stroke-miterlimit="4"/></g></g><g clip-path="url(#4845691a82)"><g clip-path="url(#3b14ef33a9)"><g clip-path="url(#cc77de690a)"><g clip-path="url(#c29688de8d)"><path stroke-linecap="butt" transform="matrix(-0.5201, 0.5201, -0.5201, -0.5201, 70.140546, 90.474011)" fill="none" stroke-linejoin="miter" d="M 8.110047 0.00122574 C 3.629987 -0.00252955 -0.00137823 3.628835 0.00237706 8.108896 C -0.00137823 12.588956 3.629987 16.220321 8.110047 16.216566 C 12.590108 16.220321 16.221473 12.588956 16.217717 8.108896 C 16.217717 3.632591 12.586352 0.00122574 8.110047 0.00122574 Z M 8.110047 0.00122574 " stroke="#0cc0df" stroke-width="10" stroke-opacity="1" stroke-miterlimit="4"/></g></g></g></g><g clip-path="url(#0168727170)"><path fill="#d9d9d9" d="M 43.738281 35.023438 C 45.917969 35.417969 47.707031 36.605469 48.988281 38.398438 L 48.996094 38.40625 C 49.046875 38.464844 49.074219 38.542969 49.074219 38.621094 C 49.074219 39.789062 49.074219 40.96875 49.074219 42.136719 C 49.074219 47.128906 49.074219 52.105469 49.074219 57.09375 C 49.074219 69.019531 49.074219 80.953125 49.074219 92.878906 L 49.074219 92.964844 C 49.074219 93.058594 49.03125 93.152344 48.953125 93.210938 C 47.59375 94.355469 46.0625 95.355469 44.386719 95.96875 L 44.386719 95.976562 C 44.371094 95.976562 44.359375 95.988281 44.34375 95.988281 C 43.199219 96.40625 42 96.625 40.777344 96.617188 C 37.613281 96.585938 34.851562 94.96875 32.558594 92.910156 L 32.523438 92.886719 L 32.488281 92.886719 C 30.214844 93.328125 27.863281 93.183594 25.714844 92.269531 C 24.191406 91.613281 22.851562 90.605469 21.816406 89.316406 C 20.78125 88.042969 20.078125 86.53125 19.746094 84.925781 C 19.328125 82.910156 19.507812 80.824219 20.199219 78.894531 L 20.242188 78.792969 L 20.128906 78.785156 C 20.003906 78.773438 19.875 78.757812 19.746094 78.75 L 19.667969 78.742188 C 19.601562 78.730469 19.53125 78.707031 19.480469 78.664062 C 18.683594 77.972656 17.964844 77.195312 17.394531 76.304688 C 16.367188 74.710938 15.921875 72.914062 16.195312 71.027344 C 16.445312 69.328125 17.265625 67.753906 18.386719 66.464844 C 18.96875 65.789062 19.644531 65.183594 20.386719 64.671875 L 20.4375 64.636719 L 20.414062 64.578125 C 19.890625 63.332031 19.453125 62.023438 19.207031 60.691406 C 18.890625 58.964844 18.90625 57.113281 19.695312 55.507812 C 20.480469 53.902344 21.867188 52.839844 23.484375 52.140625 C 24.371094 51.757812 25.324219 51.492188 26.28125 51.296875 L 26.355469 51.277344 L 26.339844 51.203125 C 26.058594 49.792969 26.074219 48.355469 26.449219 46.972656 C 26.90625 45.324219 27.835938 43.871094 29.09375 42.726562 C 30.085938 41.824219 31.394531 41.035156 32.710938 40.71875 C 33.113281 40.628906 33.550781 40.566406 33.960938 40.59375 L 34.046875 40.601562 L 34.046875 40.523438 C 34.113281 39.4375 34.660156 38.464844 35.378906 37.679688 C 35.875 37.140625 36.457031 36.6875 37.082031 36.3125 C 37.089844 36.304688 37.089844 36.304688 37.097656 36.296875 L 37.109375 36.296875 C 37.714844 35.929688 38.367188 35.628906 39.042969 35.40625 C 40.539062 34.902344 42.171875 34.742188 43.738281 35.023438 Z M 74.78125 83.96875 C 75.671875 83.96875 76.398438 84.6875 76.398438 85.582031 C 76.398438 86.46875 75.671875 87.195312 74.78125 87.195312 C 73.890625 87.195312 73.164062 86.46875 73.164062 85.582031 C 73.164062 84.6875 73.890625 83.96875 74.78125 83.96875 Z M 59.496094 77.039062 C 60.386719 77.039062 61.113281 77.765625 61.113281 78.65625 C 61.113281 79.542969 60.386719 80.269531 59.496094 80.269531 C 58.605469 80.269531 57.878906 79.542969 57.878906 78.65625 C 57.878906 77.765625 58.605469 77.039062 59.496094 77.039062 Z M 62.824219 86.308594 C 63.722656 86.308594 64.441406 87.027344 64.441406 87.921875 C 64.441406 88.8125 63.722656 89.527344 62.824219 89.527344 C 61.933594 89.527344 61.214844 88.8125 61.214844 87.921875 C 61.214844 87.027344 61.933594 86.308594 62.824219 86.308594 Z M 74.34375 77.585938 C 75.234375 77.585938 75.960938 78.304688 75.960938 79.191406 C 75.960938 80.089844 75.234375 80.808594 74.34375 80.808594 C 73.453125 80.808594 72.730469 80.089844 72.730469 79.191406 C 72.730469 78.304688 73.453125 77.585938 74.34375 77.585938 Z M 73.402344 63.144531 C 74.292969 63.144531 75.019531 63.867188 75.019531 64.757812 C 75.019531 65.644531 74.292969 66.371094 73.402344 66.371094 C 72.507812 66.371094 71.789062 65.644531 71.789062 64.757812 C 71.789062 63.867188 72.507812 63.144531 73.402344 63.144531 Z M 64.199219 70.558594 C 65.089844 70.558594 65.808594 71.285156 65.808594 72.171875 C 65.808594 73.058594 65.089844 73.785156 64.199219 73.785156 C 63.300781 73.785156 62.585938 73.058594 62.585938 72.171875 C 62.585938 71.285156 63.300781 70.558594 64.199219 70.558594 Z M 58.675781 55.027344 C 59.566406 55.027344 60.285156 55.746094 60.285156 56.632812 C 60.285156 57.53125 59.566406 58.25 58.675781 58.25 C 57.777344 58.25 57.058594 57.53125 57.058594 56.632812 C 57.058594 55.746094 57.777344 55.027344 58.675781 55.027344 Z M 66.246094 54.789062 C 67.132812 54.789062 67.863281 55.515625 67.863281 56.402344 C 67.863281 57.292969 67.132812 58.019531 66.246094 58.019531 C 65.355469 58.019531 64.628906 57.292969 64.628906 56.402344 C 64.628906 55.515625 65.355469 54.789062 66.246094 54.789062 Z M 68.828125 47.980469 C 69.71875 47.980469 70.4375 48.699219 70.4375 49.59375 C 70.4375 50.484375 69.71875 51.210938 68.828125 51.210938 C 67.929688 51.210938 67.210938 50.484375 67.210938 49.59375 C 67.210938 48.699219 67.929688 47.980469 68.828125 47.980469 Z M 61.128906 43.941406 C 62.019531 43.941406 62.746094 44.660156 62.746094 45.554688 C 62.746094 46.445312 62.019531 47.160156 61.128906 47.160156 C 60.242188 47.160156 59.515625 46.445312 59.515625 45.554688 C 59.515625 44.660156 60.242188 43.941406 61.128906 43.941406 Z M 66.699219 49.074219 C 66.75 48.859375 66.835938 48.65625 66.953125 48.46875 C 65.699219 47.742188 64.449219 47.007812 63.191406 46.273438 C 63.125 46.476562 63.019531 46.675781 62.890625 46.84375 C 64.160156 47.589844 65.433594 48.332031 66.699219 49.074219 Z M 60.855469 56.632812 C 61.925781 56.582031 62.996094 56.523438 64.066406 56.472656 C 64.066406 56.445312 64.066406 56.429688 64.066406 56.402344 C 64.066406 56.207031 64.089844 56.011719 64.140625 55.8125 C 63.011719 55.875 61.882812 55.933594 60.753906 55.984375 C 60.824219 56.199219 60.855469 56.410156 60.855469 56.632812 Z M 61.582031 86.128906 C 61.761719 86 61.960938 85.90625 62.175781 85.839844 C 61.601562 84.097656 61.019531 82.363281 60.445312 80.621094 C 60.25 80.714844 60.042969 80.78125 59.820312 80.816406 C 60.414062 82.585938 60.992188 84.351562 61.582031 86.128906 Z M 63.140625 74.085938 C 62.953125 73.972656 62.773438 73.847656 62.628906 73.683594 C 61.933594 74.710938 61.242188 75.726562 60.546875 76.75 C 60.746094 76.851562 60.917969 76.988281 61.070312 77.144531 C 61.761719 76.125 62.457031 75.101562 63.140625 74.085938 Z M 72.769531 80.707031 C 72.617188 80.550781 72.488281 80.371094 72.394531 80.175781 C 69.71875 82.242188 67.039062 84.308594 64.363281 86.367188 C 64.515625 86.523438 64.65625 86.703125 64.757812 86.890625 C 67.425781 84.832031 70.09375 82.773438 72.769531 80.707031 Z M 74.011719 77.039062 C 73.386719 75.441406 72.761719 73.855469 72.136719 72.257812 L 72.128906 72.238281 L 72.136719 72.214844 C 72.558594 70.453125 72.96875 68.695312 73.386719 66.9375 C 73.164062 66.9375 72.949219 66.902344 72.738281 66.832031 C 72.316406 68.617188 71.898438 70.402344 71.480469 72.1875 C 71.460938 72.25 71.460938 72.316406 71.488281 72.375 C 72.121094 74 72.753906 75.613281 73.386719 77.238281 C 73.582031 77.144531 73.796875 77.074219 74.011719 77.039062 Z M 66.066406 73.300781 C 65.953125 73.488281 65.808594 73.660156 65.644531 73.804688 C 67.902344 75.246094 70.171875 76.691406 72.4375 78.132812 C 72.546875 77.9375 72.675781 77.765625 72.839844 77.621094 C 70.582031 76.179688 68.324219 74.742188 66.066406 73.300781 Z M 68.476562 51.75 C 68.253906 51.714844 68.050781 51.644531 67.851562 51.542969 C 67.449219 52.449219 67.058594 53.355469 66.664062 54.257812 C 66.878906 54.300781 67.082031 54.378906 67.28125 54.480469 C 67.671875 53.566406 68.074219 52.664062 68.476562 51.75 Z M 72.753906 86.222656 C 72.683594 86.019531 72.652344 85.796875 72.652344 85.582031 L 64.917969 87.300781 C 64.980469 87.496094 65.011719 87.710938 65.011719 87.921875 C 65.011719 87.921875 65.011719 87.933594 65.011719 87.941406 Z M 69.519531 51.664062 C 71.589844 55.199219 73.652344 58.742188 75.722656 62.28125 L 75.757812 62.339844 L 75.703125 62.382812 C 75.421875 62.628906 75.140625 62.886719 74.867188 63.132812 C 75.027344 63.28125 75.164062 63.449219 75.277344 63.636719 C 75.523438 63.417969 75.773438 63.195312 76.011719 62.980469 L 76.089844 62.914062 L 76.140625 62.996094 C 76.328125 63.3125 76.507812 63.628906 76.695312 63.953125 C 78.390625 67.523438 80.082031 71.085938 81.777344 74.65625 L 81.792969 74.699219 L 81.769531 74.734375 C 80.949219 75.90625 80.132812 77.074219 79.324219 78.246094 L 79.296875 78.277344 L 79.261719 78.277344 C 78.3125 78.355469 77.363281 78.441406 76.421875 78.519531 C 76.492188 78.730469 76.527344 78.945312 76.527344 79.167969 C 77.234375 79.109375 77.9375 79.046875 78.636719 78.988281 L 78.816406 78.972656 L 75.578125 83.609375 C 75.78125 83.695312 75.96875 83.804688 76.140625 83.941406 L 79.65625 78.902344 L 79.699219 78.894531 C 79.859375 78.886719 80.015625 78.867188 80.179688 78.851562 L 80.238281 78.851562 L 80.261719 78.902344 C 80.972656 80.78125 81.1875 82.824219 80.777344 84.796875 C 80.460938 86.300781 79.800781 87.710938 78.835938 88.90625 C 78.519531 89.308594 78.167969 89.675781 77.792969 90.015625 L 77.714844 90.085938 L 76.089844 87.257812 C 75.917969 87.394531 75.730469 87.496094 75.523438 87.574219 L 77.203125 90.492188 L 77.148438 90.535156 C 76.542969 90.988281 75.875 91.375 75.183594 91.671875 C 73.097656 92.5625 70.796875 92.671875 68.597656 92.210938 C 68.496094 92.195312 68.382812 92.21875 68.308594 92.289062 C 66.117188 94.304688 63.429688 95.933594 60.367188 95.96875 C 59.410156 95.976562 58.460938 95.832031 57.546875 95.550781 L 57.4375 95.515625 L 57.503906 95.421875 C 58.914062 93.550781 60.328125 91.679688 61.738281 89.8125 C 61.550781 89.699219 61.378906 89.5625 61.234375 89.410156 C 59.761719 91.347656 58.289062 93.296875 56.828125 95.234375 L 56.785156 95.285156 L 56.726562 95.261719 C 55.289062 94.6875 53.953125 93.824219 52.765625 92.835938 L 52.730469 92.808594 L 52.730469 92.773438 C 52.730469 88.476562 52.730469 84.183594 52.730469 79.894531 L 52.730469 79.816406 L 52.808594 79.808594 C 54.347656 79.664062 55.886719 79.515625 57.4375 79.371094 C 57.359375 79.167969 57.324219 78.953125 57.316406 78.730469 C 55.820312 78.878906 54.320312 79.015625 52.824219 79.160156 L 52.730469 79.167969 L 52.730469 79.074219 C 52.730469 77.511719 52.730469 75.957031 52.730469 74.390625 L 52.730469 74.171875 L 52.875 74.339844 C 52.945312 74.417969 53.039062 74.460938 53.140625 74.453125 C 55.835938 74.289062 58.523438 74.136719 61.207031 73.972656 C 61.335938 73.964844 61.445312 73.878906 61.488281 73.761719 C 61.667969 73.28125 61.839844 72.804688 62.019531 72.324219 C 62.011719 72.273438 62.011719 72.222656 62.011719 72.171875 C 62.011719 71.597656 62.234375 71.0625 62.628906 70.652344 C 62.660156 70.574219 62.6875 70.488281 62.722656 70.402344 L 62.796875 70.199219 L 62.875 70.402344 C 62.875 70.414062 62.875 70.421875 62.882812 70.429688 C 63.054688 70.300781 63.25 70.191406 63.457031 70.121094 C 63.355469 69.839844 63.25 69.566406 63.148438 69.285156 L 63.140625 69.257812 L 63.148438 69.234375 C 63.449219 68.394531 63.757812 67.566406 64.054688 66.738281 L 64.066406 66.722656 L 64.074219 66.714844 C 65.425781 65.160156 66.773438 63.597656 68.125 62.042969 L 68.167969 61.988281 L 68.230469 62.023438 C 68.289062 62.058594 68.347656 62.09375 68.417969 62.136719 L 68.441406 62.144531 L 68.453125 62.167969 C 68.792969 63.007812 69.144531 63.835938 69.496094 64.664062 L 69.511719 64.707031 L 69.476562 64.75 C 68.050781 66.566406 66.613281 68.394531 65.175781 70.222656 C 65.371094 70.316406 65.550781 70.445312 65.714844 70.601562 C 67.1875 68.722656 68.664062 66.839844 70.144531 64.960938 C 70.214844 64.867188 70.230469 64.730469 70.179688 64.621094 C 69.941406 64.046875 69.699219 63.476562 69.460938 62.902344 L 69.367188 62.683594 L 69.582031 62.808594 C 70.1875 63.160156 70.796875 63.511719 71.410156 63.859375 C 71.496094 63.664062 71.617188 63.476562 71.761719 63.3125 C 70.839844 62.785156 69.90625 62.246094 68.980469 61.707031 L 68.957031 61.691406 L 68.949219 61.664062 C 68.460938 60.511719 67.980469 59.351562 67.492188 58.199219 C 67.3125 58.316406 67.117188 58.417969 66.914062 58.488281 C 67.28125 59.375 67.65625 60.273438 68.023438 61.160156 L 68.058594 61.238281 L 67.980469 61.273438 C 67.929688 61.289062 67.878906 61.324219 67.84375 61.367188 L 67.84375 61.375 C 66.40625 63.03125 64.96875 64.6875 63.535156 66.347656 C 63.507812 66.371094 63.492188 66.40625 63.472656 66.449219 C 63.269531 67.003906 63.070312 67.558594 62.867188 68.113281 L 62.789062 68.320312 L 62.710938 68.113281 C 62.003906 66.210938 61.292969 64.304688 60.582031 62.398438 L 60.566406 62.347656 L 60.609375 62.3125 C 61.996094 60.878906 63.378906 59.445312 64.773438 58.019531 C 64.613281 57.863281 64.476562 57.691406 64.363281 57.503906 C 62.902344 59.007812 61.445312 60.503906 59.992188 62.007812 L 59.984375 62.015625 L 59.976562 62.015625 C 57.855469 63.375 55.734375 64.730469 53.621094 66.089844 L 53.339844 66.269531 L 53.5 65.980469 C 54.902344 63.519531 56.304688 61.058594 57.699219 58.589844 C 57.503906 58.496094 57.324219 58.367188 57.171875 58.214844 C 55.742188 60.726562 54.3125 63.238281 52.886719 65.75 L 52.730469 66.023438 L 52.730469 65.714844 C 52.730469 62.964844 52.730469 60.203125 52.730469 57.453125 L 52.730469 57.386719 L 52.808594 57.378906 C 54.039062 57.242188 55.28125 57.105469 56.511719 56.976562 C 56.496094 56.863281 56.484375 56.746094 56.484375 56.632812 C 56.484375 56.53125 56.496094 56.421875 56.511719 56.316406 C 55.699219 56.402344 54.886719 56.496094 54.074219 56.582031 L 53.730469 56.617188 L 54.023438 56.4375 C 55.90625 55.214844 57.792969 53.996094 59.675781 52.78125 L 59.675781 52.773438 C 59.761719 52.730469 59.820312 52.652344 59.839844 52.558594 C 60.191406 50.945312 60.539062 49.332031 60.890625 47.714844 C 60.667969 47.691406 60.453125 47.640625 60.257812 47.554688 C 59.917969 49.117188 59.574219 50.6875 59.242188 52.261719 L 59.230469 52.292969 L 59.207031 52.3125 C 57.085938 53.679688 54.972656 55.046875 52.859375 56.410156 L 52.730469 56.496094 L 52.730469 56.34375 C 52.730469 51.808594 52.730469 47.261719 52.730469 42.726562 L 52.730469 42.609375 L 52.84375 42.652344 C 54.902344 43.429688 56.964844 44.207031 59.027344 44.984375 C 59.078125 44.769531 59.171875 44.574219 59.28125 44.386719 C 57.117188 43.566406 54.957031 42.753906 52.78125 41.933594 L 52.730469 41.917969 L 52.730469 41.855469 C 52.730469 40.824219 52.730469 39.78125 52.730469 38.746094 L 52.730469 38.722656 L 52.75 38.695312 C 53.929688 37.082031 55.5625 36.015625 57.539062 35.664062 C 58.992188 35.398438 60.515625 35.554688 61.910156 36.023438 C 62.4375 36.203125 62.960938 36.425781 63.449219 36.699219 L 63.507812 36.730469 L 63.480469 36.792969 C 62.78125 38.988281 62.070312 41.183594 61.363281 43.386719 C 61.582031 43.402344 61.796875 43.460938 61.996094 43.546875 C 62.609375 41.625 63.226562 39.710938 63.851562 37.789062 L 63.917969 37.570312 L 64.003906 37.789062 C 65.246094 41.097656 66.484375 44.402344 67.714844 47.707031 C 67.902344 47.597656 68.109375 47.519531 68.324219 47.46875 C 67.109375 44.222656 65.894531 40.976562 64.671875 37.738281 L 64.558594 37.433594 L 64.808594 37.644531 C 64.96875 37.800781 65.140625 37.953125 65.285156 38.125 C 66.003906 38.894531 66.535156 39.890625 66.449219 40.96875 C 66.441406 41.148438 66.578125 41.300781 66.75 41.320312 C 66.800781 41.320312 66.84375 41.308594 66.886719 41.300781 L 66.886719 41.292969 L 66.894531 41.292969 C 67.332031 41.183594 67.851562 41.25 68.289062 41.351562 C 69.453125 41.625 70.597656 42.308594 71.496094 43.09375 L 71.539062 43.128906 L 71.515625 43.1875 C 71.503906 43.207031 71.496094 43.222656 71.488281 43.25 C 70.863281 44.683594 70.230469 46.121094 69.597656 47.554688 C 69.8125 47.640625 70.015625 47.75 70.1875 47.894531 C 70.796875 46.503906 71.394531 45.109375 71.992188 43.726562 L 72.042969 43.609375 L 72.128906 43.703125 C 73.042969 44.675781 73.71875 45.847656 74.078125 47.144531 C 74.464844 48.5625 74.429688 50.03125 74.089844 51.457031 C 74.046875 51.628906 74.15625 51.808594 74.335938 51.851562 C 74.34375 51.851562 74.363281 51.859375 74.371094 51.859375 L 74.378906 51.859375 C 75.414062 52.046875 76.449219 52.328125 77.414062 52.746094 C 78.878906 53.371094 80.160156 54.328125 80.878906 55.789062 C 81.117188 56.285156 81.289062 56.8125 81.382812 57.359375 L 81.402344 57.453125 L 81.304688 57.453125 C 81.230469 57.460938 81.160156 57.488281 81.101562 57.539062 C 79.511719 58.964844 77.921875 60.390625 76.320312 61.828125 L 76.253906 61.894531 L 76.199219 61.808594 C 74.164062 58.324219 72.128906 54.847656 70.101562 51.363281 C 69.921875 51.492188 69.726562 51.59375 69.519531 51.664062 Z M 80.375 77.878906 C 81.058594 76.886719 81.75 75.90625 82.4375 74.914062 C 82.503906 74.8125 82.511719 74.683594 82.453125 74.570312 C 80.734375 70.933594 79.007812 67.304688 77.277344 63.664062 C 77.277344 63.65625 77.269531 63.648438 77.261719 63.628906 C 77.046875 63.261719 76.832031 62.894531 76.621094 62.527344 L 76.585938 62.46875 L 76.636719 62.425781 C 78.203125 61.015625 79.777344 59.605469 81.339844 58.199219 L 81.46875 58.078125 L 81.476562 58.25 C 81.519531 59.027344 81.445312 59.8125 81.304688 60.570312 C 81.050781 61.964844 80.570312 63.339844 80.007812 64.628906 C 79.945312 64.785156 80.007812 64.960938 80.144531 65.039062 L 80.152344 65.046875 C 80.9375 65.550781 81.667969 66.175781 82.28125 66.886719 C 83.316406 68.082031 84.078125 69.539062 84.308594 71.121094 C 84.566406 72.847656 84.144531 74.496094 83.214844 75.957031 C 82.699219 76.75 82.058594 77.460938 81.347656 78.082031 L 81.332031 78.101562 L 81.296875 78.109375 C 81.101562 78.125 80.90625 78.140625 80.707031 78.152344 L 80.664062 78.160156 L 80.640625 78.125 C 80.589844 78.058594 80.511719 78.015625 80.425781 78.007812 L 80.296875 77.988281 Z M 52.773438 67.40625 C 55.160156 65.875 57.554688 64.347656 59.941406 62.816406 L 60.027344 62.757812 L 60.0625 62.851562 C 60.855469 64.980469 61.644531 67.105469 62.4375 69.234375 L 62.449219 69.257812 L 62.4375 69.285156 C 61.953125 70.617188 61.464844 71.957031 60.976562 73.289062 L 60.960938 73.339844 L 60.898438 73.339844 C 58.308594 73.496094 55.707031 73.648438 53.109375 73.804688 C 53.015625 73.8125 52.9375 73.855469 52.875 73.921875 L 52.730469 74.09375 L 52.730469 73.871094 C 52.730469 71.738281 52.730469 69.609375 52.730469 67.472656 L 52.730469 67.429688 Z M 81.410156 78.75 L 81.488281 78.738281 C 81.554688 78.730469 81.621094 78.707031 81.675781 78.664062 C 82.46875 77.972656 83.1875 77.195312 83.761719 76.304688 C 84.789062 74.710938 85.234375 72.914062 84.957031 71.027344 C 84.710938 69.328125 83.890625 67.753906 82.769531 66.464844 C 82.1875 65.789062 81.511719 65.183594 80.769531 64.671875 L 80.714844 64.636719 L 80.742188 64.578125 C 81.265625 63.332031 81.699219 62.023438 81.949219 60.691406 C 82.265625 58.964844 82.246094 57.113281 81.460938 55.507812 C 80.675781 53.902344 79.289062 52.839844 77.671875 52.140625 C 76.78125 51.757812 75.832031 51.492188 74.875 51.296875 L 74.796875 51.277344 L 74.816406 51.203125 C 75.097656 49.792969 75.082031 48.355469 74.703125 46.972656 C 74.25 45.324219 73.320312 43.871094 72.0625 42.726562 C 71.070312 41.824219 69.761719 41.035156 68.441406 40.71875 C 68.042969 40.628906 67.605469 40.566406 67.195312 40.59375 L 67.109375 40.601562 L 67.109375 40.523438 C 67.039062 39.4375 66.492188 38.464844 65.773438 37.679688 C 65.277344 37.140625 64.695312 36.6875 64.074219 36.3125 C 64.066406 36.304688 64.066406 36.304688 64.054688 36.296875 L 64.046875 36.296875 C 63.441406 35.929688 62.789062 35.628906 62.113281 35.40625 C 60.617188 34.902344 58.984375 34.742188 57.417969 35.023438 C 55.238281 35.417969 53.449219 36.605469 52.167969 38.398438 L 52.15625 38.40625 C 52.105469 38.464844 52.082031 38.542969 52.082031 38.621094 C 52.082031 39.789062 52.082031 40.96875 52.082031 42.136719 C 52.082031 47.128906 52.082031 52.105469 52.082031 57.09375 C 52.082031 69.019531 52.082031 80.953125 52.082031 92.878906 L 52.082031 92.964844 C 52.082031 93.058594 52.125 93.152344 52.199219 93.210938 C 53.5625 94.355469 55.09375 95.355469 56.769531 95.96875 L 56.769531 95.976562 C 56.785156 95.976562 56.792969 95.988281 56.8125 95.988281 C 57.957031 96.40625 59.15625 96.625 60.378906 96.617188 C 63.542969 96.585938 66.304688 94.96875 68.597656 92.910156 L 68.632812 92.886719 L 68.664062 92.886719 C 70.941406 93.328125 73.292969 93.183594 75.441406 92.269531 C 76.960938 91.613281 78.304688 90.605469 79.339844 89.316406 C 80.375 88.042969 81.074219 86.53125 81.410156 84.925781 C 81.828125 82.910156 81.648438 80.824219 80.957031 78.894531 L 80.914062 78.792969 L 81.023438 78.785156 C 81.152344 78.773438 81.28125 78.757812 81.410156 78.75 " fill-opacity="1" fill-rule="evenodd"/></g><g mask="url(#06556f560c)"><g transform="matrix(1, 0, 0, 1, 16, 34)"><g clip-path="url(#34c1ef9187)"><g clip-path="url(#3526a85c0a)"><path fill="#ffffff" d="M 27.738281 1.023438 C 29.917969 1.417969 31.707031 2.605469 32.988281 4.398438 L 32.996094 4.40625 C 33.046875 4.464844 33.074219 4.542969 33.074219 4.621094 C 33.074219 5.789062 33.074219 6.96875 33.074219 8.136719 C 33.074219 13.128906 33.074219 18.105469 33.074219 23.09375 C 33.074219 35.019531 33.074219 46.953125 33.074219 58.878906 L 33.074219 58.964844 C 33.074219 59.058594 33.03125 59.152344 32.953125 59.210938 C 31.59375 60.355469 30.0625 61.355469 28.386719 61.96875 L 28.386719 61.976562 C 28.371094 61.976562 28.359375 61.988281 28.34375 61.988281 C 27.199219 62.40625 26 62.625 24.777344 62.617188 C 21.613281 62.585938 18.851562 60.96875 16.558594 58.910156 L 16.523438 58.886719 L 16.488281 58.886719 C 14.214844 59.328125 11.863281 59.183594 9.714844 58.269531 C 8.191406 57.613281 6.851562 56.605469 5.816406 55.316406 C 4.78125 54.042969 4.078125 52.53125 3.746094 50.925781 C 3.328125 48.910156 3.507812 46.824219 4.199219 44.894531 L 4.242188 44.792969 L 4.128906 44.785156 C 4.003906 44.773438 3.875 44.757812 3.746094 44.75 L 3.667969 44.742188 C 3.601562 44.730469 3.53125 44.707031 3.480469 44.664062 C 2.683594 43.972656 1.964844 43.195312 1.394531 42.304688 C 0.367188 40.710938 -0.078125 38.914062 0.195312 37.027344 C 0.445312 35.328125 1.265625 33.753906 2.386719 32.464844 C 2.96875 31.789062 3.644531 31.183594 4.386719 30.671875 L 4.4375 30.636719 L 4.414062 30.578125 C 3.890625 29.332031 3.453125 28.023438 3.207031 26.691406 C 2.890625 24.964844 2.90625 23.113281 3.695312 21.507812 C 4.480469 19.902344 5.867188 18.839844 7.484375 18.140625 C 8.371094 17.757812 9.324219 17.492188 10.28125 17.296875 L 10.355469 17.277344 L 10.339844 17.203125 C 10.058594 15.792969 10.074219 14.355469 10.449219 12.972656 C 10.90625 11.324219 11.835938 9.871094 13.09375 8.726562 C 14.085938 7.824219 15.394531 7.035156 16.710938 6.71875 C 17.113281 6.628906 17.550781 6.566406 17.960938 6.59375 L 18.046875 6.601562 L 18.046875 6.523438 C 18.113281 5.4375 18.660156 4.464844 19.378906 3.679688 C 19.875 3.140625 20.457031 2.6875 21.082031 2.3125 C 21.089844 2.304688 21.089844 2.304688 21.097656 2.296875 L 21.109375 2.296875 C 21.714844 1.929688 22.367188 1.628906 23.042969 1.40625 C 24.539062 0.902344 26.171875 0.742188 27.738281 1.023438 Z M 58.78125 49.96875 C 59.671875 49.96875 60.398438 50.6875 60.398438 51.582031 C 60.398438 52.46875 59.671875 53.195312 58.78125 53.195312 C 57.890625 53.195312 57.164062 52.46875 57.164062 51.582031 C 57.164062 50.6875 57.890625 49.96875 58.78125 49.96875 Z M 43.496094 43.039062 C 44.386719 43.039062 45.113281 43.765625 45.113281 44.65625 C 45.113281 45.542969 44.386719 46.269531 43.496094 46.269531 C 42.605469 46.269531 41.878906 45.542969 41.878906 44.65625 C 41.878906 43.765625 42.605469 43.039062 43.496094 43.039062 Z M 46.824219 52.308594 C 47.722656 52.308594 48.441406 53.027344 48.441406 53.921875 C 48.441406 54.8125 47.722656 55.527344 46.824219 55.527344 C 45.933594 55.527344 45.214844 54.8125 45.214844 53.921875 C 45.214844 53.027344 45.933594 52.308594 46.824219 52.308594 Z M 58.34375 43.585938 C 59.234375 43.585938 59.960938 44.304688 59.960938 45.191406 C 59.960938 46.089844 59.234375 46.808594 58.34375 46.808594 C 57.453125 46.808594 56.730469 46.089844 56.730469 45.191406 C 56.730469 44.304688 57.453125 43.585938 58.34375 43.585938 Z M 57.402344 29.144531 C 58.292969 29.144531 59.019531 29.867188 59.019531 30.757812 C 59.019531 31.644531 58.292969 32.371094 57.402344 32.371094 C 56.507812 32.371094 55.789062 31.644531 55.789062 30.757812 C 55.789062 29.867188 56.507812 29.144531 57.402344 29.144531 Z M 48.199219 36.558594 C 49.089844 36.558594 49.808594 37.285156 49.808594 38.171875 C 49.808594 39.058594 49.089844 39.785156 48.199219 39.785156 C 47.300781 39.785156 46.585938 39.058594 46.585938 38.171875 C 46.585938 37.285156 47.300781 36.558594 48.199219 36.558594 Z M 42.675781 21.027344 C 43.566406 21.027344 44.285156 21.746094 44.285156 22.632812 C 44.285156 23.53125 43.566406 24.25 42.675781 24.25 C 41.777344 24.25 41.058594 23.53125 41.058594 22.632812 C 41.058594 21.746094 41.777344 21.027344 42.675781 21.027344 Z M 50.246094 20.789062 C 51.132812 20.789062 51.863281 21.515625 51.863281 22.402344 C 51.863281 23.292969 51.132812 24.019531 50.246094 24.019531 C 49.355469 24.019531 48.628906 23.292969 48.628906 22.402344 C 48.628906 21.515625 49.355469 20.789062 50.246094 20.789062 Z M 52.828125 13.980469 C 53.71875 13.980469 54.4375 14.699219 54.4375 15.59375 C 54.4375 16.484375 53.71875 17.210938 52.828125 17.210938 C 51.929688 17.210938 51.210938 16.484375 51.210938 15.59375 C 51.210938 14.699219 51.929688 13.980469 52.828125 13.980469 Z M 45.128906 9.941406 C 46.019531 9.941406 46.746094 10.660156 46.746094 11.554688 C 46.746094 12.445312 46.019531 13.160156 45.128906 13.160156 C 44.242188 13.160156 43.515625 12.445312 43.515625 11.554688 C 43.515625 10.660156 44.242188 9.941406 45.128906 9.941406 Z M 50.699219 15.074219 C 50.75 14.859375 50.835938 14.65625 50.953125 14.46875 C 49.699219 13.742188 48.449219 13.007812 47.191406 12.273438 C 47.125 12.476562 47.019531 12.675781 46.890625 12.84375 C 48.160156 13.589844 49.433594 14.332031 50.699219 15.074219 Z M 44.855469 22.632812 C 45.925781 22.582031 46.996094 22.523438 48.066406 22.472656 C 48.066406 22.445312 48.066406 22.429688 48.066406 22.402344 C 48.066406 22.207031 48.089844 22.011719 48.140625 21.8125 C 47.011719 21.875 45.882812 21.933594 44.753906 21.984375 C 44.824219 22.199219 44.855469 22.410156 44.855469 22.632812 Z M 45.582031 52.128906 C 45.761719 52 45.960938 51.90625 46.175781 51.839844 C 45.601562 50.097656 45.019531 48.363281 44.445312 46.621094 C 44.25 46.714844 44.042969 46.78125 43.820312 46.816406 C 44.414062 48.585938 44.992188 50.351562 45.582031 52.128906 Z M 47.140625 40.085938 C 46.953125 39.972656 46.773438 39.847656 46.628906 39.683594 C 45.933594 40.710938 45.242188 41.726562 44.546875 42.75 C 44.746094 42.851562 44.917969 42.988281 45.070312 43.144531 C 45.761719 42.125 46.457031 41.101562 47.140625 40.085938 Z M 56.769531 46.707031 C 56.617188 46.550781 56.488281 46.371094 56.394531 46.175781 C 53.71875 48.242188 51.039062 50.308594 48.363281 52.367188 C 48.515625 52.523438 48.65625 52.703125 48.757812 52.890625 C 51.425781 50.832031 54.09375 48.773438 56.769531 46.707031 Z M 58.011719 43.039062 C 57.386719 41.441406 56.761719 39.855469 56.136719 38.257812 L 56.128906 38.238281 L 56.136719 38.214844 C 56.558594 36.453125 56.96875 34.695312 57.386719 32.9375 C 57.164062 32.9375 56.949219 32.902344 56.738281 32.832031 C 56.316406 34.617188 55.898438 36.402344 55.480469 38.1875 C 55.460938 38.25 55.460938 38.316406 55.488281 38.375 C 56.121094 40 56.753906 41.613281 57.386719 43.238281 C 57.582031 43.144531 57.796875 43.074219 58.011719 43.039062 Z M 50.066406 39.300781 C 49.953125 39.488281 49.808594 39.660156 49.644531 39.804688 C 51.902344 41.246094 54.171875 42.691406 56.4375 44.132812 C 56.546875 43.9375 56.675781 43.765625 56.839844 43.621094 C 54.582031 42.179688 52.324219 40.742188 50.066406 39.300781 Z M 52.476562 17.75 C 52.253906 17.714844 52.050781 17.644531 51.851562 17.542969 C 51.449219 18.449219 51.058594 19.355469 50.664062 20.257812 C 50.878906 20.300781 51.082031 20.378906 51.28125 20.480469 C 51.671875 19.566406 52.074219 18.664062 52.476562 17.75 Z M 56.753906 52.222656 C 56.683594 52.019531 56.652344 51.796875 56.652344 51.582031 L 48.917969 53.300781 C 48.980469 53.496094 49.011719 53.710938 49.011719 53.921875 C 49.011719 53.921875 49.011719 53.933594 49.011719 53.941406 Z M 53.519531 17.664062 C 55.589844 21.199219 57.652344 24.742188 59.722656 28.28125 L 59.757812 28.339844 L 59.703125 28.382812 C 59.421875 28.628906 59.140625 28.886719 58.867188 29.132812 C 59.027344 29.28125 59.164062 29.449219 59.277344 29.636719 C 59.523438 29.417969 59.773438 29.195312 60.011719 28.980469 L 60.089844 28.914062 L 60.140625 28.996094 C 60.328125 29.3125 60.507812 29.628906 60.695312 29.953125 C 62.390625 33.523438 64.082031 37.085938 65.777344 40.65625 L 65.792969 40.699219 L 65.769531 40.734375 C 64.949219 41.90625 64.132812 43.074219 63.324219 44.246094 L 63.296875 44.277344 L 63.261719 44.277344 C 62.3125 44.355469 61.363281 44.441406 60.421875 44.519531 C 60.492188 44.730469 60.527344 44.945312 60.527344 45.167969 C 61.234375 45.109375 61.9375 45.046875 62.636719 44.988281 L 62.816406 44.972656 L 59.578125 49.609375 C 59.78125 49.695312 59.96875 49.804688 60.140625 49.941406 L 63.65625 44.902344 L 63.699219 44.894531 C 63.859375 44.886719 64.015625 44.867188 64.179688 44.851562 L 64.238281 44.851562 L 64.261719 44.902344 C 64.972656 46.78125 65.1875 48.824219 64.777344 50.796875 C 64.460938 52.300781 63.800781 53.710938 62.835938 54.90625 C 62.519531 55.308594 62.167969 55.675781 61.792969 56.015625 L 61.714844 56.085938 L 60.089844 53.257812 C 59.917969 53.394531 59.730469 53.496094 59.523438 53.574219 L 61.203125 56.492188 L 61.148438 56.535156 C 60.542969 56.988281 59.875 57.375 59.183594 57.671875 C 57.097656 58.5625 54.796875 58.671875 52.597656 58.210938 C 52.496094 58.195312 52.382812 58.21875 52.308594 58.289062 C 50.117188 60.304688 47.429688 61.933594 44.367188 61.96875 C 43.410156 61.976562 42.460938 61.832031 41.546875 61.550781 L 41.4375 61.515625 L 41.503906 61.421875 C 42.914062 59.550781 44.328125 57.679688 45.738281 55.8125 C 45.550781 55.699219 45.378906 55.5625 45.234375 55.410156 C 43.761719 57.347656 42.289062 59.296875 40.828125 61.234375 L 40.785156 61.285156 L 40.726562 61.261719 C 39.289062 60.6875 37.953125 59.824219 36.765625 58.835938 L 36.730469 58.808594 L 36.730469 58.773438 C 36.730469 54.476562 36.730469 50.183594 36.730469 45.894531 L 36.730469 45.816406 L 36.808594 45.808594 C 38.347656 45.664062 39.886719 45.515625 41.4375 45.371094 C 41.359375 45.167969 41.324219 44.953125 41.316406 44.730469 C 39.820312 44.878906 38.320312 45.015625 36.824219 45.160156 L 36.730469 45.167969 L 36.730469 45.074219 C 36.730469 43.511719 36.730469 41.957031 36.730469 40.390625 L 36.730469 40.171875 L 36.875 40.339844 C 36.945312 40.417969 37.039062 40.460938 37.140625 40.453125 C 39.835938 40.289062 42.523438 40.136719 45.207031 39.972656 C 45.335938 39.964844 45.445312 39.878906 45.488281 39.761719 C 45.667969 39.28125 45.839844 38.804688 46.019531 38.324219 C 46.011719 38.273438 46.011719 38.222656 46.011719 38.171875 C 46.011719 37.597656 46.234375 37.0625 46.628906 36.652344 C 46.660156 36.574219 46.6875 36.488281 46.722656 36.402344 L 46.796875 36.199219 L 46.875 36.402344 C 46.875 36.414062 46.875 36.421875 46.882812 36.429688 C 47.054688 36.300781 47.25 36.191406 47.457031 36.121094 C 47.355469 35.839844 47.25 35.566406 47.148438 35.285156 L 47.140625 35.257812 L 47.148438 35.234375 C 47.449219 34.394531 47.757812 33.566406 48.054688 32.738281 L 48.066406 32.722656 L 48.074219 32.714844 C 49.425781 31.160156 50.773438 29.597656 52.125 28.042969 L 52.167969 27.988281 L 52.230469 28.023438 C 52.289062 28.058594 52.347656 28.09375 52.417969 28.136719 L 52.441406 28.144531 L 52.453125 28.167969 C 52.792969 29.007812 53.144531 29.835938 53.496094 30.664062 L 53.511719 30.707031 L 53.476562 30.75 C 52.050781 32.566406 50.613281 34.394531 49.175781 36.222656 C 49.371094 36.316406 49.550781 36.445312 49.714844 36.601562 C 51.1875 34.722656 52.664062 32.839844 54.144531 30.960938 C 54.214844 30.867188 54.230469 30.730469 54.179688 30.621094 C 53.941406 30.046875 53.699219 29.476562 53.460938 28.902344 L 53.367188 28.683594 L 53.582031 28.808594 C 54.1875 29.160156 54.796875 29.511719 55.410156 29.859375 C 55.496094 29.664062 55.617188 29.476562 55.761719 29.3125 C 54.839844 28.785156 53.90625 28.246094 52.980469 27.707031 L 52.957031 27.691406 L 52.949219 27.664062 C 52.460938 26.511719 51.980469 25.351562 51.492188 24.199219 C 51.3125 24.316406 51.117188 24.417969 50.914062 24.488281 C 51.28125 25.375 51.65625 26.273438 52.023438 27.160156 L 52.058594 27.238281 L 51.980469 27.273438 C 51.929688 27.289062 51.878906 27.324219 51.84375 27.367188 L 51.84375 27.375 C 50.40625 29.03125 48.96875 30.6875 47.535156 32.347656 C 47.507812 32.371094 47.492188 32.40625 47.472656 32.449219 C 47.269531 33.003906 47.070312 33.558594 46.867188 34.113281 L 46.789062 34.320312 L 46.710938 34.113281 C 46.003906 32.210938 45.292969 30.304688 44.582031 28.398438 L 44.566406 28.347656 L 44.609375 28.3125 C 45.996094 26.878906 47.378906 25.445312 48.773438 24.019531 C 48.613281 23.863281 48.476562 23.691406 48.363281 23.503906 C 46.902344 25.007812 45.445312 26.503906 43.992188 28.007812 L 43.984375 28.015625 L 43.976562 28.015625 C 41.855469 29.375 39.734375 30.730469 37.621094 32.089844 L 37.339844 32.269531 L 37.5 31.980469 C 38.902344 29.519531 40.304688 27.058594 41.699219 24.589844 C 41.503906 24.496094 41.324219 24.367188 41.171875 24.214844 C 39.742188 26.726562 38.3125 29.238281 36.886719 31.75 L 36.730469 32.023438 L 36.730469 31.714844 C 36.730469 28.964844 36.730469 26.203125 36.730469 23.453125 L 36.730469 23.386719 L 36.808594 23.378906 C 38.039062 23.242188 39.28125 23.105469 40.511719 22.976562 C 40.496094 22.863281 40.484375 22.746094 40.484375 22.632812 C 40.484375 22.53125 40.496094 22.421875 40.511719 22.316406 C 39.699219 22.402344 38.886719 22.496094 38.074219 22.582031 L 37.730469 22.617188 L 38.023438 22.4375 C 39.90625 21.214844 41.792969 19.996094 43.675781 18.78125 L 43.675781 18.773438 C 43.761719 18.730469 43.820312 18.652344 43.839844 18.558594 C 44.191406 16.945312 44.539062 15.332031 44.890625 13.714844 C 44.667969 13.691406 44.453125 13.640625 44.257812 13.554688 C 43.917969 15.117188 43.574219 16.6875 43.242188 18.261719 L 43.230469 18.292969 L 43.207031 18.3125 C 41.085938 19.679688 38.972656 21.046875 36.859375 22.410156 L 36.730469 22.496094 L 36.730469 22.34375 C 36.730469 17.808594 36.730469 13.261719 36.730469 8.726562 L 36.730469 8.609375 L 36.84375 8.652344 C 38.902344 9.429688 40.964844 10.207031 43.027344 10.984375 C 43.078125 10.769531 43.171875 10.574219 43.28125 10.386719 C 41.117188 9.566406 38.957031 8.753906 36.78125 7.933594 L 36.730469 7.917969 L 36.730469 7.855469 C 36.730469 6.824219 36.730469 5.78125 36.730469 4.746094 L 36.730469 4.722656 L 36.75 4.695312 C 37.929688 3.082031 39.5625 2.015625 41.539062 1.664062 C 42.992188 1.398438 44.515625 1.554688 45.910156 2.023438 C 46.4375 2.203125 46.960938 2.425781 47.449219 2.699219 L 47.507812 2.730469 L 47.480469 2.792969 C 46.78125 4.988281 46.070312 7.183594 45.363281 9.386719 C 45.582031 9.402344 45.796875 9.460938 45.996094 9.546875 C 46.609375 7.625 47.226562 5.710938 47.851562 3.789062 L 47.917969 3.570312 L 48.003906 3.789062 C 49.246094 7.097656 50.484375 10.402344 51.714844 13.707031 C 51.902344 13.597656 52.109375 13.519531 52.324219 13.46875 C 51.109375 10.222656 49.894531 6.976562 48.671875 3.738281 L 48.558594 3.433594 L 48.808594 3.644531 C 48.96875 3.800781 49.140625 3.953125 49.285156 4.125 C 50.003906 4.894531 50.535156 5.890625 50.449219 6.96875 C 50.441406 7.148438 50.578125 7.300781 50.75 7.320312 C 50.800781 7.320312 50.84375 7.308594 50.886719 7.300781 L 50.886719 7.292969 L 50.894531 7.292969 C 51.332031 7.183594 51.851562 7.25 52.289062 7.351562 C 53.453125 7.625 54.597656 8.308594 55.496094 9.09375 L 55.539062 9.128906 L 55.515625 9.1875 C 55.503906 9.207031 55.496094 9.222656 55.488281 9.25 C 54.863281 10.683594 54.230469 12.121094 53.597656 13.554688 C 53.8125 13.640625 54.015625 13.75 54.1875 13.894531 C 54.796875 12.503906 55.394531 11.109375 55.992188 9.726562 L 56.042969 9.609375 L 56.128906 9.703125 C 57.042969 10.675781 57.71875 11.847656 58.078125 13.144531 C 58.464844 14.5625 58.429688 16.03125 58.089844 17.457031 C 58.046875 17.628906 58.15625 17.808594 58.335938 17.851562 C 58.34375 17.851562 58.363281 17.859375 58.371094 17.859375 L 58.378906 17.859375 C 59.414062 18.046875 60.449219 18.328125 61.414062 18.746094 C 62.878906 19.371094 64.160156 20.328125 64.878906 21.789062 C 65.117188 22.285156 65.289062 22.8125 65.382812 23.359375 L 65.402344 23.453125 L 65.304688 23.453125 C 65.230469 23.460938 65.160156 23.488281 65.101562 23.539062 C 63.511719 24.964844 61.921875 26.390625 60.320312 27.828125 L 60.253906 27.894531 L 60.199219 27.808594 C 58.164062 24.324219 56.128906 20.847656 54.101562 17.363281 C 53.921875 17.492188 53.726562 17.59375 53.519531 17.664062 Z M 64.375 43.878906 C 65.058594 42.886719 65.75 41.90625 66.4375 40.914062 C 66.503906 40.8125 66.511719 40.683594 66.453125 40.570312 C 64.734375 36.933594 63.007812 33.304688 61.277344 29.664062 C 61.277344 29.65625 61.269531 29.648438 61.261719 29.628906 C 61.046875 29.261719 60.832031 28.894531 60.621094 28.527344 L 60.585938 28.46875 L 60.636719 28.425781 C 62.203125 27.015625 63.777344 25.605469 65.339844 24.199219 L 65.46875 24.078125 L 65.476562 24.25 C 65.519531 25.027344 65.445312 25.8125 65.304688 26.570312 C 65.050781 27.964844 64.570312 29.339844 64.007812 30.628906 C 63.945312 30.785156 64.007812 30.960938 64.144531 31.039062 L 64.152344 31.046875 C 64.9375 31.550781 65.667969 32.175781 66.28125 32.886719 C 67.316406 34.082031 68.078125 35.539062 68.308594 37.121094 C 68.566406 38.847656 68.144531 40.496094 67.214844 41.957031 C 66.699219 42.75 66.058594 43.460938 65.347656 44.082031 L 65.332031 44.101562 L 65.296875 44.109375 C 65.101562 44.125 64.90625 44.140625 64.707031 44.152344 L 64.664062 44.160156 L 64.640625 44.125 C 64.589844 44.058594 64.511719 44.015625 64.425781 44.007812 L 64.296875 43.988281 Z M 36.773438 33.40625 C 39.160156 31.875 41.554688 30.347656 43.941406 28.816406 L 44.027344 28.757812 L 44.0625 28.851562 C 44.855469 30.980469 45.644531 33.105469 46.4375 35.234375 L 46.449219 35.257812 L 46.4375 35.285156 C 45.953125 36.617188 45.464844 37.957031 44.976562 39.289062 L 44.960938 39.339844 L 44.898438 39.339844 C 42.308594 39.496094 39.707031 39.648438 37.109375 39.804688 C 37.015625 39.8125 36.9375 39.855469 36.875 39.921875 L 36.730469 40.09375 L 36.730469 39.871094 C 36.730469 37.738281 36.730469 35.609375 36.730469 33.472656 L 36.730469 33.429688 Z M 65.410156 44.75 L 65.488281 44.738281 C 65.554688 44.730469 65.621094 44.707031 65.675781 44.664062 C 66.46875 43.972656 67.1875 43.195312 67.761719 42.304688 C 68.789062 40.710938 69.234375 38.914062 68.957031 37.027344 C 68.710938 35.328125 67.890625 33.753906 66.769531 32.464844 C 66.1875 31.789062 65.511719 31.183594 64.769531 30.671875 L 64.714844 30.636719 L 64.742188 30.578125 C 65.265625 29.332031 65.699219 28.023438 65.949219 26.691406 C 66.265625 24.964844 66.246094 23.113281 65.460938 21.507812 C 64.675781 19.902344 63.289062 18.839844 61.671875 18.140625 C 60.78125 17.757812 59.832031 17.492188 58.875 17.296875 L 58.796875 17.277344 L 58.816406 17.203125 C 59.097656 15.792969 59.082031 14.355469 58.703125 12.972656 C 58.25 11.324219 57.320312 9.871094 56.0625 8.726562 C 55.070312 7.824219 53.761719 7.035156 52.441406 6.71875 C 52.042969 6.628906 51.605469 6.566406 51.195312 6.59375 L 51.109375 6.601562 L 51.109375 6.523438 C 51.039062 5.4375 50.492188 4.464844 49.773438 3.679688 C 49.277344 3.140625 48.695312 2.6875 48.074219 2.3125 C 48.066406 2.304688 48.066406 2.304688 48.054688 2.296875 L 48.046875 2.296875 C 47.441406 1.929688 46.789062 1.628906 46.113281 1.40625 C 44.617188 0.902344 42.984375 0.742188 41.417969 1.023438 C 39.238281 1.417969 37.449219 2.605469 36.167969 4.398438 L 36.15625 4.40625 C 36.105469 4.464844 36.082031 4.542969 36.082031 4.621094 C 36.082031 5.789062 36.082031 6.96875 36.082031 8.136719 C 36.082031 13.128906 36.082031 18.105469 36.082031 23.09375 C 36.082031 35.019531 36.082031 46.953125 36.082031 58.878906 L 36.082031 58.964844 C 36.082031 59.058594 36.125 59.152344 36.199219 59.210938 C 37.5625 60.355469 39.09375 61.355469 40.769531 61.96875 L 40.769531 61.976562 C 40.785156 61.976562 40.792969 61.988281 40.8125 61.988281 C 41.957031 62.40625 43.15625 62.625 44.378906 62.617188 C 47.542969 62.585938 50.304688 60.96875 52.597656 58.910156 L 52.632812 58.886719 L 52.664062 58.886719 C 54.941406 59.328125 57.292969 59.183594 59.441406 58.269531 C 60.960938 57.613281 62.304688 56.605469 63.339844 55.316406 C 64.375 54.042969 65.074219 52.53125 65.410156 50.925781 C 65.828125 48.910156 65.648438 46.824219 64.957031 44.894531 L 64.914062 44.792969 L 65.023438 44.785156 C 65.152344 44.773438 65.28125 44.757812 65.410156 44.75 " fill-opacity="1" fill-rule="evenodd"/></g></g></g></g><g clip-path="url(#8eb9173403)"><path fill="#000000" d="M 43.273438 37.796875 C 45.269531 38.15625 46.902344 39.242188 48.074219 40.886719 L 48.082031 40.894531 C 48.128906 40.949219 48.152344 41.015625 48.152344 41.089844 C 48.152344 42.160156 48.152344 43.238281 48.152344 44.308594 C 48.152344 48.878906 48.152344 53.4375 48.152344 58.007812 C 48.152344 68.925781 48.152344 79.851562 48.152344 90.769531 L 48.152344 90.847656 C 48.152344 90.933594 48.113281 91.019531 48.042969 91.074219 C 46.800781 92.121094 45.402344 93.039062 43.867188 93.601562 L 43.867188 93.609375 C 43.851562 93.609375 43.84375 93.617188 43.828125 93.617188 C 42.78125 94 41.6875 94.203125 40.570312 94.195312 C 37.675781 94.164062 35.152344 92.6875 33.058594 90.800781 L 33.027344 90.777344 L 32.996094 90.777344 C 30.914062 91.183594 28.765625 91.050781 26.800781 90.214844 C 25.410156 89.613281 24.183594 88.6875 23.238281 87.507812 C 22.292969 86.34375 21.652344 84.957031 21.34375 83.488281 C 20.960938 81.640625 21.125 79.734375 21.761719 77.964844 L 21.800781 77.871094 L 21.699219 77.863281 C 21.582031 77.855469 21.464844 77.839844 21.34375 77.832031 L 21.273438 77.824219 C 21.210938 77.816406 21.148438 77.792969 21.101562 77.753906 C 20.375 77.121094 19.71875 76.410156 19.195312 75.597656 C 18.257812 74.132812 17.851562 72.492188 18.101562 70.761719 C 18.328125 69.207031 19.078125 67.765625 20.101562 66.585938 C 20.632812 65.96875 21.25 65.414062 21.933594 64.945312 L 21.980469 64.910156 L 21.957031 64.855469 C 21.480469 63.714844 21.078125 62.519531 20.851562 61.300781 C 20.5625 59.71875 20.578125 58.023438 21.300781 56.550781 C 22.019531 55.082031 23.285156 54.109375 24.761719 53.46875 C 25.574219 53.117188 26.441406 52.875 27.320312 52.695312 L 27.390625 52.679688 L 27.375 52.609375 C 27.117188 51.316406 27.132812 50.003906 27.476562 48.738281 C 27.890625 47.226562 28.742188 45.898438 29.890625 44.851562 C 30.796875 44.019531 31.992188 43.300781 33.199219 43.011719 C 33.566406 42.925781 33.964844 42.871094 34.339844 42.894531 L 34.417969 42.902344 L 34.417969 42.832031 C 34.480469 41.839844 34.980469 40.949219 35.636719 40.226562 C 36.089844 39.734375 36.621094 39.320312 37.191406 38.976562 C 37.199219 38.96875 37.199219 38.96875 37.207031 38.960938 L 37.214844 38.960938 C 37.769531 38.625 38.363281 38.351562 38.984375 38.148438 C 40.351562 37.6875 41.84375 37.535156 43.273438 37.796875 Z M 71.652344 82.613281 C 72.464844 82.613281 73.128906 83.269531 73.128906 84.089844 C 73.128906 84.902344 72.464844 85.570312 71.652344 85.570312 C 70.839844 85.570312 70.171875 84.902344 70.171875 84.089844 C 70.171875 83.269531 70.839844 82.613281 71.652344 82.613281 Z M 57.679688 76.269531 C 58.492188 76.269531 59.15625 76.933594 59.15625 77.746094 C 59.15625 78.5625 58.492188 79.226562 57.679688 79.226562 C 56.867188 79.226562 56.203125 78.5625 56.203125 77.746094 C 56.203125 76.933594 56.867188 76.269531 57.679688 76.269531 Z M 60.722656 84.753906 C 61.542969 84.753906 62.199219 85.414062 62.199219 86.234375 C 62.199219 87.046875 61.542969 87.703125 60.722656 87.703125 C 59.910156 87.703125 59.25 87.046875 59.25 86.234375 C 59.25 85.414062 59.910156 84.753906 60.722656 84.753906 Z M 71.253906 76.769531 C 72.066406 76.769531 72.730469 77.425781 72.730469 78.238281 C 72.730469 79.0625 72.066406 79.71875 71.253906 79.71875 C 70.4375 79.71875 69.773438 79.0625 69.773438 78.238281 C 69.773438 77.425781 70.4375 76.769531 71.253906 76.769531 Z M 70.390625 63.542969 C 71.207031 63.542969 71.871094 64.207031 71.871094 65.023438 C 71.871094 65.835938 71.207031 66.5 70.390625 66.5 C 69.570312 66.5 68.914062 65.835938 68.914062 65.023438 C 68.914062 64.207031 69.570312 63.542969 70.390625 63.542969 Z M 61.980469 70.332031 C 62.792969 70.332031 63.449219 70.996094 63.449219 71.8125 C 63.449219 72.625 62.792969 73.289062 61.980469 73.289062 C 61.160156 73.289062 60.503906 72.625 60.503906 71.8125 C 60.503906 70.996094 61.160156 70.332031 61.980469 70.332031 Z M 56.929688 56.113281 C 57.742188 56.113281 58.398438 56.769531 58.398438 57.582031 C 58.398438 58.40625 57.742188 59.0625 56.929688 59.0625 C 56.109375 59.0625 55.453125 58.40625 55.453125 57.582031 C 55.453125 56.769531 56.109375 56.113281 56.929688 56.113281 Z M 63.847656 55.894531 C 64.660156 55.894531 65.328125 56.558594 65.328125 57.371094 C 65.328125 58.1875 64.660156 58.851562 63.847656 58.851562 C 63.035156 58.851562 62.371094 58.1875 62.371094 57.371094 C 62.371094 56.558594 63.035156 55.894531 63.847656 55.894531 Z M 66.210938 49.660156 C 67.023438 49.660156 67.679688 50.316406 67.679688 51.140625 C 67.679688 51.953125 67.023438 52.617188 66.210938 52.617188 C 65.390625 52.617188 64.730469 51.953125 64.730469 51.140625 C 64.730469 50.316406 65.390625 49.660156 66.210938 49.660156 Z M 59.171875 45.960938 C 59.988281 45.960938 60.652344 46.617188 60.652344 47.4375 C 60.652344 48.253906 59.988281 48.910156 59.171875 48.910156 C 58.359375 48.910156 57.695312 48.253906 57.695312 47.4375 C 57.695312 46.617188 58.359375 45.960938 59.171875 45.960938 Z M 64.261719 50.660156 C 64.308594 50.464844 64.386719 50.277344 64.496094 50.105469 C 63.347656 49.441406 62.207031 48.769531 61.058594 48.097656 C 60.996094 48.285156 60.902344 48.464844 60.785156 48.621094 C 61.941406 49.300781 63.105469 49.980469 64.261719 50.660156 Z M 58.921875 57.582031 C 59.902344 57.535156 60.878906 57.480469 61.855469 57.433594 C 61.855469 57.410156 61.855469 57.394531 61.855469 57.371094 C 61.855469 57.191406 61.878906 57.011719 61.925781 56.832031 C 60.894531 56.886719 59.863281 56.941406 58.828125 56.988281 C 58.890625 57.183594 58.921875 57.378906 58.921875 57.582031 Z M 59.585938 84.589844 C 59.75 84.472656 59.933594 84.386719 60.128906 84.324219 C 59.601562 82.730469 59.070312 81.140625 58.546875 79.546875 C 58.367188 79.632812 58.179688 79.695312 57.976562 79.726562 C 58.515625 81.34375 59.046875 82.964844 59.585938 84.589844 Z M 61.011719 73.5625 C 60.839844 73.460938 60.675781 73.34375 60.542969 73.195312 C 59.910156 74.132812 59.277344 75.0625 58.640625 76.003906 C 58.820312 76.097656 58.976562 76.222656 59.117188 76.363281 C 59.75 75.433594 60.386719 74.492188 61.011719 73.5625 Z M 69.8125 79.625 C 69.671875 79.484375 69.554688 79.320312 69.46875 79.140625 C 67.023438 81.03125 64.574219 82.925781 62.128906 84.808594 C 62.269531 84.949219 62.394531 85.113281 62.488281 85.289062 C 64.929688 83.402344 67.367188 81.515625 69.8125 79.625 Z M 70.945312 76.269531 C 70.375 74.804688 69.804688 73.351562 69.234375 71.890625 L 69.226562 71.875 L 69.234375 71.851562 C 69.617188 70.238281 69.992188 68.628906 70.375 67.015625 C 70.171875 67.015625 69.976562 66.984375 69.78125 66.921875 C 69.398438 68.558594 69.015625 70.191406 68.632812 71.828125 C 68.617188 71.882812 68.617188 71.945312 68.640625 72 C 69.21875 73.484375 69.796875 74.960938 70.375 76.449219 C 70.554688 76.363281 70.75 76.300781 70.945312 76.269531 Z M 63.683594 72.84375 C 63.582031 73.015625 63.449219 73.171875 63.300781 73.304688 C 65.363281 74.625 67.4375 75.949219 69.507812 77.269531 C 69.609375 77.089844 69.726562 76.933594 69.875 76.800781 C 67.8125 75.480469 65.75 74.164062 63.683594 72.84375 Z M 65.890625 53.109375 C 65.6875 53.078125 65.496094 53.015625 65.320312 52.921875 C 64.949219 53.75 64.589844 54.582031 64.230469 55.410156 C 64.425781 55.449219 64.613281 55.519531 64.792969 55.613281 C 65.152344 54.777344 65.523438 53.945312 65.890625 53.109375 Z M 69.796875 84.675781 C 69.734375 84.488281 69.703125 84.285156 69.703125 84.089844 L 62.636719 85.664062 C 62.691406 85.84375 62.722656 86.039062 62.722656 86.234375 C 62.722656 86.234375 62.722656 86.242188 62.722656 86.25 Z M 66.84375 53.03125 C 68.734375 56.269531 70.617188 59.515625 72.511719 62.753906 L 72.542969 62.808594 L 72.496094 62.847656 C 72.238281 63.074219 71.980469 63.308594 71.730469 63.535156 C 71.878906 63.667969 72.003906 63.824219 72.105469 63.996094 C 72.332031 63.792969 72.558594 63.589844 72.777344 63.394531 L 72.847656 63.332031 L 72.894531 63.410156 C 73.066406 63.699219 73.230469 63.988281 73.402344 64.285156 C 74.949219 67.554688 76.496094 70.816406 78.046875 74.085938 L 78.0625 74.125 L 78.039062 74.15625 C 77.289062 75.230469 76.542969 76.300781 75.800781 77.371094 L 75.777344 77.402344 L 75.746094 77.402344 C 74.878906 77.472656 74.011719 77.550781 73.152344 77.621094 C 73.214844 77.816406 73.246094 78.011719 73.246094 78.214844 C 73.894531 78.160156 74.535156 78.105469 75.175781 78.050781 L 75.339844 78.035156 L 72.378906 82.285156 C 72.566406 82.363281 72.738281 82.464844 72.894531 82.589844 L 76.105469 77.972656 L 76.144531 77.964844 C 76.292969 77.957031 76.433594 77.941406 76.585938 77.925781 L 76.640625 77.925781 L 76.660156 77.972656 C 77.3125 79.695312 77.507812 81.5625 77.132812 83.371094 C 76.84375 84.746094 76.238281 86.039062 75.355469 87.132812 C 75.066406 87.5 74.746094 87.835938 74.402344 88.148438 L 74.332031 88.210938 L 72.847656 85.625 C 72.691406 85.75 72.519531 85.84375 72.332031 85.914062 L 73.863281 88.585938 L 73.816406 88.628906 C 73.261719 89.042969 72.652344 89.394531 72.019531 89.667969 C 70.109375 90.480469 68.007812 90.582031 66 90.160156 C 65.90625 90.144531 65.804688 90.167969 65.734375 90.230469 C 63.730469 92.074219 61.277344 93.570312 58.476562 93.601562 C 57.601562 93.609375 56.734375 93.476562 55.898438 93.21875 L 55.796875 93.1875 L 55.859375 93.101562 C 57.148438 91.386719 58.4375 89.675781 59.730469 87.960938 C 59.558594 87.859375 59.398438 87.734375 59.265625 87.59375 C 57.921875 89.371094 56.578125 91.152344 55.242188 92.929688 L 55.203125 92.976562 L 55.148438 92.953125 C 53.835938 92.429688 52.613281 91.636719 51.527344 90.730469 L 51.496094 90.707031 L 51.496094 90.675781 C 51.496094 86.742188 51.496094 82.808594 51.496094 78.882812 L 51.496094 78.8125 L 51.566406 78.804688 C 52.972656 78.671875 54.382812 78.535156 55.796875 78.40625 C 55.726562 78.214844 55.695312 78.019531 55.6875 77.816406 C 54.320312 77.949219 52.949219 78.074219 51.582031 78.207031 L 51.496094 78.214844 L 51.496094 78.128906 C 51.496094 76.699219 51.496094 75.277344 51.496094 73.84375 L 51.496094 73.640625 L 51.628906 73.796875 C 51.691406 73.867188 51.777344 73.90625 51.871094 73.898438 C 54.335938 73.75 56.789062 73.609375 59.242188 73.460938 C 59.359375 73.453125 59.460938 73.375 59.5 73.265625 C 59.664062 72.828125 59.824219 72.390625 59.988281 71.953125 C 59.980469 71.90625 59.980469 71.859375 59.980469 71.8125 C 59.980469 71.285156 60.183594 70.792969 60.542969 70.417969 C 60.574219 70.347656 60.597656 70.269531 60.628906 70.191406 L 60.699219 70.003906 L 60.769531 70.191406 C 60.769531 70.199219 60.769531 70.207031 60.777344 70.214844 C 60.933594 70.097656 61.113281 69.996094 61.300781 69.933594 C 61.207031 69.675781 61.113281 69.425781 61.019531 69.167969 L 61.011719 69.144531 L 61.019531 69.121094 C 61.292969 68.355469 61.574219 67.59375 61.847656 66.835938 L 61.855469 66.820312 L 61.863281 66.8125 C 63.097656 65.390625 64.332031 63.957031 65.570312 62.535156 L 65.609375 62.488281 L 65.664062 62.519531 C 65.71875 62.550781 65.773438 62.582031 65.835938 62.621094 L 65.859375 62.628906 L 65.867188 62.652344 C 66.179688 63.417969 66.5 64.175781 66.820312 64.9375 L 66.835938 64.976562 L 66.804688 65.015625 C 65.496094 66.679688 64.183594 68.355469 62.871094 70.027344 C 63.050781 70.113281 63.214844 70.230469 63.363281 70.371094 C 64.707031 68.652344 66.0625 66.929688 67.414062 65.210938 C 67.476562 65.125 67.492188 65 67.445312 64.898438 C 67.226562 64.371094 67.007812 63.847656 66.789062 63.324219 L 66.703125 63.121094 L 66.898438 63.238281 C 67.453125 63.558594 68.007812 63.878906 68.570312 64.199219 C 68.648438 64.019531 68.757812 63.847656 68.890625 63.699219 C 68.046875 63.214844 67.195312 62.722656 66.351562 62.230469 L 66.328125 62.214844 L 66.320312 62.191406 C 65.875 61.132812 65.4375 60.070312 64.988281 59.015625 C 64.824219 59.125 64.644531 59.21875 64.457031 59.28125 C 64.792969 60.09375 65.140625 60.914062 65.476562 61.730469 L 65.507812 61.800781 L 65.4375 61.832031 C 65.390625 61.847656 65.339844 61.878906 65.308594 61.917969 L 65.308594 61.925781 C 63.996094 63.441406 62.683594 64.960938 61.371094 66.476562 C 61.347656 66.5 61.332031 66.53125 61.316406 66.570312 C 61.128906 67.078125 60.949219 67.585938 60.761719 68.09375 L 60.691406 68.28125 L 60.621094 68.09375 C 59.972656 66.351562 59.320312 64.605469 58.671875 62.863281 L 58.65625 62.816406 L 58.695312 62.785156 C 59.964844 61.46875 61.230469 60.15625 62.503906 58.851562 C 62.355469 58.710938 62.230469 58.554688 62.128906 58.382812 C 60.792969 59.757812 59.460938 61.125 58.132812 62.503906 L 58.125 62.511719 L 58.117188 62.511719 C 56.179688 63.753906 54.238281 65 52.308594 66.242188 L 52.050781 66.40625 L 52.199219 66.140625 C 53.480469 63.886719 54.765625 61.636719 56.039062 59.375 C 55.859375 59.289062 55.695312 59.171875 55.554688 59.03125 C 54.25 61.328125 52.941406 63.628906 51.636719 65.929688 L 51.496094 66.179688 L 51.496094 65.898438 C 51.496094 63.378906 51.496094 60.851562 51.496094 58.335938 L 51.496094 58.273438 L 51.566406 58.265625 C 52.691406 58.140625 53.828125 58.015625 54.953125 57.894531 C 54.9375 57.792969 54.929688 57.683594 54.929688 57.582031 C 54.929688 57.488281 54.9375 57.386719 54.953125 57.292969 C 54.210938 57.371094 53.464844 57.457031 52.722656 57.535156 L 52.410156 57.566406 L 52.675781 57.402344 C 54.398438 56.285156 56.125 55.167969 57.84375 54.054688 L 57.84375 54.046875 C 57.921875 54.007812 57.976562 53.9375 57.992188 53.851562 C 58.3125 52.375 58.632812 50.894531 58.953125 49.417969 C 58.75 49.394531 58.554688 49.347656 58.375 49.269531 C 58.0625 50.699219 57.75 52.140625 57.445312 53.578125 L 57.4375 53.609375 L 57.414062 53.625 C 55.476562 54.878906 53.542969 56.128906 51.613281 57.378906 L 51.496094 57.457031 L 51.496094 57.316406 C 51.496094 53.164062 51.496094 49.003906 51.496094 44.851562 L 51.496094 44.742188 L 51.597656 44.78125 C 53.480469 45.492188 55.367188 46.203125 57.25 46.914062 C 57.296875 46.71875 57.382812 46.539062 57.484375 46.367188 C 55.507812 45.617188 53.53125 44.875 51.542969 44.121094 L 51.496094 44.105469 L 51.496094 44.050781 C 51.496094 43.105469 51.496094 42.152344 51.496094 41.207031 L 51.496094 41.183594 L 51.511719 41.160156 C 52.589844 39.679688 54.085938 38.703125 55.890625 38.382812 C 57.21875 38.140625 58.609375 38.28125 59.886719 38.710938 C 60.371094 38.875 60.847656 39.078125 61.292969 39.328125 L 61.347656 39.359375 L 61.324219 39.414062 C 60.683594 41.425781 60.035156 43.433594 59.386719 45.453125 C 59.585938 45.46875 59.785156 45.523438 59.964844 45.601562 C 60.527344 43.839844 61.089844 42.089844 61.660156 40.328125 L 61.722656 40.125 L 61.800781 40.328125 C 62.933594 43.355469 64.066406 46.382812 65.191406 49.410156 C 65.363281 49.308594 65.554688 49.238281 65.75 49.191406 C 64.636719 46.21875 63.527344 43.246094 62.410156 40.28125 L 62.308594 40 L 62.535156 40.195312 C 62.683594 40.335938 62.839844 40.476562 62.972656 40.632812 C 63.628906 41.339844 64.113281 42.253906 64.035156 43.238281 C 64.027344 43.402344 64.152344 43.542969 64.308594 43.558594 C 64.355469 43.558594 64.394531 43.550781 64.433594 43.542969 L 64.433594 43.535156 L 64.441406 43.535156 C 64.839844 43.433594 65.320312 43.496094 65.71875 43.589844 C 66.78125 43.839844 67.828125 44.46875 68.648438 45.1875 L 68.6875 45.21875 L 68.664062 45.273438 C 68.65625 45.289062 68.648438 45.304688 68.640625 45.328125 C 68.070312 46.640625 67.492188 47.957031 66.914062 49.269531 C 67.109375 49.347656 67.296875 49.449219 67.453125 49.582031 C 68.007812 48.308594 68.554688 47.03125 69.101562 45.765625 L 69.148438 45.65625 L 69.226562 45.742188 C 70.0625 46.632812 70.683594 47.703125 71.007812 48.894531 C 71.363281 50.191406 71.332031 51.539062 71.019531 52.84375 C 70.980469 53 71.082031 53.164062 71.242188 53.203125 C 71.253906 53.203125 71.269531 53.210938 71.277344 53.210938 L 71.285156 53.210938 C 72.230469 53.382812 73.175781 53.640625 74.058594 54.023438 C 75.394531 54.597656 76.566406 55.472656 77.226562 56.808594 C 77.445312 57.261719 77.601562 57.746094 77.6875 58.25 L 77.703125 58.335938 L 77.617188 58.335938 C 77.546875 58.34375 77.484375 58.367188 77.429688 58.414062 C 75.972656 59.71875 74.519531 61.023438 73.058594 62.339844 L 72.996094 62.402344 L 72.949219 62.324219 C 71.089844 59.132812 69.226562 55.949219 67.375 52.757812 C 67.210938 52.875 67.03125 52.96875 66.84375 53.03125 Z M 76.761719 77.035156 C 77.390625 76.128906 78.023438 75.230469 78.648438 74.320312 C 78.710938 74.226562 78.71875 74.109375 78.664062 74.007812 C 77.09375 70.675781 75.511719 67.351562 73.933594 64.019531 C 73.933594 64.011719 73.925781 64.003906 73.917969 63.988281 C 73.722656 63.652344 73.527344 63.316406 73.332031 62.980469 L 73.300781 62.925781 L 73.347656 62.886719 C 74.777344 61.597656 76.214844 60.304688 77.648438 59.015625 L 77.765625 58.90625 L 77.773438 59.0625 C 77.8125 59.773438 77.742188 60.492188 77.617188 61.1875 C 77.382812 62.464844 76.945312 63.722656 76.425781 64.902344 C 76.371094 65.046875 76.425781 65.210938 76.550781 65.28125 L 76.558594 65.289062 C 77.28125 65.75 77.945312 66.320312 78.507812 66.96875 C 79.453125 68.066406 80.148438 69.402344 80.359375 70.847656 C 80.59375 72.429688 80.210938 73.9375 79.359375 75.277344 C 78.890625 76.003906 78.304688 76.652344 77.65625 77.222656 L 77.640625 77.238281 L 77.609375 77.246094 C 77.429688 77.261719 77.25 77.277344 77.070312 77.285156 L 77.03125 77.292969 L 77.007812 77.261719 C 76.960938 77.199219 76.890625 77.160156 76.808594 77.152344 L 76.695312 77.136719 Z M 51.535156 67.445312 C 53.714844 66.046875 55.90625 64.644531 58.085938 63.246094 L 58.164062 63.191406 L 58.195312 63.277344 C 58.921875 65.226562 59.640625 67.171875 60.371094 69.121094 L 60.378906 69.144531 L 60.371094 69.167969 C 59.925781 70.386719 59.480469 71.613281 59.03125 72.835938 L 59.015625 72.882812 L 58.960938 72.882812 C 56.59375 73.023438 54.21875 73.164062 51.839844 73.304688 C 51.753906 73.3125 51.683594 73.351562 51.628906 73.414062 L 51.496094 73.570312 L 51.496094 73.367188 C 51.496094 71.414062 51.496094 69.464844 51.496094 67.507812 L 51.496094 67.46875 Z M 77.710938 77.832031 L 77.78125 77.824219 C 77.84375 77.816406 77.90625 77.792969 77.953125 77.753906 C 78.679688 77.121094 79.335938 76.410156 79.859375 75.597656 C 80.796875 74.132812 81.203125 72.492188 80.953125 70.761719 C 80.726562 69.207031 79.976562 67.765625 78.953125 66.585938 C 78.421875 65.96875 77.804688 65.414062 77.125 64.945312 L 77.078125 64.910156 L 77.097656 64.855469 C 77.578125 63.714844 77.976562 62.519531 78.203125 61.300781 C 78.492188 59.71875 78.476562 58.023438 77.757812 56.550781 C 77.039062 55.082031 75.769531 54.109375 74.292969 53.46875 C 73.480469 53.117188 72.613281 52.875 71.738281 52.695312 L 71.667969 52.679688 L 71.683594 52.609375 C 71.941406 51.316406 71.925781 50.003906 71.582031 48.738281 C 71.167969 47.226562 70.3125 45.898438 69.164062 44.851562 C 68.257812 44.019531 67.0625 43.300781 65.859375 43.011719 C 65.492188 42.925781 65.089844 42.871094 64.714844 42.894531 L 64.636719 42.902344 L 64.636719 42.832031 C 64.574219 41.839844 64.074219 40.949219 63.417969 40.226562 C 62.964844 39.734375 62.433594 39.320312 61.863281 38.976562 C 61.855469 38.96875 61.855469 38.96875 61.847656 38.960938 L 61.839844 38.960938 C 61.285156 38.625 60.691406 38.351562 60.074219 38.148438 C 58.703125 37.6875 57.210938 37.535156 55.78125 37.796875 C 53.785156 38.15625 52.152344 39.242188 50.980469 40.886719 L 50.972656 40.894531 C 50.925781 40.949219 50.902344 41.015625 50.902344 41.089844 C 50.902344 42.160156 50.902344 43.238281 50.902344 44.308594 C 50.902344 48.878906 50.902344 53.4375 50.902344 58.007812 C 50.902344 68.925781 50.902344 79.851562 50.902344 90.769531 L 50.902344 90.847656 C 50.902344 90.933594 50.941406 91.019531 51.011719 91.074219 C 52.253906 92.121094 53.652344 93.039062 55.1875 93.601562 L 55.1875 93.609375 C 55.203125 93.609375 55.210938 93.617188 55.226562 93.617188 C 56.273438 94 57.367188 94.203125 58.484375 94.195312 C 61.378906 94.164062 63.902344 92.6875 66 90.800781 L 66.03125 90.777344 L 66.0625 90.777344 C 68.140625 91.183594 70.289062 91.050781 72.253906 90.214844 C 73.644531 89.613281 74.871094 88.6875 75.816406 87.507812 C 76.761719 86.34375 77.40625 84.957031 77.710938 83.488281 C 78.09375 81.640625 77.929688 79.734375 77.296875 77.964844 L 77.257812 77.871094 L 77.359375 77.863281 C 77.476562 77.855469 77.59375 77.839844 77.710938 77.832031 " fill-opacity="1" fill-rule="evenodd"/></g></svg>