<svg xmlns="http://www.w3.org/2000/svg" xmlns:xlink="http://www.w3.org/1999/xlink" width="1600" zoomAndPan="magnify" viewBox="0 0 1200 449.999984" height="600" preserveAspectRatio="xMidYMid meet" version="1.0"><defs><g/><clipPath id="3e4f52ee98"><path d="M 202.050781 115.238281 L 247.707031 115.238281 L 247.707031 160.894531 L 202.050781 160.894531 Z M 202.050781 115.238281 " clip-rule="nonzero"/></clipPath><clipPath id="7b234efe5f"><path d="M 224.878906 115.238281 C 212.269531 115.238281 202.050781 125.460938 202.050781 138.066406 C 202.050781 150.675781 212.269531 160.894531 224.878906 160.894531 C 237.484375 160.894531 247.707031 150.675781 247.707031 138.066406 C 247.707031 125.460938 237.484375 115.238281 224.878906 115.238281 Z M 224.878906 115.238281 " clip-rule="nonzero"/></clipPath><clipPath id="6091184b4e"><path d="M 230.9375 210.664062 L 276.59375 210.664062 L 276.59375 256.320312 L 230.9375 256.320312 Z M 230.9375 210.664062 " clip-rule="nonzero"/></clipPath><clipPath id="51f56c2b44"><path d="M 253.765625 210.664062 C 241.160156 210.664062 230.9375 220.886719 230.9375 233.492188 C 230.9375 246.101562 241.160156 256.320312 253.765625 256.320312 C 266.375 256.320312 276.59375 246.101562 276.59375 233.492188 C 276.59375 220.886719 266.375 210.664062 253.765625 210.664062 Z M 253.765625 210.664062 " clip-rule="nonzero"/></clipPath><clipPath id="cf814a7bdc"><path d="M 201 295 L 248 295 L 248 342 L 201 342 Z M 201 295 " clip-rule="nonzero"/></clipPath><clipPath id="71676401bb"><path d="M 257.027344 318.304688 L 224.679688 350.65625 L 192.328125 318.304688 L 224.679688 285.957031 Z M 257.027344 318.304688 " clip-rule="nonzero"/></clipPath><clipPath id="0ba7046f0a"><path d="M 257.027344 318.304688 L 224.746094 350.589844 L 192.460938 318.304688 L 224.746094 286.023438 Z M 257.027344 318.304688 " clip-rule="nonzero"/></clipPath><clipPath id="dbe10c97cc"><path d="M 240.886719 334.449219 C 249.800781 325.535156 249.800781 311.078125 240.886719 302.164062 C 231.972656 293.25 217.519531 293.25 208.601562 302.164062 C 199.6875 311.078125 199.6875 325.535156 208.601562 334.449219 C 217.519531 343.363281 231.972656 343.363281 240.886719 334.449219 Z M 240.886719 334.449219 " clip-rule="nonzero"/></clipPath><clipPath id="93257c2f36"><path d="M 199.511719 116.355469 L 245.167969 116.355469 L 245.167969 162.011719 L 199.511719 162.011719 Z M 199.511719 116.355469 " clip-rule="nonzero"/></clipPath><clipPath id="14692dc544"><path d="M 222.339844 116.355469 C 209.734375 116.355469 199.511719 126.578125 199.511719 139.183594 C 199.511719 151.792969 209.734375 162.011719 222.339844 162.011719 C 234.949219 162.011719 245.167969 151.792969 245.167969 139.183594 C 245.167969 126.578125 234.949219 116.355469 222.339844 116.355469 Z M 222.339844 116.355469 " clip-rule="nonzero"/></clipPath><clipPath id="37da5364cc"><path d="M 228.402344 211.785156 L 274.058594 211.785156 L 274.058594 257.441406 L 228.402344 257.441406 Z M 228.402344 211.785156 " clip-rule="nonzero"/></clipPath><clipPath id="0f1a74eb01"><path d="M 251.230469 211.785156 C 238.621094 211.785156 228.402344 222.003906 228.402344 234.613281 C 228.402344 247.21875 238.621094 257.441406 251.230469 257.441406 C 263.835938 257.441406 274.058594 247.21875 274.058594 234.613281 C 274.058594 222.003906 263.835938 211.785156 251.230469 211.785156 Z M 251.230469 211.785156 " clip-rule="nonzero"/></clipPath><clipPath id="5ed3650fc3"><path d="M 199 296 L 246 296 L 246 343 L 199 343 Z M 199 296 " clip-rule="nonzero"/></clipPath><clipPath id="876f3dc750"><path d="M 254.492188 319.425781 L 222.140625 351.773438 L 189.789062 319.425781 L 222.140625 287.074219 Z M 254.492188 319.425781 " clip-rule="nonzero"/></clipPath><clipPath id="b32f348b8d"><path d="M 254.492188 319.425781 L 222.207031 351.707031 L 189.921875 319.425781 L 222.207031 287.140625 Z M 254.492188 319.425781 " clip-rule="nonzero"/></clipPath><clipPath id="c15488d32a"><path d="M 238.347656 335.566406 C 247.265625 326.652344 247.265625 312.199219 238.347656 303.28125 C 229.433594 294.367188 214.980469 294.367188 206.066406 303.28125 C 197.152344 312.199219 197.152344 326.652344 206.066406 335.566406 C 214.980469 344.480469 229.433594 344.480469 238.347656 335.566406 Z M 238.347656 335.566406 " clip-rule="nonzero"/></clipPath><clipPath id="2c321373f9"><path d="M 41 108 L 169.429688 108 L 169.429688 345.710938 L 41 345.710938 Z M 41 108 " clip-rule="nonzero"/></clipPath><clipPath id="93cc5a1bcb"><path d="M 49 131.117188 L 156.476562 131.117188 L 156.476562 329.867188 L 49 329.867188 Z M 49 131.117188 " clip-rule="nonzero"/></clipPath><clipPath id="5e81d3886e"><path d="M 50.097656 151 L 145.347656 151 L 145.347656 326 L 50.097656 326 Z M 50.097656 151 " clip-rule="nonzero"/></clipPath></defs><g clip-path="url(#3e4f52ee98)"><g clip-path="url(#7b234efe5f)"><path stroke-linecap="butt" transform="matrix(0.75, 0, 0, 0.75, 202.049816, 115.238715)" fill="none" stroke-linejoin="miter" d="M 30.438789 -0.000578366 C 13.626288 -0.000578366 0.00128647 13.629631 0.00128647 30.436924 C 0.00128647 47.249425 13.626288 60.874426 30.438789 60.874426 C 47.246082 60.874426 60.876291 47.249425 60.876291 30.436924 C 60.876291 13.629631 47.246082 -0.000578366 30.438789 -0.000578366 Z M 30.438789 -0.000578366 " stroke="#d9d9d9" stroke-width="44" stroke-opacity="1" stroke-miterlimit="4"/></g></g><g clip-path="url(#6091184b4e)"><g clip-path="url(#51f56c2b44)"><path stroke-linecap="butt" transform="matrix(0.75, 0, 0, 0.75, 230.939212, 210.665873)" fill="none" stroke-linejoin="miter" d="M 30.43522 -0.00241426 C 13.627927 -0.00241426 -0.00228233 13.627795 -0.00228233 30.435088 C -0.00228233 47.247589 13.627927 60.87259 30.43522 60.87259 C 47.247721 60.87259 60.872722 47.247589 60.872722 30.435088 C 60.872722 13.627795 47.247721 -0.00241426 30.43522 -0.00241426 Z M 30.43522 -0.00241426 " stroke="#d9d9d9" stroke-width="44" stroke-opacity="1" stroke-miterlimit="4"/></g></g><g clip-path="url(#cf814a7bdc)"><g clip-path="url(#71676401bb)"><g clip-path="url(#0ba7046f0a)"><g clip-path="url(#dbe10c97cc)"><path stroke-linecap="butt" transform="matrix(-0.53033, 0.53033, -0.53033, -0.53033, 257.028693, 318.306362)" fill="none" stroke-linejoin="miter" d="M 30.43843 -0.00083248 C 13.629913 -0.00083248 -0.00030636 13.629387 -0.00030636 30.437904 C -0.00030636 47.246421 13.62623 60.872958 30.43843 60.876641 C 47.246948 60.876641 60.877167 47.246421 60.877167 30.437904 C 60.873484 13.625704 47.246948 -0.00083248 30.43843 -0.00083248 Z M 30.43843 -0.00083248 " stroke="#d9d9d9" stroke-width="44" stroke-opacity="1" stroke-miterlimit="4"/></g></g></g></g><path stroke-linecap="butt" transform="matrix(0.75, 0, 0, 0.75, 144.698506, 314.895621)" fill="none" stroke-linejoin="miter" d="M 86.58429 7.727714 L 7.615534 7.727714 C 7.553034 7.727714 7.50095 7.675631 7.50095 7.613131 C 7.50095 7.550631 7.553034 7.498547 7.615534 7.498547 L 29.698869 7.498547 " stroke="#d9d9d9" stroke-width="15" stroke-opacity="1" stroke-miterlimit="4"/><path stroke-linecap="butt" transform="matrix(0.75, 0, 0, 0.75, 163.117583, 134.492142)" fill="none" stroke-linejoin="miter" d="M 59.879685 7.500061 L 43.353642 7.500061 C 35.067183 7.500061 28.353641 14.213603 28.353641 22.500062 L 28.353641 43.843814 C 28.353641 47.604231 26.858849 51.208398 24.202599 53.869856 C 21.54114 56.526106 17.936973 58.020898 14.176557 58.020898 L -0.000527904 58.020898 " stroke="#d9d9d9" stroke-width="15" stroke-opacity="1" stroke-miterlimit="4"/><path stroke-linecap="butt" transform="matrix(0.75, 0, 0, 0.75, 161.238583, 212.003919)" fill="none" stroke-linejoin="miter" d="M 97.723564 31.937486 L 63.94752 31.937486 C 57.197519 31.937486 51.72356 26.468735 51.72356 19.718735 C 51.72356 12.968734 46.25481 7.499984 39.504809 7.499984 L -0.000402033 7.499984 " stroke="#d9d9d9" stroke-width="15" stroke-opacity="1" stroke-miterlimit="4"/><path stroke-linecap="butt" transform="matrix(0.75, 0, 0, 0.75, 216.498446, 159.962126)" fill="none" stroke-linejoin="miter" d="M 47.92395 79.644255 L 47.92395 50.868211 C 47.92395 42.581752 41.2052 35.86821 32.923949 35.86821 L 22.502073 35.86821 C 14.215614 35.86821 7.502072 29.149459 7.502072 20.868209 L 7.502072 -0.00158459 " stroke="#d9d9d9" stroke-width="15" stroke-opacity="1" stroke-miterlimit="4"/><path stroke-linecap="butt" transform="matrix(0.75, 0, 0, 0.75, 153.23497, 245.959433)" fill="none" stroke-linejoin="miter" d="M 7.499208 0.00200621 L 7.499208 17.262424 C 7.499208 25.543675 14.217958 32.262425 22.499209 32.262425 L 68.145046 32.262425 C 76.426296 32.262425 83.145047 38.975968 83.145047 47.262427 L 83.145047 81.673888 " stroke="#d9d9d9" stroke-width="15" stroke-opacity="1" stroke-miterlimit="4"/><path stroke-linecap="butt" transform="matrix(0.75, 0, 0, 0.75, 223.984413, 252.944923)" fill="none" stroke-linejoin="miter" d="M 7.49995 70.661984 L 7.49995 45.10469 C 7.49995 36.818231 14.213492 30.104689 22.499951 30.104689 L 22.973909 30.104689 C 31.260368 30.104689 37.973911 23.391147 37.973911 15.104688 L 37.973911 0.000519736 " stroke="#d9d9d9" stroke-width="15" stroke-opacity="1" stroke-miterlimit="4"/><g clip-path="url(#93257c2f36)"><g clip-path="url(#14692dc544)"><path stroke-linecap="butt" transform="matrix(0.75, 0, 0, 0.75, 199.512297, 116.356837)" fill="none" stroke-linejoin="miter" d="M 30.436732 -0.00182372 C 13.629439 -0.00182372 -0.000770458 13.628386 -0.000770458 30.435679 C -0.000770458 47.24818 13.629439 60.873181 30.436732 60.873181 C 47.249233 60.873181 60.874234 47.24818 60.874234 30.435679 C 60.874234 13.628386 47.249233 -0.00182372 30.436732 -0.00182372 Z M 30.436732 -0.00182372 " stroke="#ff3131" stroke-width="32" stroke-opacity="1" stroke-miterlimit="4"/></g></g><g clip-path="url(#37da5364cc)"><g clip-path="url(#0f1a74eb01)"><path stroke-linecap="butt" transform="matrix(0.75, 0, 0, 0.75, 228.401694, 211.784002)" fill="none" stroke-linejoin="miter" d="M 30.438368 0.00153913 C 13.625867 0.00153913 0.000865876 13.62654 0.000865876 30.439041 C 0.000865876 47.246334 13.625867 60.876544 30.438368 60.876544 C 47.245661 60.876544 60.875871 47.246334 60.875871 30.439041 C 60.875871 13.62654 47.245661 0.00153913 30.438368 0.00153913 Z M 30.438368 0.00153913 " stroke="#cb6ce6" stroke-width="32" stroke-opacity="1" stroke-miterlimit="4"/></g></g><g clip-path="url(#5ed3650fc3)"><g clip-path="url(#876f3dc750)"><g clip-path="url(#b32f348b8d)"><g clip-path="url(#c15488d32a)"><path stroke-linecap="butt" transform="matrix(-0.53033, 0.53033, -0.53033, -0.53033, 254.491173, 319.424476)" fill="none" stroke-linejoin="miter" d="M 30.439011 0.0014958 C 13.626811 -0.00218705 0.000274302 13.62435 0.000274302 30.440233 C 0.000274302 47.24875 13.626811 60.875286 30.435328 60.875286 C 47.247528 60.871604 60.874065 47.245067 60.874065 30.43655 C 60.874065 13.628032 47.247528 0.0014958 30.439011 0.0014958 Z M 30.439011 0.0014958 " stroke="#0cc0df" stroke-width="32" stroke-opacity="1" stroke-miterlimit="4"/></g></g></g></g><g clip-path="url(#2c321373f9)"><path fill="#d9d9d9" d="M 147.160156 109.035156 C 155.523438 110.542969 162.378906 115.105469 167.300781 121.992188 L 167.332031 122.023438 C 167.527344 122.253906 167.628906 122.546875 167.628906 122.84375 C 167.628906 127.339844 167.628906 131.867188 167.628906 136.359375 C 167.628906 155.519531 167.628906 174.644531 167.628906 193.800781 C 167.628906 239.59375 167.628906 285.417969 167.628906 331.214844 L 167.628906 331.542969 C 167.628906 331.902344 167.464844 332.265625 167.167969 332.492188 C 161.953125 336.890625 156.082031 340.726562 149.652344 343.089844 L 149.652344 343.121094 C 149.585938 343.121094 149.554688 343.15625 149.488281 343.15625 C 145.089844 344.761719 140.5 345.613281 135.808594 345.582031 C 123.671875 345.449219 113.074219 339.25 104.285156 331.34375 L 104.152344 331.246094 L 104.023438 331.246094 C 95.296875 332.953125 86.273438 332.398438 78.039062 328.886719 C 72.203125 326.359375 67.050781 322.488281 63.082031 317.535156 C 59.113281 312.648438 56.421875 306.839844 55.144531 300.671875 C 53.535156 292.933594 54.226562 284.929688 56.882812 277.515625 L 57.046875 277.121094 L 56.621094 277.089844 C 56.128906 277.054688 55.636719 276.988281 55.144531 276.957031 L 54.847656 276.925781 C 54.585938 276.894531 54.324219 276.792969 54.125 276.628906 C 51.078125 273.972656 48.320312 270.988281 46.125 267.578125 C 42.1875 261.441406 40.480469 254.550781 41.53125 247.300781 C 42.480469 240.773438 45.632812 234.738281 49.929688 229.785156 C 52.160156 227.191406 54.75 224.863281 57.605469 222.898438 L 57.800781 222.765625 L 57.703125 222.535156 C 55.703125 217.746094 54.027344 212.730469 53.078125 207.609375 C 51.863281 200.984375 51.929688 193.867188 54.949219 187.699219 C 57.964844 181.53125 63.28125 177.464844 69.480469 174.773438 C 72.890625 173.296875 76.53125 172.28125 80.207031 171.527344 L 80.5 171.460938 L 80.4375 171.164062 C 79.351562 165.75 79.417969 160.238281 80.863281 154.929688 C 82.601562 148.59375 86.175781 143.019531 91 138.625 C 94.804688 135.144531 99.824219 132.128906 104.875 130.914062 C 106.417969 130.554688 108.089844 130.324219 109.664062 130.421875 L 109.992188 130.457031 L 109.992188 130.160156 C 110.253906 125.992188 112.351562 122.253906 115.109375 119.238281 C 117.011719 117.171875 119.242188 115.429688 121.636719 113.988281 C 121.667969 113.957031 121.667969 113.957031 121.703125 113.921875 L 121.734375 113.921875 C 124.066406 112.511719 126.558594 111.363281 129.148438 110.511719 C 134.890625 108.578125 141.15625 107.949219 147.160156 109.035156 Z M 266.222656 297 C 269.636719 297 272.425781 299.757812 272.425781 303.199219 C 272.425781 306.609375 269.636719 309.398438 266.222656 309.398438 C 262.816406 309.398438 260.027344 306.609375 260.027344 303.199219 C 260.027344 299.757812 262.816406 297 266.222656 297 Z M 207.605469 270.394531 C 211.015625 270.394531 213.804688 273.183594 213.804688 276.597656 C 213.804688 280.007812 211.015625 282.796875 207.605469 282.796875 C 204.191406 282.796875 201.40625 280.007812 201.40625 276.597656 C 201.40625 273.183594 204.191406 270.394531 207.605469 270.394531 Z M 220.367188 305.988281 C 223.8125 305.988281 226.566406 308.742188 226.566406 312.1875 C 226.566406 315.601562 223.8125 318.355469 220.367188 318.355469 C 216.953125 318.355469 214.199219 315.601562 214.199219 312.1875 C 214.199219 308.742188 216.953125 305.988281 220.367188 305.988281 Z M 264.550781 272.496094 C 267.964844 272.496094 270.75 275.25 270.75 278.664062 C 270.75 282.105469 267.964844 284.863281 264.550781 284.863281 C 261.140625 284.863281 258.355469 282.105469 258.355469 278.664062 C 258.355469 275.25 261.140625 272.496094 264.550781 272.496094 Z M 260.941406 217.023438 C 264.355469 217.023438 267.144531 219.8125 267.144531 223.222656 C 267.144531 226.636719 264.355469 229.425781 260.941406 229.425781 C 257.5 229.425781 254.746094 226.636719 254.746094 223.222656 C 254.746094 219.8125 257.5 217.023438 260.941406 217.023438 Z M 225.648438 245.5 C 229.058594 245.5 231.8125 248.289062 231.8125 251.699219 C 231.8125 255.109375 229.058594 257.898438 225.648438 257.898438 C 222.203125 257.898438 219.445312 255.109375 219.445312 251.699219 C 219.445312 248.289062 222.203125 245.5 225.648438 245.5 Z M 204.457031 185.859375 C 207.867188 185.859375 210.621094 188.613281 210.621094 192.027344 C 210.621094 195.472656 207.867188 198.226562 204.457031 198.226562 C 201.011719 198.226562 198.253906 195.472656 198.253906 192.027344 C 198.253906 188.613281 201.011719 185.859375 204.457031 185.859375 Z M 233.488281 184.941406 C 236.898438 184.941406 239.6875 187.730469 239.6875 191.144531 C 239.6875 194.550781 236.898438 197.34375 233.488281 197.34375 C 230.074219 197.34375 227.285156 194.550781 227.285156 191.144531 C 227.285156 187.730469 230.074219 184.941406 233.488281 184.941406 Z M 243.394531 158.796875 C 246.804688 158.796875 249.558594 161.554688 249.558594 164.996094 C 249.558594 168.410156 246.804688 171.199219 243.394531 171.199219 C 239.949219 171.199219 237.195312 168.410156 237.195312 164.996094 C 237.195312 161.554688 239.949219 158.796875 243.394531 158.796875 Z M 213.871094 143.285156 C 217.285156 143.285156 220.070312 146.039062 220.070312 149.480469 C 220.070312 152.894531 217.285156 155.648438 213.871094 155.648438 C 210.460938 155.648438 207.671875 152.894531 207.671875 149.480469 C 207.671875 146.039062 210.460938 143.285156 213.871094 143.285156 Z M 235.226562 163 C 235.421875 162.175781 235.75 161.390625 236.210938 160.664062 C 231.386719 157.878906 226.597656 155.058594 221.777344 152.238281 C 221.515625 153.027344 221.117188 153.777344 220.628906 154.433594 C 225.484375 157.289062 230.371094 160.144531 235.226562 163 Z M 212.820312 192.027344 C 216.921875 191.832031 221.019531 191.601562 225.125 191.40625 C 225.125 191.304688 225.125 191.242188 225.125 191.144531 C 225.125 190.386719 225.21875 189.632812 225.417969 188.878906 C 221.089844 189.109375 216.757812 189.339844 212.425781 189.535156 C 212.6875 190.355469 212.820312 191.175781 212.820312 192.027344 Z M 215.609375 305.296875 C 216.296875 304.808594 217.054688 304.449219 217.871094 304.183594 C 215.675781 297.492188 213.445312 290.832031 211.246094 284.140625 C 210.492188 284.503906 209.703125 284.761719 208.851562 284.894531 C 211.117188 291.6875 213.34375 298.476562 215.609375 305.296875 Z M 221.578125 259.046875 C 220.859375 258.621094 220.167969 258.128906 219.613281 257.503906 C 216.953125 261.441406 214.296875 265.34375 211.640625 269.28125 C 212.394531 269.675781 213.050781 270.199219 213.640625 270.789062 C 216.296875 266.886719 218.957031 262.949219 221.578125 259.046875 Z M 258.515625 284.46875 C 257.925781 283.878906 257.433594 283.191406 257.074219 282.433594 C 246.804688 290.375 236.539062 298.3125 226.269531 306.21875 C 226.859375 306.808594 227.386719 307.496094 227.777344 308.21875 C 238.015625 300.3125 248.25 292.40625 258.515625 284.46875 Z M 263.273438 270.394531 C 260.878906 264.261719 258.484375 258.160156 256.089844 252.027344 L 256.054688 251.960938 L 256.089844 251.863281 C 257.695312 245.105469 259.269531 238.347656 260.878906 231.589844 C 260.027344 231.589844 259.207031 231.457031 258.382812 231.195312 C 256.777344 238.050781 255.171875 244.910156 253.5625 251.761719 C 253.5 251.992188 253.5 252.253906 253.59375 252.484375 C 256.023438 258.71875 258.449219 264.917969 260.878906 271.152344 C 261.632812 270.789062 262.453125 270.527344 263.273438 270.394531 Z M 232.796875 256.027344 C 232.371094 256.75 231.8125 257.40625 231.191406 257.964844 C 239.851562 263.507812 248.542969 269.050781 257.238281 274.59375 C 257.664062 273.839844 258.15625 273.183594 258.78125 272.628906 C 250.117188 267.082031 241.457031 261.570312 232.796875 256.027344 Z M 242.050781 173.265625 C 241.195312 173.132812 240.40625 172.871094 239.652344 172.476562 C 238.113281 175.953125 236.601562 179.429688 235.09375 182.90625 C 235.914062 183.074219 236.703125 183.367188 237.457031 183.761719 C 238.964844 180.25 240.507812 176.777344 242.050781 173.265625 Z M 258.449219 305.660156 C 258.1875 304.871094 258.058594 304.023438 258.058594 303.199219 L 228.402344 309.792969 C 228.632812 310.550781 228.761719 311.367188 228.761719 312.1875 C 228.761719 312.1875 228.761719 312.222656 228.761719 312.253906 Z M 246.050781 172.9375 C 253.988281 186.515625 261.894531 200.128906 269.832031 213.710938 L 269.964844 213.941406 L 269.769531 214.105469 C 268.683594 215.058594 267.601562 216.039062 266.554688 216.988281 C 267.175781 217.550781 267.699219 218.207031 268.125 218.925781 C 269.078125 218.074219 270.027344 217.21875 270.949219 216.402344 L 271.246094 216.140625 L 271.441406 216.464844 C 272.160156 217.679688 272.851562 218.894531 273.574219 220.140625 C 280.066406 233.851562 286.5625 247.53125 293.058594 261.246094 L 293.125 261.410156 L 293.027344 261.539062 C 289.878906 266.035156 286.757812 270.527344 283.644531 275.019531 L 283.546875 275.152344 L 283.414062 275.152344 C 279.773438 275.445312 276.132812 275.777344 272.523438 276.074219 C 272.785156 276.894531 272.917969 277.710938 272.917969 278.566406 C 275.640625 278.335938 278.328125 278.105469 281.019531 277.875 L 281.707031 277.808594 L 269.277344 295.621094 C 270.0625 295.953125 270.785156 296.378906 271.441406 296.902344 L 284.921875 277.550781 L 285.085938 277.515625 C 285.710938 277.480469 286.300781 277.414062 286.925781 277.347656 L 287.15625 277.347656 L 287.25 277.550781 C 289.972656 284.761719 290.792969 292.601562 289.21875 300.183594 C 288.007812 305.953125 285.480469 311.367188 281.773438 315.960938 C 280.5625 317.503906 279.214844 318.914062 277.773438 320.226562 L 277.476562 320.488281 L 271.246094 309.628906 C 270.589844 310.15625 269.867188 310.550781 269.078125 310.84375 L 275.511719 322.0625 L 275.3125 322.226562 C 272.984375 323.964844 270.425781 325.441406 267.765625 326.589844 C 259.761719 330 250.941406 330.425781 242.507812 328.65625 C 242.113281 328.589844 241.6875 328.6875 241.394531 328.953125 C 232.996094 336.691406 222.695312 342.960938 210.949219 343.089844 C 207.277344 343.121094 203.636719 342.5625 200.128906 341.484375 L 199.699219 341.351562 L 199.960938 340.988281 C 205.375 333.804688 210.785156 326.621094 216.199219 319.4375 C 215.476562 319.011719 214.820312 318.484375 214.265625 317.894531 C 208.625 325.34375 202.980469 332.824219 197.371094 340.269531 L 197.207031 340.464844 L 196.976562 340.367188 C 191.46875 338.167969 186.347656 334.855469 181.789062 331.050781 L 181.65625 330.953125 L 181.65625 330.820312 C 181.65625 314.320312 181.65625 297.820312 181.65625 281.355469 L 181.65625 281.058594 L 181.953125 281.023438 C 187.859375 280.46875 193.761719 279.910156 199.699219 279.351562 C 199.402344 278.566406 199.273438 277.746094 199.242188 276.894531 C 193.5 277.449219 187.757812 277.976562 182.019531 278.53125 L 181.65625 278.566406 L 181.65625 278.203125 C 181.65625 272.199219 181.65625 266.230469 181.65625 260.226562 L 181.65625 259.375 L 182.214844 260.03125 C 182.476562 260.324219 182.835938 260.488281 183.230469 260.457031 C 193.566406 259.832031 203.863281 259.242188 214.164062 258.621094 C 214.65625 258.585938 215.082031 258.261719 215.246094 257.800781 C 215.9375 255.960938 216.59375 254.125 217.285156 252.289062 C 217.25 252.09375 217.25 251.894531 217.25 251.699219 C 217.25 249.5 218.101562 247.433594 219.613281 245.859375 C 219.742188 245.566406 219.839844 245.234375 219.972656 244.910156 L 220.265625 244.121094 L 220.5625 244.910156 C 220.5625 244.941406 220.5625 244.972656 220.59375 245.003906 C 221.25 244.515625 222.003906 244.089844 222.792969 243.824219 C 222.398438 242.742188 222.003906 241.691406 221.613281 240.609375 L 221.578125 240.511719 L 221.613281 240.414062 C 222.761719 237.199219 223.941406 234.015625 225.089844 230.835938 L 225.125 230.769531 L 225.152344 230.738281 C 230.335938 224.765625 235.519531 218.761719 240.703125 212.792969 L 240.867188 212.597656 L 241.097656 212.730469 C 241.328125 212.859375 241.554688 212.988281 241.820312 213.15625 L 241.917969 213.183594 L 241.949219 213.285156 C 243.261719 216.5 244.609375 219.683594 245.953125 222.863281 L 246.019531 223.027344 L 245.886719 223.191406 C 240.40625 230.179688 234.898438 237.199219 229.386719 244.21875 C 230.140625 244.578125 230.832031 245.070312 231.453125 245.660156 C 237.09375 238.445312 242.769531 231.226562 248.445312 224.011719 C 248.707031 223.652344 248.773438 223.128906 248.578125 222.699219 C 247.65625 220.5 246.738281 218.304688 245.820312 216.105469 L 245.460938 215.253906 L 246.28125 215.746094 C 248.609375 217.089844 250.941406 218.4375 253.300781 219.78125 C 253.628906 219.027344 254.089844 218.304688 254.644531 217.679688 C 251.101562 215.648438 247.527344 213.582031 243.984375 211.511719 L 243.886719 211.449219 L 243.851562 211.347656 C 241.984375 206.921875 240.148438 202.460938 238.277344 198.03125 C 237.589844 198.492188 236.832031 198.882812 236.046875 199.148438 C 237.457031 202.558594 238.902344 206 240.308594 209.414062 L 240.441406 209.710938 L 240.148438 209.839844 C 239.949219 209.90625 239.75 210.035156 239.621094 210.203125 L 239.621094 210.234375 C 234.109375 216.597656 228.597656 222.960938 223.085938 229.324219 C 222.992188 229.425781 222.925781 229.554688 222.859375 229.71875 C 222.070312 231.851562 221.316406 233.984375 220.527344 236.117188 L 220.234375 236.902344 L 219.9375 236.117188 C 217.214844 228.800781 214.496094 221.484375 211.773438 214.171875 L 211.707031 213.972656 L 211.867188 213.84375 C 217.183594 208.332031 222.496094 202.820312 227.847656 197.34375 C 227.222656 196.75 226.695312 196.09375 226.269531 195.375 C 220.660156 201.148438 215.082031 206.886719 209.507812 212.660156 L 209.472656 212.695312 L 209.441406 212.695312 C 201.304688 217.910156 193.171875 223.128906 185.070312 228.339844 L 183.984375 229.03125 L 184.609375 227.914062 C 189.988281 218.46875 195.367188 209.019531 200.714844 199.539062 C 199.960938 199.179688 199.273438 198.6875 198.679688 198.097656 C 193.203125 207.742188 187.726562 217.386719 182.246094 227.03125 L 181.65625 228.078125 L 181.65625 226.898438 C 181.65625 216.335938 181.65625 205.742188 181.65625 195.175781 L 181.65625 194.914062 L 181.953125 194.882812 C 186.675781 194.355469 191.433594 193.832031 196.15625 193.339844 C 196.09375 192.914062 196.058594 192.453125 196.058594 192.027344 C 196.058594 191.632812 196.09375 191.207031 196.15625 190.8125 C 193.039062 191.144531 189.925781 191.503906 186.804688 191.832031 L 185.496094 191.964844 L 186.609375 191.273438 C 193.828125 186.582031 201.078125 181.890625 208.292969 177.234375 L 208.292969 177.199219 C 208.625 177.035156 208.851562 176.742188 208.917969 176.378906 C 210.261719 170.183594 211.605469 163.980469 212.953125 157.78125 C 212.097656 157.683594 211.277344 157.484375 210.523438 157.15625 C 209.214844 163.160156 207.898438 169.195312 206.621094 175.234375 L 206.585938 175.363281 L 206.492188 175.429688 C 198.355469 180.679688 190.25 185.925781 182.152344 191.175781 L 181.65625 191.503906 L 181.65625 190.914062 C 181.65625 173.492188 181.65625 156.042969 181.65625 138.625 L 181.65625 138.164062 L 182.082031 138.328125 C 189.988281 141.3125 197.894531 144.296875 205.800781 147.285156 C 205.996094 146.464844 206.359375 145.710938 206.785156 144.988281 C 198.484375 141.835938 190.1875 138.722656 181.855469 135.574219 L 181.65625 135.507812 L 181.65625 135.277344 C 181.65625 131.308594 181.65625 127.304688 181.65625 123.335938 L 181.65625 123.238281 L 181.722656 123.140625 C 186.25 116.941406 192.515625 112.839844 200.09375 111.496094 C 205.667969 110.480469 211.507812 111.070312 216.855469 112.871094 C 218.890625 113.5625 220.890625 114.414062 222.761719 115.464844 L 222.992188 115.59375 L 222.890625 115.824219 C 220.203125 124.257812 217.480469 132.6875 214.757812 141.152344 C 215.609375 141.214844 216.429688 141.445312 217.183594 141.773438 C 219.546875 134.394531 221.90625 127.042969 224.300781 119.664062 L 224.5625 118.808594 L 224.894531 119.664062 C 229.648438 132.359375 234.40625 145.054688 239.128906 157.746094 C 239.851562 157.320312 240.636719 157.027344 241.457031 156.832031 C 236.800781 144.363281 232.140625 131.898438 227.453125 119.464844 L 227.027344 118.285156 L 227.976562 119.105469 C 228.597656 119.695312 229.253906 120.285156 229.8125 120.941406 C 232.566406 123.894531 234.601562 127.734375 234.273438 131.867188 C 234.238281 132.554688 234.765625 133.144531 235.421875 133.210938 C 235.617188 133.210938 235.78125 133.179688 235.945312 133.144531 L 235.945312 133.113281 L 235.980469 133.113281 C 237.652344 132.6875 239.652344 132.949219 241.328125 133.34375 C 245.789062 134.394531 250.183594 137.015625 253.628906 140.035156 L 253.792969 140.164062 L 253.695312 140.394531 C 253.660156 140.460938 253.628906 140.527344 253.59375 140.625 C 251.199219 146.136719 248.773438 151.648438 246.34375 157.15625 C 247.164062 157.484375 247.953125 157.910156 248.609375 158.46875 C 250.941406 153.121094 253.234375 147.773438 255.53125 142.460938 L 255.726562 142.003906 L 256.054688 142.363281 C 259.566406 146.101562 262.160156 150.597656 263.535156 155.582031 C 265.011719 161.027344 264.878906 166.671875 263.566406 172.148438 C 263.40625 172.804688 263.832031 173.492188 264.519531 173.65625 C 264.550781 173.65625 264.617188 173.691406 264.648438 173.691406 L 264.683594 173.691406 C 268.652344 174.414062 272.621094 175.492188 276.328125 177.101562 C 281.9375 179.5 286.859375 183.171875 289.613281 188.78125 C 290.535156 190.683594 291.191406 192.714844 291.550781 194.816406 L 291.617188 195.175781 L 291.253906 195.175781 C 290.960938 195.210938 290.695312 195.308594 290.46875 195.503906 C 284.367188 200.984375 278.265625 206.460938 272.132812 211.972656 L 271.867188 212.234375 L 271.671875 211.90625 C 263.863281 198.523438 256.054688 185.171875 248.28125 171.789062 C 247.589844 172.28125 246.835938 172.675781 246.050781 172.9375 Z M 287.679688 273.609375 C 290.304688 269.804688 292.960938 266.035156 295.585938 262.226562 C 295.847656 261.835938 295.878906 261.34375 295.648438 260.914062 C 289.058594 246.941406 282.429688 233 275.804688 219.027344 C 275.804688 218.992188 275.769531 218.960938 275.738281 218.894531 C 274.917969 217.484375 274.097656 216.074219 273.277344 214.660156 L 273.148438 214.433594 L 273.34375 214.269531 C 279.347656 208.855469 285.382812 203.445312 291.386719 198.03125 L 291.878906 197.570312 L 291.910156 198.226562 C 292.074219 201.214844 291.78125 204.230469 291.253906 207.152344 C 290.269531 212.5 288.433594 217.777344 286.269531 222.730469 C 286.039062 223.324219 286.269531 224.011719 286.792969 224.308594 L 286.824219 224.339844 C 289.84375 226.277344 292.632812 228.667969 294.996094 231.394531 C 298.964844 235.984375 301.882812 241.59375 302.769531 247.664062 C 303.753906 254.289062 302.144531 260.621094 298.570312 266.230469 C 296.601562 269.28125 294.140625 272.003906 291.417969 274.398438 L 291.351562 274.464844 L 291.222656 274.496094 C 290.46875 274.5625 289.714844 274.628906 288.957031 274.660156 L 288.792969 274.691406 L 288.695312 274.5625 C 288.5 274.300781 288.203125 274.136719 287.875 274.101562 L 287.386719 274.039062 Z M 181.820312 233.394531 C 190.972656 227.523438 200.15625 221.648438 209.308594 215.777344 L 209.640625 215.546875 L 209.769531 215.910156 C 212.820312 224.078125 215.839844 232.242188 218.890625 240.414062 L 218.921875 240.511719 L 218.890625 240.609375 C 217.019531 245.726562 215.152344 250.875 213.277344 255.996094 L 213.214844 256.191406 L 212.984375 256.191406 C 203.046875 256.785156 193.074219 257.375 183.101562 257.964844 C 182.742188 257.996094 182.445312 258.160156 182.214844 258.421875 L 181.65625 259.078125 L 181.65625 258.226562 C 181.65625 250.027344 181.65625 241.855469 181.65625 233.65625 L 181.65625 233.492188 Z M 291.648438 276.957031 L 291.941406 276.921875 C 292.207031 276.894531 292.464844 276.792969 292.667969 276.628906 C 295.714844 273.972656 298.472656 270.988281 300.667969 267.578125 C 304.605469 261.441406 306.3125 254.550781 305.261719 247.300781 C 304.3125 240.773438 301.160156 234.738281 296.863281 229.785156 C 294.632812 227.191406 292.042969 224.863281 289.1875 222.898438 L 288.992188 222.765625 L 289.089844 222.535156 C 291.089844 217.746094 292.761719 212.730469 293.714844 207.609375 C 294.929688 200.984375 294.863281 193.867188 291.84375 187.699219 C 288.828125 181.53125 283.511719 177.464844 277.3125 174.773438 C 273.902344 173.296875 270.257812 172.28125 266.585938 171.527344 L 266.289062 171.457031 L 266.355469 171.164062 C 267.441406 165.75 267.371094 160.238281 265.929688 154.929688 C 264.191406 148.59375 260.617188 143.019531 255.792969 138.625 C 251.988281 135.144531 246.96875 132.128906 241.917969 130.914062 C 240.378906 130.554688 238.703125 130.324219 237.128906 130.421875 L 236.800781 130.457031 L 236.800781 130.160156 C 236.539062 125.992188 234.441406 122.253906 231.683594 119.238281 C 229.78125 117.171875 227.550781 115.429688 225.152344 113.988281 C 225.125 113.957031 225.125 113.957031 225.089844 113.921875 L 225.054688 113.921875 C 222.726562 112.511719 220.234375 111.363281 217.644531 110.511719 C 211.902344 108.578125 205.636719 107.949219 199.632812 109.035156 C 191.269531 110.542969 184.414062 115.105469 179.492188 121.992188 L 179.457031 122.023438 C 179.261719 122.253906 179.164062 122.546875 179.164062 122.84375 C 179.164062 127.339844 179.164062 131.867188 179.164062 136.359375 C 179.164062 155.519531 179.164062 174.644531 179.164062 193.800781 C 179.164062 239.59375 179.164062 285.417969 179.164062 331.214844 L 179.164062 331.542969 C 179.164062 331.902344 179.328125 332.265625 179.621094 332.492188 C 184.839844 336.890625 190.710938 340.726562 197.140625 343.089844 L 197.140625 343.121094 C 197.207031 343.121094 197.238281 343.15625 197.304688 343.15625 C 201.699219 344.761719 206.292969 345.613281 210.984375 345.582031 C 223.121094 345.449219 233.714844 339.25 242.507812 331.34375 L 242.640625 331.246094 L 242.769531 331.246094 C 251.496094 332.953125 260.515625 332.398438 268.753906 328.886719 C 274.589844 326.359375 279.742188 322.488281 283.710938 317.535156 C 287.679688 312.648438 290.367188 306.839844 291.648438 300.671875 C 293.253906 292.933594 292.566406 284.929688 289.910156 277.515625 L 289.746094 277.121094 L 290.171875 277.089844 C 290.664062 277.054688 291.15625 276.988281 291.648438 276.957031 " fill-opacity="1" fill-rule="evenodd"/></g><g clip-path="url(#93cc5a1bcb)"><path fill="#a6a6a6" d="M 137.878906 132.015625 C 144.882812 133.28125 150.628906 137.101562 154.75 142.871094 L 154.777344 142.898438 C 154.941406 143.089844 155.023438 143.335938 155.023438 143.585938 C 155.023438 147.351562 155.023438 151.144531 155.023438 154.90625 C 155.023438 170.957031 155.023438 186.976562 155.023438 203.023438 C 155.023438 241.382812 155.023438 279.769531 155.023438 318.128906 L 155.023438 318.40625 C 155.023438 318.707031 154.886719 319.011719 154.640625 319.203125 C 150.269531 322.882812 145.351562 326.097656 139.964844 328.078125 L 139.964844 328.105469 C 139.910156 328.105469 139.882812 328.132812 139.828125 328.132812 C 136.144531 329.480469 132.296875 330.195312 128.367188 330.167969 C 118.203125 330.058594 109.328125 324.863281 101.960938 318.238281 L 101.851562 318.160156 L 101.742188 318.160156 C 94.433594 319.585938 86.875 319.121094 79.980469 316.179688 C 75.085938 314.0625 70.773438 310.820312 67.449219 306.671875 C 64.125 302.578125 61.871094 297.714844 60.800781 292.546875 C 59.453125 286.0625 60.03125 279.359375 62.253906 273.148438 L 62.390625 272.820312 L 62.035156 272.792969 C 61.621094 272.761719 61.210938 272.707031 60.800781 272.679688 L 60.550781 272.65625 C 60.332031 272.628906 60.113281 272.542969 59.945312 272.40625 C 57.390625 270.179688 55.082031 267.679688 53.242188 264.824219 C 49.945312 259.683594 48.515625 253.914062 49.394531 247.839844 C 50.191406 242.371094 52.832031 237.316406 56.429688 233.167969 C 58.296875 230.996094 60.46875 229.042969 62.859375 227.398438 L 63.023438 227.285156 L 62.941406 227.09375 C 61.265625 223.082031 59.863281 218.878906 59.066406 214.589844 C 58.050781 209.039062 58.105469 203.078125 60.632812 197.910156 C 63.164062 192.746094 67.613281 189.335938 72.808594 187.085938 C 75.664062 185.847656 78.714844 184.996094 81.792969 184.363281 L 82.039062 184.3125 L 81.984375 184.0625 C 81.078125 179.527344 81.132812 174.910156 82.34375 170.460938 C 83.796875 165.15625 86.792969 160.484375 90.832031 156.804688 C 94.019531 153.890625 98.226562 151.359375 102.457031 150.34375 C 103.75 150.042969 105.148438 149.851562 106.46875 149.933594 L 106.742188 149.960938 L 106.742188 149.714844 C 106.964844 146.222656 108.722656 143.089844 111.03125 140.5625 C 112.625 138.832031 114.492188 137.375 116.496094 136.167969 C 116.527344 136.140625 116.527344 136.140625 116.554688 136.109375 L 116.582031 136.109375 C 118.53125 134.929688 120.621094 133.96875 122.792969 133.253906 C 127.597656 131.632812 132.847656 131.109375 137.878906 132.015625 Z M 237.613281 289.472656 C 240.472656 289.472656 242.808594 291.777344 242.808594 294.664062 C 242.808594 297.519531 240.472656 299.855469 237.613281 299.855469 C 234.757812 299.855469 232.421875 297.519531 232.421875 294.664062 C 232.421875 291.777344 234.757812 289.472656 237.613281 289.472656 Z M 188.511719 267.183594 C 191.367188 267.183594 193.703125 269.519531 193.703125 272.378906 C 193.703125 275.238281 191.367188 277.574219 188.511719 277.574219 C 185.652344 277.574219 183.320312 275.238281 183.320312 272.378906 C 183.320312 269.519531 185.652344 267.183594 188.511719 267.183594 Z M 199.199219 297 C 202.085938 297 204.394531 299.308594 204.394531 302.191406 C 204.394531 305.050781 202.085938 307.359375 199.199219 307.359375 C 196.34375 307.359375 194.035156 305.050781 194.035156 302.191406 C 194.035156 299.308594 196.34375 297 199.199219 297 Z M 236.214844 268.941406 C 239.070312 268.941406 241.40625 271.25 241.40625 274.109375 C 241.40625 276.996094 239.070312 279.304688 236.214844 279.304688 C 233.355469 279.304688 231.023438 276.996094 231.023438 274.109375 C 231.023438 271.25 233.355469 268.941406 236.214844 268.941406 Z M 233.191406 222.476562 C 236.050781 222.476562 238.382812 224.8125 238.382812 227.671875 C 238.382812 230.527344 236.050781 232.863281 233.191406 232.863281 C 230.304688 232.863281 228 230.527344 228 227.671875 C 228 224.8125 230.304688 222.476562 233.191406 222.476562 Z M 203.625 246.328125 C 206.480469 246.328125 208.789062 248.664062 208.789062 251.523438 C 208.789062 254.382812 206.480469 256.714844 203.625 256.714844 C 200.738281 256.714844 198.429688 254.382812 198.429688 251.523438 C 198.429688 248.664062 200.738281 246.328125 203.625 246.328125 Z M 185.871094 196.371094 C 188.730469 196.371094 191.039062 198.679688 191.039062 201.539062 C 191.039062 204.421875 188.730469 206.730469 185.871094 206.730469 C 182.988281 206.730469 180.679688 204.421875 180.679688 201.539062 C 180.679688 198.679688 182.988281 196.371094 185.871094 196.371094 Z M 210.191406 195.601562 C 213.050781 195.601562 215.386719 197.9375 215.386719 200.796875 C 215.386719 203.652344 213.050781 205.988281 210.191406 205.988281 C 207.332031 205.988281 204.996094 203.652344 204.996094 200.796875 C 204.996094 197.9375 207.332031 195.601562 210.191406 195.601562 Z M 218.488281 173.703125 C 221.347656 173.703125 223.65625 176.011719 223.65625 178.894531 C 223.65625 181.753906 221.347656 184.089844 218.488281 184.089844 C 215.605469 184.089844 213.296875 181.753906 213.296875 178.894531 C 213.296875 176.011719 215.605469 173.703125 218.488281 173.703125 Z M 193.757812 160.707031 C 196.617188 160.707031 198.953125 163.015625 198.953125 165.898438 C 198.953125 168.757812 196.617188 171.0625 193.757812 171.0625 C 190.902344 171.0625 188.566406 168.757812 188.566406 165.898438 C 188.566406 163.015625 190.902344 160.707031 193.757812 160.707031 Z M 211.648438 177.222656 C 211.8125 176.53125 212.085938 175.875 212.472656 175.265625 C 208.433594 172.933594 204.421875 170.570312 200.382812 168.207031 C 200.164062 168.867188 199.832031 169.496094 199.421875 170.046875 C 203.488281 172.441406 207.582031 174.828125 211.648438 177.222656 Z M 192.878906 201.539062 C 196.3125 201.371094 199.75 201.179688 203.1875 201.015625 C 203.1875 200.933594 203.1875 200.878906 203.1875 200.796875 C 203.1875 200.164062 203.265625 199.535156 203.429688 198.898438 C 199.804688 199.09375 196.175781 199.285156 192.550781 199.449219 C 192.769531 200.136719 192.878906 200.824219 192.878906 201.539062 Z M 195.214844 296.421875 C 195.792969 296.011719 196.425781 295.710938 197.113281 295.488281 C 195.269531 289.882812 193.402344 284.304688 191.5625 278.699219 C 190.929688 279 190.269531 279.21875 189.554688 279.332031 C 191.453125 285.019531 193.320312 290.707031 195.214844 296.421875 Z M 200.214844 257.675781 C 199.613281 257.320312 199.035156 256.90625 198.570312 256.386719 C 196.34375 259.683594 194.117188 262.953125 191.890625 266.253906 C 192.523438 266.582031 193.074219 267.019531 193.566406 267.515625 C 195.792969 264.246094 198.019531 260.945312 200.214844 257.675781 Z M 231.15625 278.972656 C 230.664062 278.480469 230.25 277.902344 229.949219 277.269531 C 221.347656 283.921875 212.75 290.570312 204.144531 297.191406 C 204.640625 297.6875 205.082031 298.265625 205.410156 298.867188 C 213.984375 292.246094 222.558594 285.625 231.15625 278.972656 Z M 235.140625 267.183594 C 233.136719 262.046875 231.128906 256.933594 229.125 251.796875 L 229.097656 251.742188 L 229.125 251.660156 C 230.472656 246 231.789062 240.339844 233.136719 234.679688 C 232.421875 234.679688 231.738281 234.566406 231.046875 234.347656 C 229.703125 240.089844 228.355469 245.835938 227.007812 251.578125 C 226.953125 251.769531 226.953125 251.988281 227.035156 252.183594 C 229.070312 257.402344 231.101562 262.597656 233.136719 267.816406 C 233.769531 267.515625 234.453125 267.296875 235.140625 267.183594 Z M 209.613281 255.148438 C 209.257812 255.753906 208.789062 256.304688 208.269531 256.769531 C 215.523438 261.414062 222.804688 266.058594 230.085938 270.703125 C 230.445312 270.070312 230.855469 269.519531 231.378906 269.054688 C 224.121094 264.410156 216.867188 259.792969 209.613281 255.148438 Z M 217.363281 185.820312 C 216.648438 185.710938 215.988281 185.492188 215.359375 185.160156 C 214.066406 188.074219 212.800781 190.988281 211.539062 193.898438 C 212.226562 194.039062 212.886719 194.28125 213.515625 194.613281 C 214.78125 191.671875 216.070312 188.761719 217.363281 185.820312 Z M 231.101562 296.726562 C 230.882812 296.0625 230.773438 295.351562 230.773438 294.664062 L 205.933594 300.1875 C 206.125 300.820312 206.234375 301.507812 206.234375 302.191406 C 206.234375 302.191406 206.234375 302.222656 206.234375 302.25 Z M 220.714844 185.546875 C 227.363281 196.921875 233.988281 208.324219 240.636719 219.703125 L 240.75 219.894531 L 240.585938 220.03125 C 239.675781 220.828125 238.769531 221.652344 237.890625 222.449219 C 238.414062 222.917969 238.851562 223.46875 239.207031 224.070312 C 240.007812 223.355469 240.800781 222.640625 241.570312 221.953125 L 241.820312 221.738281 L 241.984375 222.011719 C 242.589844 223.027344 243.167969 224.042969 243.769531 225.089844 C 249.210938 236.574219 254.652344 248.03125 260.09375 259.519531 L 260.148438 259.65625 L 260.066406 259.765625 C 257.429688 263.53125 254.816406 267.296875 252.207031 271.058594 L 252.125 271.167969 L 252.015625 271.167969 C 248.964844 271.417969 245.914062 271.691406 242.890625 271.941406 C 243.109375 272.628906 243.222656 273.3125 243.222656 274.027344 C 245.5 273.835938 247.753906 273.644531 250.007812 273.449219 L 250.585938 273.394531 L 240.171875 288.316406 C 240.828125 288.59375 241.4375 288.949219 241.984375 289.386719 L 253.277344 273.175781 L 253.414062 273.148438 C 253.9375 273.121094 254.433594 273.066406 254.957031 273.011719 L 255.148438 273.011719 L 255.230469 273.175781 C 257.507812 279.21875 258.195312 285.789062 256.878906 292.136719 C 255.863281 296.972656 253.746094 301.507812 250.640625 305.351562 C 249.625 306.644531 248.496094 307.824219 247.289062 308.925781 L 247.039062 309.144531 L 241.820312 300.050781 C 241.269531 300.492188 240.664062 300.820312 240.007812 301.066406 L 245.394531 310.464844 L 245.226562 310.601562 C 243.277344 312.058594 241.132812 313.292969 238.90625 314.257812 C 232.203125 317.113281 224.8125 317.472656 217.746094 315.988281 C 217.417969 315.933594 217.0625 316.015625 216.816406 316.234375 C 209.777344 322.71875 201.152344 327.96875 191.3125 328.078125 C 188.238281 328.105469 185.1875 327.636719 182.246094 326.734375 L 181.890625 326.621094 L 182.109375 326.320312 C 186.644531 320.300781 191.175781 314.285156 195.710938 308.265625 C 195.105469 307.910156 194.554688 307.46875 194.089844 306.972656 C 189.363281 313.210938 184.636719 319.476562 179.9375 325.714844 L 179.800781 325.878906 L 179.605469 325.796875 C 174.992188 323.957031 170.707031 321.179688 166.882812 317.996094 L 166.777344 317.910156 L 166.777344 317.800781 C 166.777344 303.980469 166.777344 290.15625 166.777344 276.363281 L 166.777344 276.117188 L 167.023438 276.089844 C 171.96875 275.621094 176.914062 275.152344 181.890625 274.6875 C 181.640625 274.027344 181.53125 273.339844 181.503906 272.628906 C 176.695312 273.09375 171.886719 273.535156 167.078125 274 L 166.777344 274.027344 L 166.777344 273.722656 C 166.777344 268.695312 166.777344 263.695312 166.777344 258.667969 L 166.777344 257.953125 L 167.242188 258.5 C 167.460938 258.75 167.765625 258.886719 168.09375 258.859375 C 176.75 258.335938 185.378906 257.84375 194.007812 257.320312 C 194.417969 257.292969 194.777344 257.019531 194.914062 256.632812 C 195.492188 255.09375 196.039062 253.554688 196.617188 252.019531 C 196.589844 251.851562 196.589844 251.6875 196.589844 251.523438 C 196.589844 249.679688 197.304688 247.949219 198.570312 246.632812 C 198.679688 246.382812 198.757812 246.109375 198.871094 245.835938 L 199.117188 245.171875 L 199.367188 245.835938 C 199.367188 245.863281 199.367188 245.886719 199.394531 245.914062 C 199.941406 245.503906 200.574219 245.148438 201.234375 244.929688 C 200.902344 244.019531 200.574219 243.140625 200.246094 242.234375 L 200.214844 242.152344 L 200.246094 242.070312 C 201.207031 239.375 202.195312 236.710938 203.160156 234.046875 L 203.1875 233.988281 L 203.210938 233.964844 C 207.554688 228.960938 211.894531 223.933594 216.238281 218.933594 L 216.375 218.765625 L 216.566406 218.878906 C 216.757812 218.988281 216.953125 219.097656 217.171875 219.234375 L 217.253906 219.261719 L 217.28125 219.34375 C 218.378906 222.039062 219.507812 224.703125 220.632812 227.367188 L 220.6875 227.503906 L 220.578125 227.644531 C 215.988281 233.496094 211.371094 239.375 206.753906 245.257812 C 207.390625 245.558594 207.964844 245.972656 208.488281 246.464844 C 213.214844 240.421875 217.96875 234.375 222.722656 228.328125 C 222.941406 228.027344 222.996094 227.589844 222.832031 227.230469 C 222.0625 225.390625 221.292969 223.546875 220.523438 221.707031 L 220.222656 220.992188 L 220.910156 221.40625 C 222.859375 222.53125 224.8125 223.660156 226.789062 224.785156 C 227.0625 224.152344 227.449219 223.546875 227.914062 223.027344 C 224.949219 221.324219 221.953125 219.59375 218.984375 217.859375 L 218.902344 217.804688 L 218.875 217.722656 C 217.308594 214.011719 215.769531 210.277344 214.203125 206.566406 C 213.628906 206.953125 212.992188 207.28125 212.335938 207.503906 C 213.515625 210.359375 214.726562 213.242188 215.90625 216.101562 L 216.015625 216.351562 L 215.769531 216.457031 C 215.605469 216.515625 215.4375 216.625 215.332031 216.761719 L 215.332031 216.789062 C 210.714844 222.121094 206.097656 227.449219 201.480469 232.78125 C 201.398438 232.863281 201.34375 232.972656 201.289062 233.109375 C 200.628906 234.898438 199.996094 236.683594 199.335938 238.46875 L 199.089844 239.128906 L 198.84375 238.46875 C 196.5625 232.34375 194.28125 226.214844 192 220.085938 L 191.945312 219.921875 L 192.082031 219.8125 C 196.535156 215.195312 200.988281 210.578125 205.464844 205.988281 C 204.945312 205.496094 204.503906 204.945312 204.144531 204.339844 C 199.449219 209.175781 194.777344 213.984375 190.105469 218.824219 L 190.078125 218.851562 L 190.050781 218.851562 C 183.234375 223.21875 176.417969 227.589844 169.632812 231.957031 L 168.726562 232.535156 L 169.25 231.601562 C 173.753906 223.6875 178.261719 215.773438 182.742188 207.832031 C 182.109375 207.53125 181.53125 207.117188 181.035156 206.621094 C 176.445312 214.699219 171.859375 222.78125 167.269531 230.859375 L 166.777344 231.738281 L 166.777344 230.75 C 166.777344 221.902344 166.777344 213.023438 166.777344 204.175781 L 166.777344 203.957031 L 167.023438 203.929688 C 170.980469 203.488281 174.964844 203.050781 178.921875 202.636719 C 178.867188 202.28125 178.839844 201.894531 178.839844 201.539062 C 178.839844 201.207031 178.867188 200.851562 178.921875 200.519531 C 176.3125 200.796875 173.699219 201.097656 171.089844 201.371094 L 169.992188 201.484375 L 170.921875 200.90625 C 176.96875 196.976562 183.042969 193.046875 189.085938 189.144531 L 189.085938 189.117188 C 189.363281 188.980469 189.554688 188.734375 189.609375 188.429688 C 190.738281 183.238281 191.863281 178.042969 192.988281 172.851562 C 192.277344 172.769531 191.589844 172.601562 190.957031 172.328125 C 189.859375 177.359375 188.757812 182.414062 187.6875 187.46875 L 187.660156 187.578125 L 187.578125 187.636719 C 180.761719 192.03125 173.972656 196.425781 167.1875 200.824219 L 166.777344 201.097656 L 166.777344 200.605469 C 166.777344 186.011719 166.777344 171.394531 166.777344 156.804688 L 166.777344 156.417969 L 167.132812 156.554688 C 173.753906 159.058594 180.375 161.558594 187 164.058594 C 187.164062 163.371094 187.464844 162.738281 187.824219 162.136719 C 180.871094 159.496094 173.921875 156.886719 166.941406 154.246094 L 166.777344 154.191406 L 166.777344 154 C 166.777344 150.675781 166.777344 147.324219 166.777344 144 L 166.777344 143.914062 L 166.832031 143.832031 C 170.621094 138.640625 175.871094 135.203125 182.21875 134.078125 C 186.890625 133.226562 191.78125 133.722656 196.261719 135.230469 C 197.964844 135.808594 199.640625 136.523438 201.207031 137.402344 L 201.398438 137.511719 L 201.316406 137.703125 C 199.0625 144.769531 196.78125 151.828125 194.503906 158.917969 C 195.214844 158.972656 195.902344 159.164062 196.535156 159.441406 C 198.515625 153.257812 200.492188 147.101562 202.496094 140.917969 L 202.71875 140.207031 L 202.992188 140.917969 C 206.976562 151.554688 210.960938 162.1875 214.917969 172.820312 C 215.523438 172.464844 216.183594 172.21875 216.867188 172.054688 C 212.964844 161.609375 209.066406 151.167969 205.136719 140.753906 L 204.78125 139.765625 L 205.574219 140.453125 C 206.097656 140.949219 206.648438 141.441406 207.113281 141.992188 C 209.421875 144.464844 211.125 147.679688 210.851562 151.144531 C 210.824219 151.71875 211.261719 152.210938 211.8125 152.269531 C 211.976562 152.269531 212.113281 152.242188 212.25 152.210938 L 212.25 152.1875 L 212.277344 152.1875 C 213.679688 151.828125 215.359375 152.046875 216.757812 152.378906 C 220.496094 153.257812 224.179688 155.457031 227.0625 157.984375 L 227.199219 158.09375 L 227.121094 158.285156 C 227.09375 158.34375 227.0625 158.398438 227.035156 158.480469 C 225.03125 163.09375 222.996094 167.710938 220.960938 172.328125 C 221.648438 172.601562 222.308594 172.960938 222.859375 173.429688 C 224.8125 168.949219 226.734375 164.46875 228.65625 160.015625 L 228.824219 159.632812 L 229.097656 159.9375 C 232.039062 163.066406 234.210938 166.832031 235.363281 171.007812 C 236.597656 175.570312 236.488281 180.296875 235.390625 184.886719 C 235.253906 185.433594 235.609375 186.011719 236.183594 186.148438 C 236.214844 186.148438 236.269531 186.175781 236.296875 186.175781 L 236.324219 186.175781 C 239.648438 186.785156 242.972656 187.6875 246.078125 189.035156 C 250.777344 191.042969 254.898438 194.117188 257.207031 198.820312 C 257.976562 200.414062 258.527344 202.113281 258.828125 203.875 L 258.886719 204.175781 L 258.582031 204.175781 C 258.335938 204.203125 258.113281 204.285156 257.921875 204.453125 C 252.8125 209.039062 247.703125 213.628906 242.5625 218.246094 L 242.34375 218.464844 L 242.175781 218.1875 C 235.636719 206.980469 229.097656 195.796875 222.585938 184.582031 C 222.007812 184.996094 221.375 185.328125 220.714844 185.546875 Z M 255.585938 269.878906 C 257.785156 266.691406 260.011719 263.53125 262.210938 260.34375 C 262.429688 260.015625 262.457031 259.601562 262.261719 259.242188 C 256.742188 247.539062 251.191406 235.859375 245.640625 224.152344 C 245.640625 224.125 245.613281 224.097656 245.585938 224.042969 C 244.898438 222.859375 244.210938 221.679688 243.523438 220.5 L 243.414062 220.308594 L 243.578125 220.167969 C 248.609375 215.636719 253.664062 211.101562 258.691406 206.566406 L 259.105469 206.183594 L 259.132812 206.730469 C 259.269531 209.234375 259.023438 211.761719 258.582031 214.207031 C 257.757812 218.6875 256.21875 223.109375 254.40625 227.257812 C 254.210938 227.753906 254.40625 228.328125 254.84375 228.578125 L 254.871094 228.605469 C 257.402344 230.226562 259.734375 232.230469 261.714844 234.515625 C 265.039062 238.359375 267.484375 243.058594 268.226562 248.144531 C 269.050781 253.691406 267.703125 258.996094 264.710938 263.695312 C 263.0625 266.253906 261 268.53125 258.71875 270.539062 L 258.664062 270.59375 L 258.554688 270.621094 C 257.921875 270.675781 257.292969 270.730469 256.660156 270.757812 L 256.523438 270.785156 L 256.4375 270.675781 C 256.273438 270.457031 256.027344 270.316406 255.75 270.289062 L 255.339844 270.234375 Z M 166.914062 236.1875 C 174.578125 231.269531 182.273438 226.351562 189.9375 221.433594 L 190.214844 221.238281 L 190.324219 221.542969 C 192.878906 228.386719 195.40625 235.226562 197.964844 242.070312 L 197.992188 242.152344 L 197.964844 242.234375 C 196.398438 246.523438 194.832031 250.835938 193.265625 255.121094 L 193.210938 255.285156 L 193.019531 255.285156 C 184.691406 255.78125 176.339844 256.277344 167.984375 256.769531 C 167.683594 256.796875 167.433594 256.933594 167.242188 257.15625 L 166.777344 257.707031 L 166.777344 256.992188 C 166.777344 250.121094 166.777344 243.277344 166.777344 236.410156 L 166.777344 236.273438 Z M 258.910156 272.679688 L 259.160156 272.652344 C 259.378906 272.628906 259.597656 272.542969 259.765625 272.40625 C 262.320312 270.179688 264.628906 267.679688 266.46875 264.824219 C 269.765625 259.683594 271.195312 253.914062 270.316406 247.839844 C 269.519531 242.371094 266.878906 237.316406 263.28125 233.167969 C 261.410156 230.996094 259.242188 229.042969 256.851562 227.398438 L 256.6875 227.285156 L 256.765625 227.09375 C 258.445312 223.082031 259.84375 218.878906 260.644531 214.589844 C 261.660156 209.039062 261.605469 203.078125 259.074219 197.910156 C 256.550781 192.746094 252.097656 189.335938 246.902344 187.085938 C 244.046875 185.847656 240.996094 184.996094 237.917969 184.363281 L 237.671875 184.308594 L 237.726562 184.0625 C 238.632812 179.527344 238.578125 174.910156 237.367188 170.460938 C 235.910156 165.15625 232.917969 160.484375 228.878906 156.804688 C 225.691406 153.890625 221.484375 151.359375 217.253906 150.34375 C 215.964844 150.042969 214.558594 149.851562 213.242188 149.933594 L 212.964844 149.960938 L 212.964844 149.714844 C 212.75 146.222656 210.988281 143.089844 208.679688 140.5625 C 207.085938 138.832031 205.21875 137.375 203.210938 136.167969 C 203.1875 136.140625 203.1875 136.140625 203.160156 136.109375 L 203.128906 136.109375 C 201.179688 134.929688 199.089844 133.96875 196.921875 133.253906 C 192.109375 131.632812 186.863281 131.109375 181.832031 132.015625 C 174.824219 133.28125 169.085938 137.101562 164.960938 142.871094 L 164.933594 142.898438 C 164.769531 143.089844 164.6875 143.335938 164.6875 143.585938 C 164.6875 147.351562 164.6875 151.144531 164.6875 154.90625 C 164.6875 170.957031 164.6875 186.976562 164.6875 203.023438 C 164.6875 241.382812 164.6875 279.769531 164.6875 318.128906 L 164.6875 318.40625 C 164.6875 318.707031 164.824219 319.011719 165.070312 319.203125 C 169.441406 322.882812 174.359375 326.097656 179.746094 328.078125 L 179.746094 328.105469 C 179.800781 328.105469 179.828125 328.132812 179.882812 328.132812 C 183.5625 329.480469 187.410156 330.195312 191.339844 330.167969 C 201.507812 330.058594 210.382812 324.863281 217.746094 318.238281 L 217.859375 318.160156 L 217.96875 318.160156 C 225.277344 319.585938 232.832031 319.121094 239.734375 316.179688 C 244.621094 314.0625 248.9375 310.820312 252.261719 306.671875 C 255.585938 302.578125 257.839844 297.714844 258.910156 292.546875 C 260.257812 286.0625 259.679688 279.359375 257.457031 273.148438 L 257.316406 272.820312 L 257.675781 272.792969 C 258.085938 272.761719 258.5 272.707031 258.910156 272.679688 " fill-opacity="1" fill-rule="evenodd"/></g><path stroke-linecap="butt" transform="matrix(0.75, 0, 0, 0.75, 138.497617, 302.887419)" fill="none" stroke-linejoin="miter" d="M 75.888599 23.624068 L 15.81047 23.624068 C 12.680261 23.624068 9.675053 22.379277 7.461511 20.165735 C 5.242761 17.946985 3.997969 14.946984 3.997969 11.811568 L 3.997969 -0.000933411 " stroke="#545454" stroke-width="8" stroke-opacity="1" stroke-miterlimit="4"/><path stroke-linecap="butt" transform="matrix(0.75, 0, 0, 0.75, 123.185153, 139.202024)" fill="none" stroke-linejoin="miter" d="M 98.503137 4.001468 L 88.33647 4.001468 C 82.721886 4.001468 78.169802 8.553552 78.169802 14.168135 L 78.169802 40.423346 C 78.169802 48.704596 71.45626 55.423347 63.169801 55.423347 L 7.388547 55.423347 C 5.518755 55.423347 3.997921 56.938972 3.997921 58.808764 L 3.997921 62.194181 " stroke="#545454" stroke-width="8" stroke-opacity="1" stroke-miterlimit="4"/><path stroke-linecap="butt" transform="matrix(0.75, 0, 0, 0.75, 136.347126, 213.345159)" fill="none" stroke-linejoin="miter" d="M 113.92259 28.440832 L 94.542381 28.440832 C 87.79238 28.440832 82.32363 22.966874 82.32363 16.222081 C 82.32363 9.472081 76.854879 3.998122 70.104879 3.998122 L 0.000706582 3.998122 " stroke="#545454" stroke-width="8" stroke-opacity="1" stroke-miterlimit="4"/><path stroke-linecap="butt" transform="matrix(0.75, 0, 0, 0.75, 117.797504, 243.703911)" fill="none" stroke-linejoin="miter" d="M -0.000838344 3.998953 L 11.999163 3.998953 C 15.181455 3.998953 18.233538 5.264578 20.483538 7.514578 C 22.733538 9.764578 23.999164 12.816662 23.999164 15.998954 L 23.999164 19.228121 C 23.999164 23.269788 25.60333 27.144788 28.457497 29.998955 C 31.316872 32.85833 35.186664 34.462497 39.228331 34.462497 L 113.03042 34.462497 C 121.540838 34.462497 128.44188 41.358331 128.44188 49.868748 L 128.44188 65.274999 " stroke="#545454" stroke-width="8" stroke-opacity="1" stroke-miterlimit="4"/><g clip-path="url(#5e81d3886e)"><path fill="#545454" d="M 128.765625 151.457031 C 134.933594 152.570312 139.984375 155.933594 143.613281 161.007812 L 143.636719 161.03125 C 143.78125 161.203125 143.855469 161.417969 143.855469 161.636719 C 143.855469 164.949219 143.855469 168.289062 143.855469 171.597656 C 143.855469 185.71875 143.855469 199.816406 143.855469 213.9375 C 143.855469 247.691406 143.855469 281.46875 143.855469 315.222656 L 143.855469 315.464844 C 143.855469 315.730469 143.734375 315.996094 143.515625 316.164062 C 139.671875 319.40625 135.34375 322.234375 130.605469 323.976562 L 130.605469 324 C 130.554688 324 130.53125 324.023438 130.484375 324.023438 C 127.242188 325.207031 123.859375 325.835938 120.402344 325.8125 C 111.453125 325.714844 103.644531 321.144531 97.164062 315.316406 L 97.066406 315.246094 L 96.972656 315.246094 C 90.539062 316.503906 83.890625 316.09375 77.820312 313.503906 C 73.515625 311.644531 69.722656 308.789062 66.796875 305.140625 C 63.871094 301.539062 61.886719 297.257812 60.945312 292.710938 C 59.757812 287.003906 60.265625 281.105469 62.226562 275.640625 L 62.347656 275.351562 L 62.03125 275.328125 C 61.667969 275.300781 61.308594 275.253906 60.945312 275.230469 L 60.726562 275.207031 C 60.535156 275.183594 60.339844 275.109375 60.195312 274.988281 C 57.945312 273.027344 55.914062 270.832031 54.296875 268.316406 C 51.394531 263.792969 50.136719 258.714844 50.910156 253.371094 C 51.613281 248.5625 53.933594 244.113281 57.101562 240.460938 C 58.742188 238.550781 60.652344 236.832031 62.757812 235.382812 L 62.902344 235.285156 L 62.832031 235.117188 C 61.355469 231.585938 60.121094 227.890625 59.421875 224.117188 C 58.527344 219.230469 58.574219 213.984375 60.800781 209.4375 C 63.023438 204.894531 66.941406 201.894531 71.511719 199.914062 C 74.027344 198.824219 76.710938 198.074219 79.417969 197.519531 L 79.636719 197.472656 L 79.585938 197.253906 C 78.789062 193.261719 78.835938 189.199219 79.902344 185.285156 C 81.183594 180.617188 83.816406 176.507812 87.371094 173.269531 C 90.175781 170.703125 93.875 168.480469 97.601562 167.585938 C 98.738281 167.320312 99.96875 167.152344 101.128906 167.222656 L 101.371094 167.246094 L 101.371094 167.03125 C 101.566406 163.957031 103.113281 161.203125 105.144531 158.976562 C 106.546875 157.453125 108.191406 156.171875 109.953125 155.109375 C 109.980469 155.085938 109.980469 155.085938 110.003906 155.058594 L 110.027344 155.058594 C 111.746094 154.019531 113.582031 153.175781 115.492188 152.546875 C 119.722656 151.121094 124.339844 150.660156 128.765625 151.457031 Z M 216.527344 290.003906 C 219.042969 290.003906 221.097656 292.035156 221.097656 294.574219 C 221.097656 297.085938 219.042969 299.144531 216.527344 299.144531 C 214.015625 299.144531 211.957031 297.085938 211.957031 294.574219 C 211.957031 292.035156 214.015625 290.003906 216.527344 290.003906 Z M 173.320312 270.394531 C 175.835938 270.394531 177.890625 272.449219 177.890625 274.964844 C 177.890625 277.480469 175.835938 279.535156 173.320312 279.535156 C 170.804688 279.535156 168.75 277.480469 168.75 274.964844 C 168.75 272.449219 170.804688 270.394531 173.320312 270.394531 Z M 182.726562 296.628906 C 185.265625 296.628906 187.296875 298.660156 187.296875 301.199219 C 187.296875 303.714844 185.265625 305.746094 182.726562 305.746094 C 180.210938 305.746094 178.179688 303.714844 178.179688 301.199219 C 178.179688 298.660156 180.210938 296.628906 182.726562 296.628906 Z M 215.292969 271.941406 C 217.808594 271.941406 219.863281 273.972656 219.863281 276.488281 C 219.863281 279.027344 217.808594 281.058594 215.292969 281.058594 C 212.777344 281.058594 210.726562 279.027344 210.726562 276.488281 C 210.726562 273.972656 212.777344 271.941406 215.292969 271.941406 Z M 212.632812 231.054688 C 215.148438 231.054688 217.203125 233.109375 217.203125 235.625 C 217.203125 238.140625 215.148438 240.195312 212.632812 240.195312 C 210.097656 240.195312 208.066406 238.140625 208.066406 235.625 C 208.066406 233.109375 210.097656 231.054688 212.632812 231.054688 Z M 186.617188 252.042969 C 189.132812 252.042969 191.164062 254.097656 191.164062 256.613281 C 191.164062 259.128906 189.132812 261.179688 186.617188 261.179688 C 184.078125 261.179688 182.046875 259.128906 182.046875 256.613281 C 182.046875 254.097656 184.078125 252.042969 186.617188 252.042969 Z M 171 208.085938 C 173.515625 208.085938 175.542969 210.113281 175.542969 212.628906 C 175.542969 215.167969 173.515625 217.199219 171 217.199219 C 168.460938 217.199219 166.429688 215.167969 166.429688 212.628906 C 166.429688 210.113281 168.460938 208.085938 171 208.085938 Z M 192.398438 207.410156 C 194.914062 207.410156 196.96875 209.464844 196.96875 211.980469 C 196.96875 214.492188 194.914062 216.546875 192.398438 216.546875 C 189.882812 216.546875 187.828125 214.492188 187.828125 211.980469 C 187.828125 209.464844 189.882812 207.410156 192.398438 207.410156 Z M 199.699219 188.136719 C 202.214844 188.136719 204.246094 190.167969 204.246094 192.707031 C 204.246094 195.222656 202.214844 197.277344 199.699219 197.277344 C 197.160156 197.277344 195.128906 195.222656 195.128906 192.707031 C 195.128906 190.167969 197.160156 188.136719 199.699219 188.136719 Z M 177.9375 176.703125 C 180.453125 176.703125 182.507812 178.734375 182.507812 181.269531 C 182.507812 183.785156 180.453125 185.816406 177.9375 185.816406 C 175.425781 185.816406 173.367188 183.785156 173.367188 181.269531 C 173.367188 178.734375 175.425781 176.703125 177.9375 176.703125 Z M 193.679688 191.234375 C 193.824219 190.625 194.066406 190.046875 194.402344 189.515625 C 190.851562 187.460938 187.320312 185.382812 183.765625 183.300781 C 183.574219 183.882812 183.28125 184.4375 182.917969 184.921875 C 186.5 187.027344 190.101562 189.128906 193.679688 191.234375 Z M 177.164062 212.628906 C 180.1875 212.484375 183.210938 212.316406 186.234375 212.171875 C 186.234375 212.097656 186.234375 212.050781 186.234375 211.980469 C 186.234375 211.421875 186.304688 210.867188 186.449219 210.308594 C 183.257812 210.476562 180.066406 210.648438 176.875 210.792969 C 177.066406 211.398438 177.164062 212 177.164062 212.628906 Z M 179.21875 296.121094 C 179.726562 295.757812 180.285156 295.492188 180.890625 295.300781 C 179.269531 290.367188 177.625 285.457031 176.003906 280.523438 C 175.449219 280.792969 174.867188 280.984375 174.238281 281.082031 C 175.90625 286.085938 177.550781 291.09375 179.21875 296.121094 Z M 183.621094 262.027344 C 183.089844 261.714844 182.582031 261.351562 182.171875 260.890625 C 180.210938 263.792969 178.253906 266.671875 176.292969 269.574219 C 176.851562 269.863281 177.335938 270.25 177.769531 270.683594 C 179.726562 267.808594 181.6875 264.90625 183.621094 262.027344 Z M 210.847656 280.765625 C 210.410156 280.332031 210.046875 279.824219 209.78125 279.265625 C 202.214844 285.121094 194.648438 290.96875 187.078125 296.796875 C 187.511719 297.230469 187.902344 297.742188 188.191406 298.273438 C 195.734375 292.445312 203.277344 286.617188 210.847656 280.765625 Z M 214.351562 270.394531 C 212.585938 265.871094 210.820312 261.375 209.054688 256.855469 L 209.03125 256.804688 L 209.054688 256.734375 C 210.242188 251.753906 211.402344 246.773438 212.585938 241.792969 C 211.957031 241.792969 211.355469 241.695312 210.75 241.5 C 209.566406 246.554688 208.378906 251.609375 207.195312 256.660156 C 207.148438 256.828125 207.148438 257.023438 207.21875 257.191406 C 209.007812 261.785156 210.796875 266.355469 212.585938 270.953125 C 213.144531 270.683594 213.746094 270.492188 214.351562 270.394531 Z M 191.890625 259.804688 C 191.574219 260.335938 191.164062 260.820312 190.703125 261.230469 C 197.089844 265.316406 203.496094 269.402344 209.902344 273.488281 C 210.21875 272.933594 210.582031 272.449219 211.039062 272.039062 C 204.65625 267.953125 198.273438 263.890625 191.890625 259.804688 Z M 198.707031 198.800781 C 198.078125 198.703125 197.5 198.511719 196.941406 198.21875 C 195.804688 200.78125 194.695312 203.347656 193.582031 205.910156 C 194.1875 206.03125 194.765625 206.246094 195.324219 206.539062 C 196.433594 203.949219 197.570312 201.390625 198.707031 198.800781 Z M 210.796875 296.386719 C 210.601562 295.804688 210.507812 295.179688 210.507812 294.574219 L 188.648438 299.433594 C 188.820312 299.988281 188.914062 300.59375 188.914062 301.199219 C 188.914062 301.199219 188.914062 301.222656 188.914062 301.246094 Z M 201.660156 198.558594 C 207.507812 208.566406 213.335938 218.601562 219.1875 228.613281 L 219.285156 228.78125 L 219.140625 228.902344 C 218.339844 229.605469 217.542969 230.328125 216.769531 231.03125 C 217.230469 231.441406 217.613281 231.925781 217.929688 232.457031 C 218.632812 231.828125 219.332031 231.199219 220.007812 230.59375 L 220.226562 230.402344 L 220.375 230.644531 C 220.902344 231.539062 221.414062 232.433594 221.945312 233.351562 C 226.730469 243.460938 231.519531 253.539062 236.308594 263.648438 L 236.355469 263.769531 L 236.28125 263.867188 C 233.960938 267.179688 231.664062 270.492188 229.367188 273.800781 L 229.296875 273.902344 L 229.199219 273.902344 C 226.511719 274.117188 223.832031 274.359375 221.171875 274.578125 C 221.363281 275.183594 221.460938 275.785156 221.460938 276.414062 C 223.46875 276.246094 225.449219 276.078125 227.433594 275.90625 L 227.941406 275.859375 L 218.777344 288.988281 C 219.355469 289.230469 219.890625 289.542969 220.375 289.929688 L 230.308594 275.667969 L 230.429688 275.640625 C 230.890625 275.617188 231.328125 275.566406 231.785156 275.519531 L 231.953125 275.519531 L 232.027344 275.667969 C 234.03125 280.984375 234.636719 286.761719 233.476562 292.351562 C 232.582031 296.601562 230.722656 300.59375 227.988281 303.980469 C 227.09375 305.117188 226.101562 306.15625 225.039062 307.121094 L 224.820312 307.316406 L 220.226562 299.3125 C 219.742188 299.699219 219.210938 299.988281 218.632812 300.207031 L 223.371094 308.476562 L 223.226562 308.597656 C 221.511719 309.878906 219.625 310.964844 217.664062 311.8125 C 211.765625 314.328125 205.261719 314.640625 199.046875 313.335938 C 198.753906 313.289062 198.441406 313.359375 198.226562 313.554688 C 192.035156 319.261719 184.441406 323.878906 175.785156 323.976562 C 173.078125 324 170.394531 323.585938 167.808594 322.789062 L 167.492188 322.691406 L 167.6875 322.425781 C 171.675781 317.132812 175.664062 311.839844 179.65625 306.542969 C 179.125 306.226562 178.640625 305.839844 178.230469 305.40625 C 174.070312 310.894531 169.910156 316.40625 165.777344 321.894531 L 165.65625 322.039062 L 165.484375 321.96875 C 161.425781 320.347656 157.652344 317.90625 154.289062 315.101562 L 154.195312 315.027344 L 154.195312 314.933594 C 154.195312 302.769531 154.195312 290.609375 154.195312 278.472656 L 154.195312 278.253906 L 154.410156 278.226562 C 158.765625 277.816406 163.117188 277.40625 167.492188 276.996094 C 167.277344 276.414062 167.179688 275.8125 167.15625 275.183594 C 162.921875 275.59375 158.691406 275.980469 154.460938 276.390625 L 154.195312 276.414062 L 154.195312 276.148438 C 154.195312 271.726562 154.195312 267.324219 154.195312 262.898438 L 154.195312 262.269531 L 154.605469 262.753906 C 154.800781 262.972656 155.0625 263.09375 155.355469 263.066406 C 162.972656 262.609375 170.5625 262.171875 178.15625 261.714844 C 178.519531 261.691406 178.832031 261.449219 178.953125 261.109375 C 179.460938 259.753906 179.945312 258.402344 180.453125 257.046875 C 180.429688 256.902344 180.429688 256.757812 180.429688 256.613281 C 180.429688 254.992188 181.058594 253.46875 182.171875 252.308594 C 182.265625 252.089844 182.339844 251.847656 182.4375 251.609375 L 182.652344 251.027344 L 182.871094 251.609375 C 182.871094 251.632812 182.871094 251.65625 182.894531 251.679688 C 183.378906 251.316406 183.933594 251.003906 184.515625 250.808594 C 184.222656 250.011719 183.933594 249.238281 183.644531 248.441406 L 183.621094 248.367188 L 183.644531 248.296875 C 184.492188 245.925781 185.363281 243.578125 186.207031 241.234375 L 186.234375 241.183594 L 186.253906 241.164062 C 190.078125 236.761719 193.894531 232.335938 197.714844 227.9375 L 197.835938 227.789062 L 198.007812 227.890625 C 198.175781 227.984375 198.34375 228.082031 198.539062 228.203125 L 198.609375 228.226562 L 198.636719 228.300781 C 199.601562 230.667969 200.59375 233.015625 201.585938 235.359375 L 201.632812 235.480469 L 201.535156 235.601562 C 197.5 240.75 193.4375 245.925781 189.375 251.101562 C 189.929688 251.363281 190.441406 251.726562 190.898438 252.164062 C 195.058594 246.84375 199.238281 241.523438 203.421875 236.203125 C 203.617188 235.9375 203.664062 235.554688 203.519531 235.238281 C 202.84375 233.617188 202.164062 231.996094 201.488281 230.378906 L 201.222656 229.75 L 201.828125 230.113281 C 203.542969 231.101562 205.261719 232.09375 207 233.085938 C 207.242188 232.53125 207.582031 231.996094 207.992188 231.539062 C 205.382812 230.039062 202.746094 228.515625 200.132812 226.992188 L 200.0625 226.945312 L 200.039062 226.871094 C 198.660156 223.609375 197.304688 220.320312 195.925781 217.054688 C 195.421875 217.394531 194.863281 217.683594 194.285156 217.878906 C 195.324219 220.394531 196.386719 222.929688 197.425781 225.445312 L 197.523438 225.664062 L 197.304688 225.757812 C 197.160156 225.808594 197.015625 225.902344 196.917969 226.027344 L 196.917969 226.050781 C 192.855469 230.738281 188.792969 235.429688 184.730469 240.121094 C 184.660156 240.195312 184.613281 240.289062 184.5625 240.410156 C 183.984375 241.984375 183.425781 243.554688 182.847656 245.125 L 182.628906 245.707031 L 182.410156 245.125 C 180.40625 239.734375 178.398438 234.34375 176.390625 228.953125 L 176.34375 228.808594 L 176.464844 228.710938 C 180.378906 224.648438 184.296875 220.585938 188.238281 216.546875 C 187.78125 216.113281 187.390625 215.628906 187.078125 215.097656 C 182.945312 219.351562 178.832031 223.582031 174.722656 227.839844 L 174.699219 227.863281 L 174.675781 227.863281 C 168.675781 231.707031 162.679688 235.554688 156.710938 239.398438 L 155.910156 239.90625 L 156.371094 239.082031 C 160.335938 232.121094 164.300781 225.15625 168.242188 218.167969 C 167.6875 217.902344 167.179688 217.539062 166.742188 217.105469 C 162.703125 224.210938 158.667969 231.320312 154.628906 238.429688 L 154.195312 239.203125 L 154.195312 238.332031 C 154.195312 230.546875 154.195312 222.738281 154.195312 214.953125 L 154.195312 214.757812 L 154.410156 214.734375 C 157.894531 214.347656 161.402344 213.960938 164.882812 213.597656 C 164.835938 213.285156 164.808594 212.945312 164.808594 212.628906 C 164.808594 212.339844 164.835938 212.027344 164.882812 211.734375 C 162.585938 211.980469 160.289062 212.242188 157.988281 212.484375 L 157.023438 212.582031 L 157.84375 212.074219 C 163.164062 208.617188 168.507812 205.160156 173.828125 201.726562 L 173.828125 201.703125 C 174.070312 201.582031 174.238281 201.363281 174.289062 201.097656 C 175.277344 196.527344 176.269531 191.957031 177.261719 187.386719 C 176.632812 187.316406 176.027344 187.167969 175.472656 186.929688 C 174.503906 191.355469 173.539062 195.800781 172.59375 200.25 L 172.570312 200.347656 L 172.5 200.398438 C 166.5 204.265625 160.527344 208.132812 154.558594 212 L 154.195312 212.242188 L 154.195312 211.808594 C 154.195312 198.96875 154.195312 186.105469 154.195312 173.269531 L 154.195312 172.929688 L 154.507812 173.050781 C 160.335938 175.25 166.164062 177.449219 171.992188 179.652344 C 172.136719 179.046875 172.402344 178.488281 172.714844 177.960938 C 166.597656 175.636719 160.480469 173.339844 154.339844 171.019531 L 154.195312 170.96875 L 154.195312 170.800781 C 154.195312 167.875 154.195312 164.925781 154.195312 162 L 154.195312 161.925781 L 154.242188 161.855469 C 157.578125 157.285156 162.199219 154.261719 167.785156 153.273438 C 171.894531 152.523438 176.199219 152.957031 180.140625 154.285156 C 181.636719 154.792969 183.113281 155.421875 184.492188 156.195312 L 184.660156 156.292969 L 184.585938 156.460938 C 182.605469 162.679688 180.597656 168.890625 178.59375 175.128906 C 179.21875 175.175781 179.824219 175.347656 180.378906 175.589844 C 182.121094 170.148438 183.863281 164.730469 185.625 159.292969 L 185.820312 158.664062 L 186.0625 159.292969 C 189.566406 168.648438 193.074219 178.007812 196.554688 187.363281 C 197.089844 187.050781 197.667969 186.832031 198.273438 186.6875 C 194.839844 177.496094 191.40625 168.308594 187.949219 159.148438 L 187.636719 158.277344 L 188.335938 158.882812 C 188.792969 159.316406 189.277344 159.75 189.6875 160.234375 C 191.71875 162.410156 193.21875 165.238281 192.976562 168.289062 C 192.953125 168.792969 193.339844 169.226562 193.824219 169.277344 C 193.96875 169.277344 194.089844 169.253906 194.210938 169.226562 L 194.210938 169.207031 L 194.234375 169.207031 C 195.46875 168.890625 196.941406 169.082031 198.175781 169.375 C 201.464844 170.148438 204.703125 172.082031 207.242188 174.308594 L 207.363281 174.402344 L 207.292969 174.574219 C 207.269531 174.621094 207.242188 174.671875 207.21875 174.742188 C 205.453125 178.804688 203.664062 182.867188 201.875 186.929688 C 202.480469 187.167969 203.0625 187.484375 203.542969 187.894531 C 205.261719 183.953125 206.953125 180.011719 208.644531 176.09375 L 208.789062 175.757812 L 209.03125 176.023438 C 211.621094 178.78125 213.53125 182.09375 214.546875 185.765625 C 215.632812 189.78125 215.539062 193.941406 214.570312 197.976562 C 214.449219 198.460938 214.765625 198.96875 215.269531 199.089844 C 215.292969 199.089844 215.34375 199.113281 215.367188 199.113281 L 215.390625 199.113281 C 218.316406 199.648438 221.242188 200.445312 223.976562 201.628906 C 228.109375 203.394531 231.738281 206.101562 233.765625 210.238281 C 234.445312 211.640625 234.929688 213.136719 235.195312 214.6875 L 235.242188 214.953125 L 234.976562 214.953125 C 234.761719 214.976562 234.566406 215.050781 234.398438 215.195312 C 229.898438 219.230469 225.402344 223.269531 220.882812 227.332031 L 220.6875 227.527344 L 220.542969 227.28125 C 214.789062 217.417969 209.03125 207.578125 203.300781 197.710938 C 202.792969 198.074219 202.238281 198.367188 201.660156 198.558594 Z M 232.339844 272.765625 C 234.277344 269.960938 236.234375 267.179688 238.167969 264.375 C 238.363281 264.085938 238.386719 263.722656 238.214844 263.40625 C 233.355469 253.105469 228.472656 242.832031 223.589844 232.53125 C 223.589844 232.503906 223.5625 232.480469 223.539062 232.433594 C 222.933594 231.394531 222.332031 230.355469 221.726562 229.3125 L 221.628906 229.144531 L 221.777344 229.023438 C 226.199219 225.035156 230.648438 221.046875 235.074219 217.054688 L 235.4375 216.714844 L 235.460938 217.199219 C 235.582031 219.402344 235.363281 221.625 234.976562 223.777344 C 234.25 227.71875 232.898438 231.613281 231.300781 235.261719 C 231.132812 235.699219 231.300781 236.203125 231.6875 236.421875 L 231.710938 236.449219 C 233.9375 237.875 235.992188 239.636719 237.734375 241.648438 C 240.660156 245.03125 242.8125 249.164062 243.464844 253.640625 C 244.1875 258.523438 243.003906 263.1875 240.367188 267.324219 C 238.917969 269.574219 237.105469 271.578125 235.097656 273.34375 L 235.050781 273.390625 L 234.953125 273.417969 C 234.398438 273.464844 233.839844 273.511719 233.285156 273.539062 L 233.164062 273.5625 L 233.089844 273.464844 C 232.945312 273.273438 232.726562 273.152344 232.484375 273.125 L 232.125 273.078125 Z M 154.316406 243.121094 C 161.0625 238.792969 167.832031 234.464844 174.578125 230.136719 L 174.820312 229.964844 L 174.914062 230.234375 C 177.164062 236.253906 179.390625 242.273438 181.636719 248.296875 L 181.664062 248.367188 L 181.636719 248.441406 C 180.261719 252.210938 178.882812 256.007812 177.503906 259.777344 L 177.457031 259.925781 L 177.285156 259.925781 C 169.960938 260.359375 162.609375 260.796875 155.257812 261.230469 C 154.992188 261.253906 154.773438 261.375 154.605469 261.570312 L 154.195312 262.054688 L 154.195312 261.425781 C 154.195312 255.378906 154.195312 249.359375 154.195312 243.3125 L 154.195312 243.195312 Z M 235.265625 275.230469 L 235.484375 275.203125 C 235.679688 275.183594 235.871094 275.109375 236.015625 274.988281 C 238.265625 273.027344 240.296875 270.832031 241.917969 268.316406 C 244.816406 263.792969 246.074219 258.714844 245.300781 253.371094 C 244.601562 248.5625 242.277344 244.113281 239.113281 240.460938 C 237.464844 238.550781 235.558594 236.832031 233.453125 235.382812 L 233.308594 235.285156 L 233.378906 235.117188 C 234.855469 231.585938 236.089844 227.890625 236.789062 224.117188 C 237.683594 219.230469 237.636719 213.984375 235.410156 209.4375 C 233.1875 204.894531 229.269531 201.894531 224.699219 199.914062 C 222.1875 198.824219 219.5 198.074219 216.792969 197.519531 L 216.578125 197.46875 L 216.625 197.253906 C 217.421875 193.261719 217.375 189.199219 216.3125 185.285156 C 215.027344 180.617188 212.394531 176.507812 208.839844 173.269531 C 206.035156 170.703125 202.335938 168.480469 198.609375 167.585938 C 197.476562 167.320312 196.242188 167.152344 195.082031 167.222656 L 194.839844 167.246094 L 194.839844 167.03125 C 194.648438 163.957031 193.101562 161.203125 191.066406 158.976562 C 189.664062 157.453125 188.019531 156.171875 186.253906 155.109375 C 186.234375 155.085938 186.234375 155.085938 186.207031 155.058594 L 186.183594 155.058594 C 184.46875 154.019531 182.628906 153.175781 180.71875 152.546875 C 176.488281 151.121094 171.871094 150.660156 167.445312 151.457031 C 161.277344 152.570312 156.226562 155.933594 152.597656 161.007812 L 152.574219 161.03125 C 152.429688 161.203125 152.359375 161.417969 152.359375 161.636719 C 152.359375 164.949219 152.359375 168.289062 152.359375 171.597656 C 152.359375 185.71875 152.359375 199.816406 152.359375 213.9375 C 152.359375 247.691406 152.359375 281.46875 152.359375 315.222656 L 152.359375 315.464844 C 152.359375 315.730469 152.476562 315.996094 152.695312 316.164062 C 156.539062 319.40625 160.867188 322.234375 165.609375 323.976562 L 165.609375 324 C 165.65625 324 165.679688 324.023438 165.726562 324.023438 C 168.96875 325.207031 172.351562 325.835938 175.808594 325.8125 C 184.757812 325.714844 192.566406 321.144531 199.046875 315.316406 L 199.144531 315.246094 L 199.238281 315.246094 C 205.671875 316.503906 212.320312 316.09375 218.390625 313.503906 C 222.695312 311.644531 226.492188 308.789062 229.414062 305.140625 C 232.339844 301.539062 234.324219 297.257812 235.265625 292.710938 C 236.453125 287.003906 235.945312 281.105469 233.984375 275.640625 L 233.863281 275.351562 L 234.179688 275.328125 C 234.542969 275.300781 234.90625 275.253906 235.265625 275.230469 " fill-opacity="1" fill-rule="evenodd"/></g><g fill="#737373" fill-opacity="0.2"><g transform="translate(314.690035, 295.002099)"><g><path d="M 32.28125 -81.21875 L 32.28125 -25.765625 C 32.28125 -21.179688 33.253906 -17.941406 35.203125 -16.046875 C 37.148438 -14.160156 40.523438 -13.21875 45.328125 -13.21875 L 56.84375 -13.21875 L 56.84375 0 L 42.765625 0 C 34.054688 0 27.523438 -2 23.171875 -6 C 18.828125 -10.007812 16.65625 -16.597656 16.65625 -25.765625 L 16.65625 -81.21875 L 4.46875 -81.21875 L 4.46875 -94.109375 L 16.65625 -94.109375 L 16.65625 -117.796875 L 32.28125 -117.796875 L 32.28125 -94.109375 L 56.84375 -94.109375 L 56.84375 -81.21875 Z M 32.28125 -81.21875 "/></g></g></g><g fill="#737373" fill-opacity="0.2"><g transform="translate(375.816198, 295.002099)"><g><path d="M 99.078125 -50.65625 C 99.078125 -47.675781 98.90625 -44.53125 98.5625 -41.21875 L 23.359375 -41.21875 C 23.929688 -31.9375 27.109375 -24.691406 32.890625 -19.484375 C 38.671875 -14.273438 45.679688 -11.671875 53.921875 -11.671875 C 60.671875 -11.671875 66.304688 -13.242188 70.828125 -16.390625 C 75.347656 -19.546875 78.523438 -23.753906 80.359375 -29.015625 L 97.1875 -29.015625 C 94.675781 -19.972656 89.640625 -12.617188 82.078125 -6.953125 C 74.523438 -1.285156 65.140625 1.546875 53.921875 1.546875 C 44.992188 1.546875 37.007812 -0.453125 29.96875 -4.453125 C 22.925781 -8.460938 17.398438 -14.160156 13.390625 -21.546875 C 9.390625 -28.929688 7.390625 -37.488281 7.390625 -47.21875 C 7.390625 -56.945312 9.332031 -65.472656 13.21875 -72.796875 C 17.113281 -80.128906 22.582031 -85.769531 29.625 -89.71875 C 36.664062 -93.664062 44.765625 -95.640625 53.921875 -95.640625 C 62.847656 -95.640625 70.742188 -93.691406 77.609375 -89.796875 C 84.484375 -85.910156 89.78125 -80.5625 93.5 -73.75 C 97.21875 -66.9375 99.078125 -59.238281 99.078125 -50.65625 Z M 82.9375 -53.921875 C 82.9375 -59.867188 81.617188 -64.988281 78.984375 -69.28125 C 76.359375 -73.582031 72.78125 -76.847656 68.25 -79.078125 C 63.726562 -81.304688 58.722656 -82.421875 53.234375 -82.421875 C 45.335938 -82.421875 38.613281 -79.898438 33.0625 -74.859375 C 27.507812 -69.828125 24.332031 -62.847656 23.53125 -53.921875 Z M 82.9375 -53.921875 "/></g></g></g><g fill="#737373" fill-opacity="0.2"><g transform="translate(480.898335, 295.002099)"><g><path d="M 59.078125 -95.8125 C 70.523438 -95.8125 79.796875 -92.347656 86.890625 -85.421875 C 93.984375 -78.503906 97.53125 -68.519531 97.53125 -55.46875 L 97.53125 0 L 82.078125 0 L 82.078125 -53.234375 C 82.078125 -62.617188 79.726562 -69.800781 75.03125 -74.78125 C 70.34375 -79.757812 63.9375 -82.25 55.8125 -82.25 C 47.5625 -82.25 41.003906 -79.671875 36.140625 -74.515625 C 31.273438 -69.367188 28.84375 -61.875 28.84375 -52.03125 L 28.84375 0 L 13.21875 0 L 13.21875 -94.109375 L 28.84375 -94.109375 L 28.84375 -80.703125 C 31.9375 -85.515625 36.144531 -89.234375 41.46875 -91.859375 C 46.789062 -94.492188 52.660156 -95.8125 59.078125 -95.8125 Z M 59.078125 -95.8125 "/></g></g></g><g fill="#737373" fill-opacity="0.2"><g transform="translate(589.414547, 295.002099)"><g><path d="M 46.53125 1.546875 C 39.320312 1.546875 32.851562 0.316406 27.125 -2.140625 C 21.40625 -4.609375 16.882812 -8.046875 13.5625 -12.453125 C 10.25 -16.859375 8.421875 -21.921875 8.078125 -27.640625 L 24.21875 -27.640625 C 24.675781 -22.953125 26.878906 -19.117188 30.828125 -16.140625 C 34.773438 -13.160156 39.953125 -11.671875 46.359375 -11.671875 C 52.316406 -11.671875 57.007812 -12.988281 60.4375 -15.625 C 63.875 -18.257812 65.59375 -21.582031 65.59375 -25.59375 C 65.59375 -29.707031 63.757812 -32.765625 60.09375 -34.765625 C 56.4375 -36.773438 50.769531 -38.753906 43.09375 -40.703125 C 36.113281 -42.523438 30.421875 -44.378906 26.015625 -46.265625 C 21.609375 -48.160156 17.828125 -50.96875 14.671875 -54.6875 C 11.523438 -58.40625 9.953125 -63.300781 9.953125 -69.375 C 9.953125 -74.1875 11.382812 -78.59375 14.25 -82.59375 C 17.113281 -86.601562 21.175781 -89.78125 26.4375 -92.125 C 31.707031 -94.46875 37.71875 -95.640625 44.46875 -95.640625 C 54.894531 -95.640625 63.3125 -93.003906 69.71875 -87.734375 C 76.125 -82.472656 79.554688 -75.265625 80.015625 -66.109375 L 64.390625 -66.109375 C 64.046875 -71.035156 62.070312 -74.984375 58.46875 -77.953125 C 54.863281 -80.929688 50.023438 -82.421875 43.953125 -82.421875 C 38.347656 -82.421875 33.882812 -81.21875 30.5625 -78.8125 C 27.25 -76.414062 25.59375 -73.269531 25.59375 -69.375 C 25.59375 -66.28125 26.59375 -63.734375 28.59375 -61.734375 C 30.59375 -59.734375 33.109375 -58.128906 36.140625 -56.921875 C 39.179688 -55.722656 43.390625 -54.378906 48.765625 -52.890625 C 55.523438 -51.054688 61.019531 -49.25 65.25 -47.46875 C 69.488281 -45.695312 73.125 -43.035156 76.15625 -39.484375 C 79.1875 -35.941406 80.757812 -31.3125 80.875 -25.59375 C 80.875 -20.4375 79.441406 -15.796875 76.578125 -11.671875 C 73.722656 -7.554688 69.691406 -4.320312 64.484375 -1.96875 C 59.273438 0.375 53.289062 1.546875 46.53125 1.546875 Z M 46.53125 1.546875 "/></g></g></g><g fill="#737373" fill-opacity="0.2"><g transform="translate(677.669774, 295.002099)"><g><path d="M 54.265625 1.546875 C 45.453125 1.546875 37.46875 -0.453125 30.3125 -4.453125 C 23.15625 -8.460938 17.546875 -14.160156 13.484375 -21.546875 C 9.421875 -28.929688 7.390625 -37.488281 7.390625 -47.21875 C 7.390625 -56.832031 9.476562 -65.332031 13.65625 -72.71875 C 17.832031 -80.101562 23.523438 -85.769531 30.734375 -89.71875 C 37.953125 -93.664062 46.023438 -95.640625 54.953125 -95.640625 C 63.878906 -95.640625 71.945312 -93.664062 79.15625 -89.71875 C 86.375 -85.769531 92.070312 -80.128906 96.25 -72.796875 C 100.425781 -65.472656 102.515625 -56.945312 102.515625 -47.21875 C 102.515625 -37.488281 100.367188 -28.929688 96.078125 -21.546875 C 91.785156 -14.160156 85.972656 -8.460938 78.640625 -4.453125 C 71.316406 -0.453125 63.191406 1.546875 54.265625 1.546875 Z M 54.265625 -12.1875 C 59.867188 -12.1875 65.128906 -13.503906 70.046875 -16.140625 C 74.972656 -18.773438 78.953125 -22.722656 81.984375 -27.984375 C 85.023438 -33.253906 86.546875 -39.664062 86.546875 -47.21875 C 86.546875 -54.78125 85.054688 -61.191406 82.078125 -66.453125 C 79.097656 -71.722656 75.203125 -75.644531 70.390625 -78.21875 C 65.585938 -80.789062 60.382812 -82.078125 54.78125 -82.078125 C 49.050781 -82.078125 43.8125 -80.789062 39.0625 -78.21875 C 34.3125 -75.644531 30.503906 -71.722656 27.640625 -66.453125 C 24.785156 -61.191406 23.359375 -54.78125 23.359375 -47.21875 C 23.359375 -39.550781 24.757812 -33.082031 27.5625 -27.8125 C 30.363281 -22.550781 34.109375 -18.628906 38.796875 -16.046875 C 43.492188 -13.472656 48.648438 -12.1875 54.265625 -12.1875 Z M 54.265625 -12.1875 "/></g></g></g><g fill="#737373" fill-opacity="0.2"><g transform="translate(786.185985, 295.002099)"><g><path d="M 28.84375 -78.8125 C 31.59375 -84.195312 35.515625 -88.375 40.609375 -91.34375 C 45.703125 -94.320312 51.914062 -95.8125 59.25 -95.8125 L 59.25 -79.671875 L 55.125 -79.671875 C 37.601562 -79.671875 28.84375 -70.171875 28.84375 -51.171875 L 28.84375 0 L 13.21875 0 L 13.21875 -94.109375 L 28.84375 -94.109375 Z M 28.84375 -78.8125 "/></g></g></g><g fill="#737373" fill-opacity="0.2"><g transform="translate(848.857489, 295.002099)"><g><path d="M 28.84375 -127.078125 L 28.84375 0 L 13.21875 0 L 13.21875 -127.078125 Z M 28.84375 -127.078125 "/></g></g></g><g fill="#737373" fill-opacity="0.2"><g transform="translate(889.722689, 295.002099)"><g><path d="M 21.296875 -109.390625 C 18.316406 -109.390625 15.796875 -110.414062 13.734375 -112.46875 C 11.671875 -114.53125 10.640625 -117.050781 10.640625 -120.03125 C 10.640625 -123.007812 11.671875 -125.523438 13.734375 -127.578125 C 15.796875 -129.640625 18.316406 -130.671875 21.296875 -130.671875 C 24.160156 -130.671875 26.59375 -129.640625 28.59375 -127.578125 C 30.59375 -125.523438 31.59375 -123.007812 31.59375 -120.03125 C 31.59375 -117.050781 30.59375 -114.53125 28.59375 -112.46875 C 26.59375 -110.414062 24.160156 -109.390625 21.296875 -109.390625 Z M 28.84375 -94.109375 L 28.84375 0 L 13.21875 0 L 13.21875 -94.109375 Z M 28.84375 -94.109375 "/></g></g></g><g fill="#737373" fill-opacity="0.2"><g transform="translate(930.58789, 295.002099)"><g><path d="M 59.078125 -95.8125 C 70.523438 -95.8125 79.796875 -92.347656 86.890625 -85.421875 C 93.984375 -78.503906 97.53125 -68.519531 97.53125 -55.46875 L 97.53125 0 L 82.078125 0 L 82.078125 -53.234375 C 82.078125 -62.617188 79.726562 -69.800781 75.03125 -74.78125 C 70.34375 -79.757812 63.9375 -82.25 55.8125 -82.25 C 47.5625 -82.25 41.003906 -79.671875 36.140625 -74.515625 C 31.273438 -69.367188 28.84375 -61.875 28.84375 -52.03125 L 28.84375 0 L 13.21875 0 L 13.21875 -94.109375 L 28.84375 -94.109375 L 28.84375 -80.703125 C 31.9375 -85.515625 36.144531 -89.234375 41.46875 -91.859375 C 46.789062 -94.492188 52.660156 -95.8125 59.078125 -95.8125 Z M 59.078125 -95.8125 "/></g></g></g><g fill="#737373" fill-opacity="0.2"><g transform="translate(1039.104101, 295.002099)"><g><path d="M 65.765625 0 L 28.84375 -41.5625 L 28.84375 0 L 13.21875 0 L 13.21875 -127.078125 L 28.84375 -127.078125 L 28.84375 -52.375 L 65.078125 -94.109375 L 86.890625 -94.109375 L 42.59375 -47.21875 L 87.0625 0 Z M 65.765625 0 "/></g></g></g><g fill="#000000" fill-opacity="1"><g transform="translate(311.959568, 296.708276)"><g><path d="M 32.28125 -81.21875 L 32.28125 -25.765625 C 32.28125 -21.179688 33.253906 -17.941406 35.203125 -16.046875 C 37.148438 -14.160156 40.523438 -13.21875 45.328125 -13.21875 L 56.84375 -13.21875 L 56.84375 0 L 42.765625 0 C 34.054688 0 27.523438 -2 23.171875 -6 C 18.828125 -10.007812 16.65625 -16.597656 16.65625 -25.765625 L 16.65625 -81.21875 L 4.46875 -81.21875 L 4.46875 -94.109375 L 16.65625 -94.109375 L 16.65625 -117.796875 L 32.28125 -117.796875 L 32.28125 -94.109375 L 56.84375 -94.109375 L 56.84375 -81.21875 Z M 32.28125 -81.21875 "/></g></g></g><g fill="#000000" fill-opacity="1"><g transform="translate(373.08573, 296.708276)"><g><path d="M 99.078125 -50.65625 C 99.078125 -47.675781 98.90625 -44.53125 98.5625 -41.21875 L 23.359375 -41.21875 C 23.929688 -31.9375 27.109375 -24.691406 32.890625 -19.484375 C 38.671875 -14.273438 45.679688 -11.671875 53.921875 -11.671875 C 60.671875 -11.671875 66.304688 -13.242188 70.828125 -16.390625 C 75.347656 -19.546875 78.523438 -23.753906 80.359375 -29.015625 L 97.1875 -29.015625 C 94.675781 -19.972656 89.640625 -12.617188 82.078125 -6.953125 C 74.523438 -1.285156 65.140625 1.546875 53.921875 1.546875 C 44.992188 1.546875 37.007812 -0.453125 29.96875 -4.453125 C 22.925781 -8.460938 17.398438 -14.160156 13.390625 -21.546875 C 9.390625 -28.929688 7.390625 -37.488281 7.390625 -47.21875 C 7.390625 -56.945312 9.332031 -65.472656 13.21875 -72.796875 C 17.113281 -80.128906 22.582031 -85.769531 29.625 -89.71875 C 36.664062 -93.664062 44.765625 -95.640625 53.921875 -95.640625 C 62.847656 -95.640625 70.742188 -93.691406 77.609375 -89.796875 C 84.484375 -85.910156 89.78125 -80.5625 93.5 -73.75 C 97.21875 -66.9375 99.078125 -59.238281 99.078125 -50.65625 Z M 82.9375 -53.921875 C 82.9375 -59.867188 81.617188 -64.988281 78.984375 -69.28125 C 76.359375 -73.582031 72.78125 -76.847656 68.25 -79.078125 C 63.726562 -81.304688 58.722656 -82.421875 53.234375 -82.421875 C 45.335938 -82.421875 38.613281 -79.898438 33.0625 -74.859375 C 27.507812 -69.828125 24.332031 -62.847656 23.53125 -53.921875 Z M 82.9375 -53.921875 "/></g></g></g><g fill="#000000" fill-opacity="1"><g transform="translate(478.167868, 296.708276)"><g><path d="M 59.078125 -95.8125 C 70.523438 -95.8125 79.796875 -92.347656 86.890625 -85.421875 C 93.984375 -78.503906 97.53125 -68.519531 97.53125 -55.46875 L 97.53125 0 L 82.078125 0 L 82.078125 -53.234375 C 82.078125 -62.617188 79.726562 -69.800781 75.03125 -74.78125 C 70.34375 -79.757812 63.9375 -82.25 55.8125 -82.25 C 47.5625 -82.25 41.003906 -79.671875 36.140625 -74.515625 C 31.273438 -69.367188 28.84375 -61.875 28.84375 -52.03125 L 28.84375 0 L 13.21875 0 L 13.21875 -94.109375 L 28.84375 -94.109375 L 28.84375 -80.703125 C 31.9375 -85.515625 36.144531 -89.234375 41.46875 -91.859375 C 46.789062 -94.492188 52.660156 -95.8125 59.078125 -95.8125 Z M 59.078125 -95.8125 "/></g></g></g><g fill="#000000" fill-opacity="1"><g transform="translate(586.684079, 296.708276)"><g><path d="M 46.53125 1.546875 C 39.320312 1.546875 32.851562 0.316406 27.125 -2.140625 C 21.40625 -4.609375 16.882812 -8.046875 13.5625 -12.453125 C 10.25 -16.859375 8.421875 -21.921875 8.078125 -27.640625 L 24.21875 -27.640625 C 24.675781 -22.953125 26.878906 -19.117188 30.828125 -16.140625 C 34.773438 -13.160156 39.953125 -11.671875 46.359375 -11.671875 C 52.316406 -11.671875 57.007812 -12.988281 60.4375 -15.625 C 63.875 -18.257812 65.59375 -21.582031 65.59375 -25.59375 C 65.59375 -29.707031 63.757812 -32.765625 60.09375 -34.765625 C 56.4375 -36.773438 50.769531 -38.753906 43.09375 -40.703125 C 36.113281 -42.523438 30.421875 -44.378906 26.015625 -46.265625 C 21.609375 -48.160156 17.828125 -50.96875 14.671875 -54.6875 C 11.523438 -58.40625 9.953125 -63.300781 9.953125 -69.375 C 9.953125 -74.1875 11.382812 -78.59375 14.25 -82.59375 C 17.113281 -86.601562 21.175781 -89.78125 26.4375 -92.125 C 31.707031 -94.46875 37.71875 -95.640625 44.46875 -95.640625 C 54.894531 -95.640625 63.3125 -93.003906 69.71875 -87.734375 C 76.125 -82.472656 79.554688 -75.265625 80.015625 -66.109375 L 64.390625 -66.109375 C 64.046875 -71.035156 62.070312 -74.984375 58.46875 -77.953125 C 54.863281 -80.929688 50.023438 -82.421875 43.953125 -82.421875 C 38.347656 -82.421875 33.882812 -81.21875 30.5625 -78.8125 C 27.25 -76.414062 25.59375 -73.269531 25.59375 -69.375 C 25.59375 -66.28125 26.59375 -63.734375 28.59375 -61.734375 C 30.59375 -59.734375 33.109375 -58.128906 36.140625 -56.921875 C 39.179688 -55.722656 43.390625 -54.378906 48.765625 -52.890625 C 55.523438 -51.054688 61.019531 -49.25 65.25 -47.46875 C 69.488281 -45.695312 73.125 -43.035156 76.15625 -39.484375 C 79.1875 -35.941406 80.757812 -31.3125 80.875 -25.59375 C 80.875 -20.4375 79.441406 -15.796875 76.578125 -11.671875 C 73.722656 -7.554688 69.691406 -4.320312 64.484375 -1.96875 C 59.273438 0.375 53.289062 1.546875 46.53125 1.546875 Z M 46.53125 1.546875 "/></g></g></g><g fill="#000000" fill-opacity="1"><g transform="translate(674.939306, 296.708276)"><g><path d="M 54.265625 1.546875 C 45.453125 1.546875 37.46875 -0.453125 30.3125 -4.453125 C 23.15625 -8.460938 17.546875 -14.160156 13.484375 -21.546875 C 9.421875 -28.929688 7.390625 -37.488281 7.390625 -47.21875 C 7.390625 -56.832031 9.476562 -65.332031 13.65625 -72.71875 C 17.832031 -80.101562 23.523438 -85.769531 30.734375 -89.71875 C 37.953125 -93.664062 46.023438 -95.640625 54.953125 -95.640625 C 63.878906 -95.640625 71.945312 -93.664062 79.15625 -89.71875 C 86.375 -85.769531 92.070312 -80.128906 96.25 -72.796875 C 100.425781 -65.472656 102.515625 -56.945312 102.515625 -47.21875 C 102.515625 -37.488281 100.367188 -28.929688 96.078125 -21.546875 C 91.785156 -14.160156 85.972656 -8.460938 78.640625 -4.453125 C 71.316406 -0.453125 63.191406 1.546875 54.265625 1.546875 Z M 54.265625 -12.1875 C 59.867188 -12.1875 65.128906 -13.503906 70.046875 -16.140625 C 74.972656 -18.773438 78.953125 -22.722656 81.984375 -27.984375 C 85.023438 -33.253906 86.546875 -39.664062 86.546875 -47.21875 C 86.546875 -54.78125 85.054688 -61.191406 82.078125 -66.453125 C 79.097656 -71.722656 75.203125 -75.644531 70.390625 -78.21875 C 65.585938 -80.789062 60.382812 -82.078125 54.78125 -82.078125 C 49.050781 -82.078125 43.8125 -80.789062 39.0625 -78.21875 C 34.3125 -75.644531 30.503906 -71.722656 27.640625 -66.453125 C 24.785156 -61.191406 23.359375 -54.78125 23.359375 -47.21875 C 23.359375 -39.550781 24.757812 -33.082031 27.5625 -27.8125 C 30.363281 -22.550781 34.109375 -18.628906 38.796875 -16.046875 C 43.492188 -13.472656 48.648438 -12.1875 54.265625 -12.1875 Z M 54.265625 -12.1875 "/></g></g></g><g fill="#000000" fill-opacity="1"><g transform="translate(783.455517, 296.708276)"><g><path d="M 28.84375 -78.8125 C 31.59375 -84.195312 35.515625 -88.375 40.609375 -91.34375 C 45.703125 -94.320312 51.914062 -95.8125 59.25 -95.8125 L 59.25 -79.671875 L 55.125 -79.671875 C 37.601562 -79.671875 28.84375 -70.171875 28.84375 -51.171875 L 28.84375 0 L 13.21875 0 L 13.21875 -94.109375 L 28.84375 -94.109375 Z M 28.84375 -78.8125 "/></g></g></g><g fill="#000000" fill-opacity="1"><g transform="translate(846.127021, 296.708276)"><g><path d="M 28.84375 -127.078125 L 28.84375 0 L 13.21875 0 L 13.21875 -127.078125 Z M 28.84375 -127.078125 "/></g></g></g><g fill="#000000" fill-opacity="1"><g transform="translate(886.992222, 296.708276)"><g><path d="M 21.296875 -109.390625 C 18.316406 -109.390625 15.796875 -110.414062 13.734375 -112.46875 C 11.671875 -114.53125 10.640625 -117.050781 10.640625 -120.03125 C 10.640625 -123.007812 11.671875 -125.523438 13.734375 -127.578125 C 15.796875 -129.640625 18.316406 -130.671875 21.296875 -130.671875 C 24.160156 -130.671875 26.59375 -129.640625 28.59375 -127.578125 C 30.59375 -125.523438 31.59375 -123.007812 31.59375 -120.03125 C 31.59375 -117.050781 30.59375 -114.53125 28.59375 -112.46875 C 26.59375 -110.414062 24.160156 -109.390625 21.296875 -109.390625 Z M 28.84375 -94.109375 L 28.84375 0 L 13.21875 0 L 13.21875 -94.109375 Z M 28.84375 -94.109375 "/></g></g></g><g fill="#000000" fill-opacity="1"><g transform="translate(927.857422, 296.708276)"><g><path d="M 59.078125 -95.8125 C 70.523438 -95.8125 79.796875 -92.347656 86.890625 -85.421875 C 93.984375 -78.503906 97.53125 -68.519531 97.53125 -55.46875 L 97.53125 0 L 82.078125 0 L 82.078125 -53.234375 C 82.078125 -62.617188 79.726562 -69.800781 75.03125 -74.78125 C 70.34375 -79.757812 63.9375 -82.25 55.8125 -82.25 C 47.5625 -82.25 41.003906 -79.671875 36.140625 -74.515625 C 31.273438 -69.367188 28.84375 -61.875 28.84375 -52.03125 L 28.84375 0 L 13.21875 0 L 13.21875 -94.109375 L 28.84375 -94.109375 L 28.84375 -80.703125 C 31.9375 -85.515625 36.144531 -89.234375 41.46875 -91.859375 C 46.789062 -94.492188 52.660156 -95.8125 59.078125 -95.8125 Z M 59.078125 -95.8125 "/></g></g></g><g fill="#000000" fill-opacity="1"><g transform="translate(1036.373633, 296.708276)"><g><path d="M 65.765625 0 L 28.84375 -41.5625 L 28.84375 0 L 13.21875 0 L 13.21875 -127.078125 L 28.84375 -127.078125 L 28.84375 -52.375 L 65.078125 -94.109375 L 86.890625 -94.109375 L 42.59375 -47.21875 L 87.0625 0 Z M 65.765625 0 "/></g></g></g></svg>